SplineFontDB: 3.0
FontName: HM_FTXelham
FullName: HM_FTXelham
FamilyName: HM_FTXelham
Weight: Book
Copyright: Copyright (c) Hossein, 2013. All rights reserved.
Version: 0.1
ItalicAngle: 0
UnderlinePosition: -540
UnderlineWidth: 60
Ascent: 1638
Descent: 410
sfntRevision: 0x00010000
LayerCount: 2
Layer: 0 1 "Back"  1
Layer: 1 1 "Fore"  0
XUID: [1021 102 1371595031 6992056]
FSType: 0
OS2Version: 2
OS2_WeightWidthSlopeOnly: 0
OS2_UseTypoMetrics: 1
CreationTime: 1194658560
ModificationTime: 1360912312
PfmFamily: 17
TTFWeight: 400
TTFWidth: 5
LineGap: 0
VLineGap: 0
Panose: 2 0 5 3 8 0 0 2 0 3
OS2TypoAscent: 2100
OS2TypoAOffset: 0
OS2TypoDescent: -1000
OS2TypoDOffset: 0
OS2TypoLinegap: 0
OS2WinAscent: 2100
OS2WinAOffset: 0
OS2WinDescent: 1000
OS2WinDOffset: 0
HheadAscent: 2100
HheadAOffset: 0
HheadDescent: -1000
HheadDOffset: 0
OS2SubXSize: 1434
OS2SubYSize: 1331
OS2SubXOff: 0
OS2SubYOff: 293
OS2SupXSize: 1434
OS2SupYSize: 1331
OS2SupXOff: 0
OS2SupYOff: 928
OS2StrikeYSize: 102
OS2StrikeYPos: 512
OS2Vendor: 'pars'
OS2CodePages: 20000051.41000000
OS2UnicodeRanges: 00002003.80000000.00000008.00000000
Lookup: 4 0 1 "gsub_ligature_dfl_liga_arab_FAR_Lookup_01"  {"gsub_ligature_dfl_liga_arab_FAR_Lookup_01_Subtable_01"  } ['liga' ('arab' <'FAR ' > ) ]
Lookup: 4 0 1 "gsub_ligature_dfl_liga_arab_FAR_Lookup_02"  {"gsub_ligature_dfl_liga_arab_FAR_Lookup_02_Subtable_01"  } ['liga' ('arab' <'FAR ' > ) ]
Lookup: 3 0 0 "gsub_alternate_dfl_aalt_arab_FAR_Lookup_01"  {"gsub_alternate_dfl_aalt_arab_FAR_Lookup_01_Subtable_01"  } ['aalt' ('arab' <'FAR ' > ) ]
Lookup: 1 1 0 "gsub_single_rtl_fina_arab_FAR_Lookup_01"  {"gsub_single_rtl_fina_arab_FAR_Lookup_01_Subtable_01"  } ['fina' ('arab' <'FAR ' > ) ]
Lookup: 1 1 0 "gsub_single_rtl_init_arab_FAR_Lookup_01"  {"gsub_single_rtl_init_arab_FAR_Lookup_01_Subtable_01"  } ['init' ('arab' <'FAR ' > ) ]
Lookup: 1 1 0 "gsub_single_rtl_medi_arab_FAR_Lookup_01"  {"gsub_single_rtl_medi_arab_FAR_Lookup_01_Subtable_01"  } ['medi' ('arab' <'FAR ' > ) ]

StartChar: .notdef
Encoding: 65536 -1 0
Width: 1122
GlyphClass: 2
Flags: W
LayerCount: 2
Fore
SplineSet
624 299 m 0,0,1
 624 269 624 269 602 246.5 c 128,-1,2
 580 224 580 224 548 224 c 0,3,4
 518 224 518 224 496.5 246.5 c 128,-1,5
 475 269 475 269 475 299 c 0,6,7
 475 331 475 331 496.5 352.5 c 128,-1,8
 518 374 518 374 551 374 c 0,9,10
 581 374 581 374 602.5 352.5 c 128,-1,11
 624 331 624 331 624 299 c 0,0,1
732 780 m 0,12,13
 732 737 732 737 708.5 710 c 128,-1,14
 685 683 685 683 648 683 c 0,15,16
 616 683 616 683 597 701.5 c 128,-1,17
 578 720 578 720 578 749 c 0,18,19
 578 770 578 770 588 785 c 128,-1,20
 598 800 598 800 610.5 810.5 c 128,-1,21
 623 821 623 821 633 829 c 128,-1,22
 643 837 643 837 643 843 c 0,23,24
 643 863 643 863 623.5 875 c 128,-1,25
 604 887 604 887 574 887 c 0,26,27
 536 887 536 887 512 866 c 128,-1,28
 488 845 488 845 488 813 c 0,29,30
 488 795 488 795 498.5 769 c 128,-1,31
 509 743 509 743 521.5 718 c 128,-1,32
 534 693 534 693 545.5 673 c 128,-1,33
 557 653 557 653 559 648 c 0,34,35
 570 619 570 619 576.5 583.5 c 128,-1,36
 583 548 583 548 583 513 c 0,37,38
 583 492 583 492 581.5 470.5 c 128,-1,39
 580 449 580 449 578 424 c 1,40,-1
 539 424 l 1,41,-1
 539 442 l 1,42,-1
 543 472 l 1,43,44
 543 505 543 505 498 544 c 0,45,46
 425 609 425 609 416 620 c 0,47,48
 371 673 371 673 371 740 c 0,49,50
 371 781 371 781 386 815.5 c 128,-1,51
 401 850 401 850 426.5 875.5 c 128,-1,52
 452 901 452 901 486.5 915 c 128,-1,53
 521 929 521 929 560 929 c 0,54,55
 595 929 595 929 626.5 918.5 c 128,-1,56
 658 908 658 908 681.5 888.5 c 128,-1,57
 705 869 705 869 718.5 841.5 c 128,-1,58
 732 814 732 814 732 780 c 0,12,13
132 31 m 1,59,-1
 992 31 l 1,60,-1
 992 1122 l 1,61,-1
 132 1122 l 1,62,-1
 132 31 l 1,59,-1
100 0 m 1,63,-1
 100 1154 l 1,64,-1
 1022 1154 l 1,65,-1
 1022 0 l 1,66,-1
 100 0 l 1,63,-1
EndSplineSet
EndChar

StartChar: exclam
Encoding: 33 33 4
Width: 523
VWidth: 1639
GlyphClass: 2
Flags: W
LayerCount: 2
Fore
SplineSet
101.810546875 1356.28027344 m 1,0,-1
 321.5703125 1356.28027344 l 1,1,-1
 321.5703125 401.799804688 l 1,2,-1
 101.810546875 401.799804688 l 1,3,-1
 101.810546875 1356.28027344 l 1,0,-1
208.41015625 216.48046875 m 0,4,5
 260.970703125 221.325195312 260.970703125 221.325195312 295.330078125 188.599609375 c 1,6,7
 333.44921875 147.015625 333.44921875 147.015625 319.1484375 77.0625 c 0,8,9
 311.4609375 44.0107421875 311.4609375 44.0107421875 293.690429688 24.599609375 c 1,8,9
 265.448242188 0.16796875 265.448242188 0.16796875 218.250976562 -3.2802734375 c 1,10,11
 161.061523438 -5.2197265625 161.061523438 -5.2197265625 129.690429688 24.599609375 c 1,12,13
 90.0458984375 65.96875 90.0458984375 65.96875 103.337890625 136.145507812 c 0,14,15
 110.828125 170.471679688 110.828125 170.471679688 129.690429688 190.240234375 c 0,14,15
 153.80078125 212.809570312 153.80078125 212.809570312 208.41015625 216.48046875 c 0,4,5
EndSplineSet
EndChar

StartChar: percent
Encoding: 37 37 8
Width: 991
VWidth: 1639
GlyphClass: 2
Flags: W
LayerCount: 2
Fore
SplineSet
793.209960938 1185.71972656 m 1,0,-1
 858.810546875 1144.71972656 l 1,1,-1
 768.610351562 992.200195312 l 1,2,-1
 586.5703125 683.879882812 l 1,3,-1
 186.41015625 9.83984375 l 1,4,-1
 142.129882812 39.3603515625 l 1,5,-1
 125.73046875 52.48046875 l 1,6,-1
 135.5703125 72.16015625 l 1,7,-1
 163.450195312 119.719726562 l 1,8,-1
 276.610351562 311.599609375 l 1,9,-1
 637.41015625 923.3203125 l 1,10,-1
 793.209960938 1185.71972656 l 1,0,-1
219.209960938 1092.24023438 m 1,11,12
 286.079101562 1097.96289062 286.079101562 1097.96289062 319.25 1064.36035156 c 0,13,14
 358.7890625 1023.10253906 358.7890625 1023.10253906 344.643554688 952.822265625 c 0,15,16
 337.06640625 919.821289062 337.06640625 919.821289062 319.25 900.360351562 c 1,15,16
 296.784179688 879.28125 296.784179688 879.28125 255.290039062 872.48046875 c 1,17,18
 188.5390625 867.1015625 188.5390625 867.1015625 153.610351562 900.360351562 c 1,19,20
 113.8828125 941.814453125 113.8828125 941.814453125 129.319335938 1013.69238281 c 0,21,22
 137.000976562 1045.40722656 137.000976562 1045.40722656 153.610351562 1064.36035156 c 1,21,22
 176.434570312 1085.7109375 176.434570312 1085.7109375 219.209960938 1092.24023438 c 1,11,12
737.450195312 280.440429688 m 1,23,24
 804.201171875 285.818359375 804.201171875 285.818359375 839.129882812 252.559570312 c 1,25,26
 877.249023438 210.975585938 877.249023438 210.975585938 862.948242188 141.022460938 c 0,27,28
 855.260742188 107.970703125 855.260742188 107.970703125 837.490234375 88.5595703125 c 0,27,28
 817.434570312 67.849609375 817.434570312 67.849609375 773.530273438 60.6796875 c 1,29,30
 706.28515625 55.265625 706.28515625 55.265625 673.490234375 88.5595703125 c 0,31,32
 633.162109375 132.39453125 633.162109375 132.39453125 647.491210938 202.280273438 c 0,33,34
 655.185546875 235.021484375 655.185546875 235.021484375 673.490234375 254.200195312 c 1,33,34
 696.55859375 273.739257812 696.55859375 273.739257812 737.450195312 280.440429688 c 1,23,24
EndSplineSet
EndChar

StartChar: parenleft
Encoding: 40 40 11
Width: 577
VWidth: 1639
GlyphClass: 2
Flags: W
LayerCount: 2
Fore
SplineSet
477.202148438 -200.080078125 m 1,0,1
 453.641601562 -200.080078125 453.641601562 -200.080078125 405.880859375 -201.4921875 c 0,2,3
 289.63671875 -204.651367188 289.63671875 -204.651367188 234.482421875 -196.799804688 c 0,2,3
 162.588867188 -184.3984375 162.588867188 -184.3984375 137.72265625 -159.080078125 c 1,4,5
 105.319335938 -121.321289062 105.319335938 -121.321289062 101.642578125 -39.3603515625 c 0,6,7
 99.943359375 0.5107421875 99.943359375 0.5107421875 100.001953125 182.040039062 c 2,8,-1
 100.001953125 1015.16015625 l 2,9,10
 100.1171875 1201.50488281 100.1171875 1201.50488281 101.642578125 1223.44042969 c 0,11,12
 109.497070312 1308.82421875 109.497070312 1308.82421875 137.72265625 1343.16015625 c 1,13,14
 161.775390625 1369.60351562 161.775390625 1369.60351562 227.921875 1380.87988281 c 0,15,16
 278.922851562 1389.20703125 278.922851562 1389.20703125 447.8828125 1386.09570312 c 0,17,18
 463.958007812 1385.79980469 463.958007812 1385.79980469 477.202148438 1385.79980469 c 1,17,-1
 477.202148438 1233.28027344 l 1,18,19
 386.173828125 1233.13378906 386.173828125 1233.13378906 368.961914062 1231.63964844 c 0,20,21
 327.981445312 1226.5546875 327.981445312 1226.5546875 324.682617188 1225.08007812 c 0,22,23
 319.37890625 1222.42871094 319.37890625 1222.42871094 301.624023438 1203.44238281 c 0,24,25
 298.307617188 1200.2265625 298.307617188 1200.2265625 296.801757812 1198.83984375 c 0,24,25
 279.712890625 1186.12304688 279.712890625 1186.12304688 273.841796875 1175.87988281 c 0,26,27
 260.484375 1150.24316406 260.484375 1150.24316406 260.72265625 1079.12011719 c 2,28,-1
 260.72265625 900.360351562 l 1,29,-1
 260.72265625 270.599609375 l 1,30,-1
 260.72265625 103.3203125 l 2,31,32
 261.49609375 32.748046875 261.49609375 32.748046875 272.202148438 11.48046875 c 0,33,34
 279.0703125 1.2666015625 279.0703125 1.2666015625 296.801757812 -13.1201171875 c 0,35,36
 299.248046875 -15.5654296875 299.248046875 -15.5654296875 303.567382812 -20.763671875 c 0,37,38
 315.20703125 -33.265625 315.20703125 -33.265625 323.041992188 -37.7197265625 c 0,37,38
 333.866210938 -42.4501953125 333.866210938 -42.4501953125 377.162109375 -45.919921875 c 0,39,40
 443.248046875 -49.14453125 443.248046875 -49.14453125 477.202148438 -49.2001953125 c 1,41,-1
 477.202148438 -200.080078125 l 1,0,1
EndSplineSet
EndChar

StartChar: parenright
Encoding: 41 41 12
Width: 676
VWidth: 1639
GlyphClass: 2
Flags: W
LayerCount: 2
Fore
SplineSet
100 1385.79980469 m 1,0,-1
 247.600585938 1385.79980469 l 2,1,2
 327.30078125 1385.49804688 327.30078125 1385.49804688 352.560546875 1380.87988281 c 1,3,4
 420.42578125 1363.85351562 420.42578125 1363.85351562 437.83984375 1343.16015625 c 0,5,6
 467.192382812 1308.61523438 467.192382812 1308.61523438 473.919921875 1233.28027344 c 0,7,8
 475.688476562 1205.6953125 475.688476562 1205.6953125 475.560546875 1016.79980469 c 2,9,-1
 475.560546875 180.400390625 l 2,10,11
 475.456054688 -25.064453125 475.456054688 -25.064453125 473.919921875 -49.2001953125 c 0,12,13
 469.734375 -121.637695312 469.734375 -121.637695312 437.83984375 -159.080078125 c 1,14,15
 411.78515625 -185.651367188 411.78515625 -185.651367188 342.720703125 -196.799804688 c 0,16,17
 295.805664062 -203.641601562 295.805664062 -203.641601562 129.451171875 -200.393554688 c 0,18,19
 112.6953125 -200.09765625 112.6953125 -200.09765625 100 -200.080078125 c 1,18,-1
 100 -49.2001953125 l 1,19,20
 135.932617188 -49.119140625 135.932617188 -49.119140625 200.040039062 -45.919921875 c 1,21,22
 246.830078125 -41.083984375 246.830078125 -41.083984375 254.16015625 -37.7197265625 c 0,23,24
 255.754882812 -36.80859375 255.754882812 -36.80859375 276.918945312 -16.2626953125 c 0,25,26
 278.668945312 -14.5625 278.668945312 -14.5625 280.400390625 -13.1201171875 c 0,25,26
 298.967773438 3.408203125 298.967773438 3.408203125 305 13.1201171875 c 0,27,28
 315.095703125 36.1923828125 315.095703125 36.1923828125 314.83984375 103.3203125 c 2,29,-1
 314.83984375 272.240234375 l 1,30,-1
 314.83984375 897.080078125 l 1,31,-1
 314.83984375 1079.12011719 l 2,32,33
 314.83984375 1147.421875 314.83984375 1147.421875 308.413085938 1163.81054688 c 0,34,35
 305.68359375 1170.04199219 305.68359375 1170.04199219 303.360351562 1174.24023438 c 0,34,35
 298.3125 1181.66894531 298.3125 1181.66894531 278.760742188 1200.48046875 c 0,36,37
 256.346679688 1222.89355469 256.346679688 1222.89355469 252.520507812 1225.08007812 c 0,38,39
 245.092773438 1228.13964844 245.092773438 1228.13964844 208.240234375 1231.63964844 c 0,40,41
 187.265625 1233.39648438 187.265625 1233.39648438 100 1233.28027344 c 1,42,-1
 100 1385.79980469 l 1,0,-1
EndSplineSet
EndChar

StartChar: plus
Encoding: 43 43 14
Width: 708
VWidth: 1639
GlyphClass: 2
Flags: W
LayerCount: 2
Fore
SplineSet
299.919921875 742.919921875 m 1,0,-1
 409.80078125 742.919921875 l 1,1,-1
 409.80078125 475.599609375 l 1,2,-1
 436.040039062 475.599609375 l 1,3,-1
 436.040039062 449.360351562 l 1,4,-1
 700.080078125 449.360351562 l 1,5,-1
 700.080078125 347.6796875 l 1,6,-1
 436.040039062 347.6796875 l 1,7,-1
 436.040039062 321.440429688 l 1,8,-1
 409.80078125 321.440429688 l 1,9,-1
 409.80078125 47.5595703125 l 1,10,-1
 299.919921875 47.5595703125 l 1,11,-1
 299.919921875 321.440429688 l 1,12,-1
 273.680664062 321.440429688 l 1,13,-1
 273.680664062 347.6796875 l 1,14,-1
 8 347.6796875 l 1,15,-1
 8 449.360351562 l 1,16,-1
 273.680664062 449.360351562 l 1,17,-1
 273.680664062 475.599609375 l 1,18,-1
 299.919921875 475.599609375 l 1,19,-1
 299.919921875 742.919921875 l 1,0,-1
EndSplineSet
EndChar

StartChar: hyphen
Encoding: 45 45 16
AltUni2: 002212.ffffffff.0 0000ad.ffffffff.0
Width: 932
VWidth: 1639
GlyphClass: 2
Flags: W
LayerCount: 2
Fore
SplineSet
120 449.360351562 m 1,0,-1
 812.080078125 449.360351562 l 1,1,-1
 812.080078125 347.6796875 l 1,2,-1
 120 347.6796875 l 1,3,-1
 120 449.360351562 l 1,0,-1
EndSplineSet
EndChar

StartChar: period
Encoding: 46 46 17
Width: 523
VWidth: 1639
GlyphClass: 2
Flags: W
LayerCount: 2
Fore
SplineSet
192.2109375 213.200195312 m 1,0,1
 260.38671875 218.741210938 260.38671875 218.741210938 295.530273438 185.3203125 c 1,2,3
 333.649414062 143.736328125 333.649414062 143.736328125 319.348632812 73.7822265625 c 0,4,5
 311.661132812 40.73046875 311.661132812 40.73046875 293.890625 21.3203125 c 1,4,5
 271.06640625 -0.03125 271.06640625 -0.03125 228.291015625 -6.5595703125 c 1,6,7
 164.946289062 -11.9697265625 164.946289062 -11.9697265625 129.890625 21.3203125 c 1,8,9
 90.0703125 62.8720703125 90.0703125 62.8720703125 103.297851562 132.857421875 c 0,10,11
 110.493164062 165.905273438 110.493164062 165.905273438 128.250976562 185.3203125 c 1,10,11
 150.716796875 206.3984375 150.716796875 206.3984375 192.2109375 213.200195312 c 1,0,1
EndSplineSet
EndChar

StartChar: slash
Encoding: 47 47 18
Width: 745
VWidth: 1639
GlyphClass: 2
Flags: W
LayerCount: 2
Fore
SplineSet
670.479492188 1185.71972656 m 1,0,-1
 736.080078125 1144.71972656 l 1,1,-1
 645.879882812 992.200195312 l 1,2,-1
 463.83984375 683.879882812 l 1,3,-1
 63.6796875 9.83984375 l 1,4,-1
 19.3994140625 39.3603515625 l 1,5,-1
 3 52.48046875 l 1,6,-1
 12.83984375 72.16015625 l 1,7,-1
 40.7197265625 119.719726562 l 1,8,-1
 153.879882812 311.599609375 l 1,9,-1
 514.6796875 923.3203125 l 1,10,-1
 670.479492188 1185.71972656 l 1,0,-1
EndSplineSet
EndChar

StartChar: colon
Encoding: 58 58 29
Width: 533
VWidth: 1639
GlyphClass: 2
Flags: W
LayerCount: 2
Fore
SplineSet
205.556640625 572.360351562 m 1,0,1
 271.401367188 577.6328125 271.401367188 577.6328125 305.596679688 542.83984375 c 1,2,3
 344.80859375 500.063476562 344.80859375 500.063476562 328.766601562 430.263671875 c 0,4,5
 320.8359375 399.620117188 320.8359375 399.620117188 303.95703125 380.48046875 c 0,4,5
 283.618164062 359.493164062 283.618164062 359.493164062 241.63671875 352.599609375 c 1,6,7
 173.4609375 347.05859375 173.4609375 347.05859375 138.317382812 380.48046875 c 1,8,9
 98.931640625 425.236328125 98.931640625 425.236328125 115.279296875 495.211914062 c 0,10,11
 123.24609375 525.529296875 123.24609375 525.529296875 139.95703125 544.48046875 c 1,10,11
 162.78125 565.831054688 162.78125 565.831054688 205.556640625 572.360351562 c 1,0,1
195.716796875 219.759765625 m 1,12,13
 261.561523438 225.033203125 261.561523438 225.033203125 295.756835938 190.240234375 c 1,14,15
 334.327148438 148.163085938 334.327148438 148.163085938 319.32421875 78.7197265625 c 0,16,17
 311.51953125 46.8828125 311.51953125 46.8828125 294.1171875 27.8798828125 c 1,16,17
 271.29296875 6.5283203125 271.29296875 6.5283203125 228.516601562 0 c 1,18,19
 163.189453125 -5.21484375 163.189453125 -5.21484375 128.477539062 27.8798828125 c 1,20,21
 90.076171875 69.7724609375 90.076171875 69.7724609375 103.458984375 139.416992188 c 0,22,23
 110.764648438 172.514648438 110.764648438 172.514648438 128.477539062 191.879882812 c 1,22,23
 153.4765625 213.323242188 153.4765625 213.323242188 195.716796875 219.759765625 c 1,12,13
EndSplineSet
EndChar

StartChar: equal
Encoding: 61 61 32
Width: 710
VWidth: 1639
GlyphClass: 2
Flags: W
LayerCount: 2
Fore
SplineSet
9.640625 560.879882812 m 1,0,-1
 701.720703125 560.879882812 l 1,1,-1
 701.720703125 459.200195312 l 1,2,-1
 9.640625 459.200195312 l 1,3,-1
 9.640625 560.879882812 l 1,0,-1
8 311.599609375 m 1,4,-1
 701.720703125 311.599609375 l 1,5,-1
 701.720703125 209.919921875 l 1,6,-1
 8 209.919921875 l 1,7,-1
 8 311.599609375 l 1,4,-1
EndSplineSet
EndChar

StartChar: bracketleft
Encoding: 91 91 62
Width: 551
VWidth: 1639
GlyphClass: 2
Flags: W
LayerCount: 2
Fore
SplineSet
100 1863.04003906 m 1,0,-1
 450.959960938 1863.04003906 l 1,1,-1
 450.959960938 1838.44042969 l 1,2,-1
 250.879882812 1838.44042969 l 1,3,-1
 250.879882812 1812.20019531 l 1,4,-1
 224.639648438 1812.20019531 l 1,5,-1
 224.639648438 -77.080078125 l 1,6,-1
 250.879882812 -77.080078125 l 1,7,-1
 250.879882812 -103.3203125 l 1,8,-1
 450.959960938 -103.3203125 l 1,9,-1
 450.959960938 -126.280273438 l 1,10,-1
 100 -126.280273438 l 1,11,-1
 100 1863.04003906 l 1,0,-1
EndSplineSet
EndChar

StartChar: bracketright
Encoding: 93 93 64
Width: 600
VWidth: 1639
GlyphClass: 2
Flags: W
LayerCount: 2
Fore
SplineSet
100 1859.75976562 m 1,0,-1
 400.120117188 1859.75976562 l 1,1,-1
 400.120117188 -126.280273438 l 1,2,-1
 100 -126.280273438 l 1,3,-1
 100 -103.3203125 l 1,4,-1
 249.240234375 -103.3203125 l 1,5,-1
 249.240234375 -77.080078125 l 1,6,-1
 275.48046875 -77.080078125 l 1,7,-1
 275.48046875 1810.55957031 l 1,8,-1
 249.240234375 1810.55957031 l 1,9,-1
 249.240234375 1836.79980469 l 1,10,-1
 100 1836.79980469 l 1,11,-1
 100 1859.75976562 l 1,0,-1
EndSplineSet
EndChar

StartChar: guillemotleft
Encoding: 171 171 175
Width: 885
VWidth: 1639
GlyphClass: 2
Flags: W
LayerCount: 2
Fore
SplineSet
326.330078125 6.5595703125 m 1,0,1
 201.390625 6.5595703125 201.390625 6.5595703125 193.2265625 7.4306640625 c 0,2,3
 183.249023438 8.587890625 183.249023438 8.587890625 175.450195312 9.83984375 c 0,2,3
 135.584960938 14.6806640625 135.584960938 14.6806640625 121.330078125 31.16015625 c 1,4,5
 108.6171875 43.2890625 108.6171875 43.2890625 104.9296875 68.8798828125 c 0,6,7
 99.78515625 93.140625 99.78515625 93.140625 100.009765625 178.759765625 c 2,8,-1
 100.009765625 564.16015625 l 2,9,10
 100.009765625 655.515625 100.009765625 655.515625 102.401367188 667.997070312 c 0,11,12
 103.754882812 674.435546875 103.754882812 674.435546875 104.9296875 678.959960938 c 0,11,12
 113.90234375 711.140625 113.90234375 711.140625 121.330078125 718.3203125 c 0,13,14
 122.969726562 719.959960938 122.969726562 719.959960938 126.25 722.419921875 c 0,15,16
 129.529296875 724.879882812 129.529296875 724.879882812 132.809570312 726.51953125 c 0,17,18
 136.08984375 728.16015625 136.08984375 728.16015625 138.549804688 729.799804688 c 0,19,20
 141.009765625 731.440429688 141.009765625 731.440429688 145.109375 732.259765625 c 0,21,22
 149.209960938 733.080078125 149.209960938 733.080078125 151.669921875 733.900390625 c 0,23,24
 154.129882812 734.719726562 154.129882812 734.719726562 159.049804688 735.540039062 c 0,25,26
 163.969726562 736.360351562 163.969726562 736.360351562 165.609375 737.1796875 c 0,27,28
 167.25 738 167.25 738 172.990234375 738.8203125 c 2,29,-1
 178.729492188 739.639648438 l 2,15,16
 204.63671875 742.306640625 204.63671875 742.306640625 326.330078125 741.280273438 c 1,17,-1
 326.330078125 664.200195312 l 1,18,19
 320.135742188 664.200195312 320.135742188 664.200195312 305.709960938 664.951171875 c 0,20,21
 253.732421875 666.904296875 253.732421875 666.904296875 236.129882812 657.639648438 c 0,20,21
 230.73828125 654.045898438 230.73828125 654.045898438 224.912109375 645.918945312 c 0,22,23
 219.176757812 638.866210938 219.176757812 638.866210938 216.450195312 636.3203125 c 0,22,23
 213.959960938 633.830078125 213.959960938 633.830078125 208.541992188 629.8203125 c 0,24,25
 199.680664062 622.237304688 199.680664062 622.237304688 196.76953125 618.280273438 c 0,24,25
 183.806640625 585.408203125 183.806640625 585.408203125 186.9296875 508.400390625 c 1,26,-1
 186.9296875 249.280273438 l 2,27,28
 186.9296875 241.21484375 186.9296875 241.21484375 185.706054688 222.173828125 c 0,29,30
 182.372070312 157.260742188 182.372070312 157.260742188 195.129882812 136.120117188 c 0,29,30
 198.877929688 131.434570312 198.877929688 131.434570312 206.375 126.346679688 c 0,31,32
 211.998046875 122.53125 211.998046875 122.53125 214.809570312 119.719726562 c 0,31,32
 217.579101562 116.950195312 217.579101562 116.950195312 221.981445312 110.78125 c 0,33,34
 229.092773438 101.8046875 229.092773438 101.8046875 232.849609375 98.400390625 c 0,33,34
 252 88.2578125 252 88.2578125 326.330078125 88.5595703125 c 1,35,-1
 326.330078125 6.5595703125 l 1,0,1
685.490234375 6.5595703125 m 1,36,37
 560.549804688 6.5595703125 560.549804688 6.5595703125 552.38671875 7.4306640625 c 0,38,39
 542.409179688 8.587890625 542.409179688 8.587890625 534.609375 9.83984375 c 0,38,39
 495.061523438 14.5078125 495.061523438 14.5078125 480.490234375 29.51953125 c 0,40,41
 469.009765625 41 469.009765625 41 462.8203125 70.48828125 c 2,42,-1
 462.450195312 72.16015625 l 2,42,43
 458.23828125 95.7373046875 458.23828125 95.7373046875 459.169921875 185.3203125 c 2,44,-1
 459.169921875 569.080078125 l 2,45,46
 459.169921875 577.526367188 459.169921875 577.526367188 458.239257812 597.37109375 c 0,47,48
 454.9296875 690.43359375 454.9296875 690.43359375 478.849609375 718.3203125 c 1,47,48
 497.374023438 735.5 497.374023438 735.5 539.529296875 739.639648438 c 0,49,50
 558.856445312 741.471679688 558.856445312 741.471679688 685.490234375 741.280273438 c 1,51,-1
 685.490234375 664.200195312 l 1,52,53
 679.294921875 664.200195312 679.294921875 664.200195312 664.870117188 664.951171875 c 0,54,55
 612.892578125 666.904296875 612.892578125 666.904296875 595.290039062 657.639648438 c 0,54,55
 588.077148438 652.21875 588.077148438 652.21875 575.609375 636.3203125 c 0,56,57
 572.7734375 632.774414062 572.7734375 632.774414062 565.923828125 628.169921875 c 0,58,59
 557.046875 620.844726562 557.046875 620.844726562 554.290039062 616.639648438 c 0,58,59
 543.319335938 594.87109375 543.319335938 594.87109375 544.450195312 531.360351562 c 2,60,-1
 544.450195312 303.400390625 l 2,61,62
 544.622070312 179.900390625 544.622070312 179.900390625 546.08984375 165.639648438 c 0,63,64
 551.44140625 128.516601562 551.44140625 128.516601562 575.609375 121.360351562 c 1,65,66
 597.008789062 86.736328125 597.008789062 86.736328125 685.490234375 88.5595703125 c 1,67,-1
 685.490234375 6.5595703125 l 1,36,37
EndSplineSet
EndChar

StartChar: guillemotright
Encoding: 187 187 176
Width: 887
VWidth: 1639
GlyphClass: 2
Flags: W
LayerCount: 2
Fore
SplineSet
100 741.280273438 m 1,0,1
 231.106445312 741.1171875 231.106445312 741.1171875 245.959960938 739.639648438 c 0,2,3
 289.041992188 734.618164062 289.041992188 734.618164062 305 718.3203125 c 0,4,5
 331.338867188 689.34765625 331.338867188 689.34765625 326.994140625 590.928710938 c 0,6,7
 326.364257812 575.241210938 326.364257812 575.241210938 326.3203125 567.440429688 c 2,6,-1
 326.3203125 185.3203125 l 2,7,8
 326.3203125 91.1591796875 326.3203125 91.1591796875 325.391601562 84.833984375 c 0,9,10
 324.192382812 77.498046875 324.192382812 77.498046875 323.040039062 72.16015625 c 0,9,10
 313.874023438 39.2978515625 313.874023438 39.2978515625 305 29.51953125 c 0,11,12
 291.203125 17.0771484375 291.203125 17.0771484375 250.879882812 9.83984375 c 0,13,14
 218.926757812 5.61328125 218.926757812 5.61328125 100 6.5595703125 c 1,15,-1
 100 88.5595703125 l 1,16,17
 174.96484375 88.5595703125 174.96484375 88.5595703125 193.580078125 100.303710938 c 0,18,19
 205.697265625 109.657226562 205.697265625 109.657226562 209.879882812 121.360351562 c 1,18,19
 235.202148438 128.172851562 235.202148438 128.172851562 239.400390625 160.719726562 c 0,20,21
 239.622070312 165.451171875 239.622070312 165.451171875 239.400390625 301.759765625 c 2,22,-1
 239.400390625 533 l 2,23,24
 239.400390625 594.611328125 239.400390625 594.611328125 238.44140625 598.782226562 c 0,25,26
 235.380859375 609.5625 235.380859375 609.5625 231.200195312 616.639648438 c 0,25,26
 227.60546875 622.03125 227.60546875 622.03125 219.479492188 627.857421875 c 0,27,28
 212.426757812 633.592773438 212.426757812 633.592773438 209.879882812 636.3203125 c 0,27,28
 207.533203125 638.666992188 207.533203125 638.666992188 203.647460938 644.24609375 c 0,29,30
 195.203125 654.459960938 195.203125 654.459960938 190.200195312 657.639648438 c 0,29,30
 169.11328125 666.197265625 169.11328125 666.197265625 100 664.200195312 c 1,31,-1
 100 741.280273438 l 1,0,1
459.16015625 741.280273438 m 1,32,33
 588.649414062 741.115234375 588.649414062 741.115234375 603.48046875 739.639648438 c 0,34,35
 646.137695312 735.01171875 646.137695312 735.01171875 664.16015625 718.3203125 c 0,36,37
 674.935546875 706.256835938 674.935546875 706.256835938 682.200195312 674.040039062 c 0,38,39
 685.71484375 653.10546875 685.71484375 653.10546875 685.48046875 562.51953125 c 2,40,-1
 685.48046875 182.040039062 l 2,41,42
 685.48046875 173.182617188 685.48046875 173.182617188 686.424804688 152.802734375 c 0,43,44
 689.669921875 60.2138671875 689.669921875 60.2138671875 665.799804688 31.16015625 c 1,43,44
 652.194335938 17.373046875 652.194335938 17.373046875 610.040039062 9.83984375 c 0,45,46
 578.086914062 5.61328125 578.086914062 5.61328125 459.16015625 6.5595703125 c 1,47,-1
 459.16015625 88.5595703125 l 1,48,49
 535.336914062 89.2353515625 535.336914062 89.2353515625 552.639648438 98.400390625 c 0,50,51
 555.569335938 101.461914062 555.569335938 101.461914062 569.040039062 119.719726562 c 0,52,53
 571.920898438 122.600585938 571.920898438 122.600585938 578.352539062 126.487304688 c 0,54,55
 587.0703125 132.602539062 587.0703125 132.602539062 590.360351562 136.120117188 c 0,54,55
 600.754882812 160.35546875 600.754882812 160.35546875 598.559570312 221.400390625 c 1,56,-1
 598.559570312 442.799804688 l 1,57,-1
 598.559570312 559.240234375 l 2,58,59
 597.528320312 604.41796875 597.528320312 604.41796875 587.080078125 619.919921875 c 0,60,61
 584.620117188 623.200195312 584.620117188 623.200195312 578.059570312 628.120117188 c 0,62,63
 571.274414062 633.858398438 571.274414062 633.858398438 569.040039062 636.3203125 c 0,62,63
 566.243164062 639.1171875 566.243164062 639.1171875 561.845703125 645.022460938 c 0,64,65
 552.23046875 655.995117188 552.23046875 655.995117188 546.080078125 659.280273438 c 0,64,65
 528.510742188 665.083007812 528.510742188 665.083007812 459.16015625 664.200195312 c 1,66,-1
 459.16015625 741.280273438 l 1,32,33
EndSplineSet
EndChar

StartChar: guilsinglleft
Encoding: 8249 8249 195
Width: 566
GlyphClass: 2
Flags: W
LayerCount: 2
Fore
SplineSet
350 70 m 1,0,1
 363 48 363 48 363 35 c 0,2,3
 363 26 363 26 352 26 c 0,4,5
 343 26 343 26 326 33 c 1,6,7
 273 73 273 73 230 128 c 128,-1,8
 187 183 187 183 155 255 c 0,9,10
 126 321 126 321 113.5 385 c 128,-1,11
 101 449 101 449 100 513 c 1,12,13
 100 656 100 656 164 783 c 1,14,15
 231 904 231 904 327 958 c 1,16,17
 354 969 354 969 358 969 c 0,18,19
 366 969 366 969 366 963 c 0,20,21
 366 953 366 953 343 912 c 1,22,23
 224 746 224 746 224 513 c 0,24,25
 224 249 224 249 350 70 c 1,0,1
EndSplineSet
EndChar

StartChar: guilsinglright
Encoding: 8250 8250 196
Width: 569
GlyphClass: 2
Flags: W
LayerCount: 2
Fore
SplineSet
115 70 m 1,0,1
 244 249 244 249 244 513 c 0,2,3
 244 751 244 751 122 913 c 1,4,5
 100 954 100 954 100 963 c 0,6,7
 100 969 100 969 108 969 c 0,8,9
 110 969 110 969 118 966.5 c 128,-1,10
 126 964 126 964 137 958 c 0,11,12
 188 931 188 931 228.5 887 c 128,-1,13
 269 843 269 843 301 783 c 0,14,15
 336 718 336 718 352 650.5 c 128,-1,16
 368 583 368 583 369 513 c 0,17,18
 369 450 369 450 353.5 385 c 128,-1,19
 338 320 338 320 309 255 c 0,20,21
 279 188 279 188 235 130 c 128,-1,22
 191 72 191 72 138 33 c 1,23,24
 124 26 124 26 113 26 c 0,25,26
 101 26 101 26 101 35 c 0,27,28
 101 47 101 47 115 70 c 1,0,1
EndSplineSet
EndChar

StartChar: afii57451
Encoding: 1611 1611 311
AltUni2: 00fe70.ffffffff.0
Width: -161
VWidth: 1639
GlyphClass: 2
Flags: HW
AnchorPoint: "GposMark2BaseAnchorHamzaErabAbove_01_01" 96.54 1549.8 mark 0
AnchorPoint: "GposMark2BaseAnchorHamzaErabBelow_01_01" 96.54 1763 mark 0
AnchorPoint: "GposMark2BaseAnchorClassErabAbove_01_02" 96.54 1549.8 mark 0
AnchorPoint: "GposMark2MarkAnchorHamzaErabAbove_01_01" 96.54 1549.8 mark 0
AnchorPoint: "GposMark2MarkAnchorHamzaErabBelow_01_01" 96.54 1763 mark 0
AnchorPoint: "GposMark2MarkAnchorShaddaErabAbove_01_02" 96.54 1549.8 mark 0
AnchorPoint: "GposMark2MarkAnchorShaddaErabBelow_01_02" 96.54 1763 mark 0
LayerCount: 2
Fore
SplineSet
-61.7197265625 1763 m 1,0,-1
 258.080078125 1763 l 1,1,-1
 258.080078125 1695.75976562 l 1,2,-1
 -61.7197265625 1695.75976562 l 1,3,-1
 -61.7197265625 1763 l 1,0,-1
-65 1617.04003906 m 1,4,-1
 254.799804688 1617.04003906 l 1,5,-1
 254.799804688 1549.79980469 l 1,6,-1
 -65 1549.79980469 l 1,7,-1
 -65 1617.04003906 l 1,4,-1
EndSplineSet
EndChar

StartChar: afii57452
Encoding: 1612 1612 312
AltUni2: 00fe72.ffffffff.0
Width: -122
VWidth: 1639
GlyphClass: 2
Flags: HW
AnchorPoint: "GposMark2BaseAnchorHamzaErabAbove_01_01" 81.6201 1549.8 mark 0
AnchorPoint: "GposMark2BaseAnchorHamzaErabBelow_01_01" 81.6201 1795.8 mark 0
AnchorPoint: "GposMark2BaseAnchorClassErabAbove_01_02" 81.6201 1549.8 mark 0
AnchorPoint: "GposMark2MarkAnchorHamzaErabAbove_01_01" 81.6201 1549.8 mark 0
AnchorPoint: "GposMark2MarkAnchorHamzaErabBelow_01_01" 81.6201 1795.8 mark 0
AnchorPoint: "GposMark2MarkAnchorShaddaErabAbove_01_02" 81.6201 1549.8 mark 0
AnchorPoint: "GposMark2MarkAnchorShaddaErabBelow_01_02" 81.6201 1795.8 mark 0
LayerCount: 2
Fore
SplineSet
31.599609375 1643.28027344 m 1,0,1
 32.1533203125 1668.88574219 32.1533203125 1668.88574219 38.16015625 1685.91992188 c 0,2,3
 70.9287109375 1795.41210938 70.9287109375 1795.41210938 279.240234375 1795.79980469 c 1,4,-1
 279.240234375 1549.79980469 l 1,5,-1
 -116 1549.79980469 l 1,6,-1
 -116 1643.28027344 l 1,7,-1
 -66.7998046875 1643.28027344 l 1,8,-1
 -66.7998046875 1754.79980469 l 1,9,-1
 -27.4404296875 1754.79980469 l 1,10,-1
 -27.4404296875 1643.28027344 l 1,11,-1
 31.599609375 1643.28027344 l 1,0,1
215.280273438 1713.79980469 m 1,12,13
 102.713867188 1711.30273438 102.713867188 1711.30273438 97.2001953125 1646.55957031 c 1,14,-1
 215.280273438 1646.55957031 l 1,15,-1
 215.280273438 1713.79980469 l 1,12,13
EndSplineSet
EndChar

StartChar: afii57453
Encoding: 1613 1613 313
AltUni2: 00fe74.ffffffff.0
Width: -163
VWidth: 1639
GlyphClass: 2
Flags: HW
AnchorPoint: "GposMark2BaseAnchorClassErabBelow_01_02" -126.46 -142.68 mark 0
LayerCount: 2
Fore
SplineSet
-284.719726562 -142.6796875 m 1,0,-1
 35.080078125 -142.6796875 l 1,1,-1
 35.080078125 -209.919921875 l 1,2,-1
 -284.719726562 -209.919921875 l 1,3,-1
 -284.719726562 -142.6796875 l 1,0,-1
-288 -288.639648438 m 1,4,-1
 31.7998046875 -288.639648438 l 1,5,-1
 31.7998046875 -355.879882812 l 1,6,-1
 -288 -355.879882812 l 1,7,-1
 -288 -288.639648438 l 1,4,-1
EndSplineSet
EndChar

StartChar: afii57454
Encoding: 1614 1614 314
AltUni2: 00fe76.ffffffff.0
Width: -153
VWidth: 1639
GlyphClass: 2
Flags: HW
AnchorPoint: "GposMark2BaseAnchorHamzaErabAbove_01_01" 66.8999 1549.8 mark 0
AnchorPoint: "GposMark2BaseAnchorHamzaErabBelow_01_01" 66.8999 1617.04 mark 0
AnchorPoint: "GposMark2BaseAnchorClassErabAbove_01_02" 66.8999 1549.8 mark 0
AnchorPoint: "GposMark2MarkAnchorHamzaErabAbove_01_01" 66.8999 1549.8 mark 0
AnchorPoint: "GposMark2MarkAnchorHamzaErabBelow_01_01" 66.8999 1617.04 mark 0
AnchorPoint: "GposMark2MarkAnchorShaddaErabAbove_01_02" 66.8999 1549.8 mark 0
AnchorPoint: "GposMark2MarkAnchorShaddaErabBelow_01_02" 66.8999 1617.04 mark 0
LayerCount: 2
Fore
SplineSet
-93 1617.04003906 m 1,0,-1
 226.799804688 1617.04003906 l 1,1,-1
 226.799804688 1549.79980469 l 1,2,-1
 -93 1549.79980469 l 1,3,-1
 -93 1617.04003906 l 1,0,-1
EndSplineSet
EndChar

StartChar: afii57455
Encoding: 1615 1615 315
AltUni2: 00fe78.ffffffff.0
Width: -115
VWidth: 1639
GlyphClass: 2
Flags: HW
AnchorPoint: "GposMark2BaseAnchorHamzaErabAbove_01_01" 47.6201 1549.8 mark 0
AnchorPoint: "GposMark2BaseAnchorHamzaErabBelow_01_01" 47.6201 1795.8 mark 0
AnchorPoint: "GposMark2BaseAnchorClassErabAbove_01_02" 47.6201 1549.8 mark 0
AnchorPoint: "GposMark2MarkAnchorHamzaErabAbove_01_01" 47.6201 1549.8 mark 0
AnchorPoint: "GposMark2MarkAnchorHamzaErabBelow_01_01" 47.6201 1795.8 mark 0
AnchorPoint: "GposMark2MarkAnchorShaddaErabAbove_01_02" 47.6201 1549.8 mark 0
AnchorPoint: "GposMark2MarkAnchorShaddaErabBelow_01_02" 47.6201 1795.8 mark 0
LayerCount: 2
Fore
SplineSet
-2.400390625 1643.28027344 m 1,0,1
 -1.8466796875 1668.88574219 -1.8466796875 1668.88574219 4.16015625 1685.91992188 c 0,2,3
 36.9287109375 1795.41210938 36.9287109375 1795.41210938 245.240234375 1795.79980469 c 1,4,-1
 245.240234375 1549.79980469 l 1,5,-1
 -150 1549.79980469 l 1,6,-1
 -150 1643.28027344 l 1,7,-1
 -2.400390625 1643.28027344 l 1,0,1
181.280273438 1713.79980469 m 1,8,9
 68.7138671875 1711.30273438 68.7138671875 1711.30273438 63.2001953125 1646.55957031 c 1,10,-1
 181.280273438 1646.55957031 l 1,11,-1
 181.280273438 1713.79980469 l 1,8,9
EndSplineSet
EndChar

StartChar: afii57456
Encoding: 1616 1616 316
AltUni2: 00fe7a.ffffffff.0
Width: -155
VWidth: 1639
GlyphClass: 2
Flags: HW
AnchorPoint: "GposMark2BaseAnchorClassErabBelow_01_02" -122.1 -142.68 mark 0
LayerCount: 2
Fore
SplineSet
-282 -142.6796875 m 1,0,-1
 37.7998046875 -142.6796875 l 1,1,-1
 37.7998046875 -209.919921875 l 1,2,-1
 -282 -209.919921875 l 1,3,-1
 -282 -142.6796875 l 1,0,-1
EndSplineSet
EndChar

StartChar: afii57457
Encoding: 1617 1617 317
AltUni2: 00fe7c.ffffffff.0
Width: 56
VWidth: 1639
GlyphClass: 2
Flags: HW
AnchorPoint: "GposMark2BaseAnchorHamzaErabAbove_01_01" 180.258 1532.48 mark 0
AnchorPoint: "GposMark2BaseAnchorHamzaErabBelow_01_01" 180.258 1805.64 mark 0
AnchorPoint: "GposMark2BaseAnchorClassErabAbove_01_02" 180.258 1532.48 mark 0
AnchorPoint: "GposMark2MarkAnchorHamzaErabAbove_01_01" 180.258 1532.48 mark 0
AnchorPoint: "GposMark2MarkAnchorHamzaErabBelow_01_01" 180.258 1805.64 mark 0
AnchorPoint: "GposMark2MarkAnchorShaddaErabAbove_01_02" 180.258 1955.64 basemark 0
AnchorPoint: "GposMark2MarkAnchorShaddaErabBelow_01_02" 180.258 1382.48 basemark 0
LayerCount: 2
Fore
SplineSet
-52.8759765625 1805.63964844 m 1,0,-1
 27.484375 1805.63964844 l 1,1,2
 28.1875 1720.24511719 28.1875 1720.24511719 47.1640625 1681 c 0,3,4
 64.109375 1648.22949219 64.109375 1648.22949219 88.1640625 1648.20019531 c 1,5,6
 110.989257812 1654.00585938 110.989257812 1654.00585938 124.244140625 1685.91992188 c 1,7,8
 138.9140625 1729.71289062 138.9140625 1729.71289062 139.00390625 1805.63964844 c 1,9,-1
 216.083984375 1805.63964844 l 1,10,11
 216.779296875 1721.89355469 216.779296875 1721.89355469 237.404296875 1679.36035156 c 0,12,13
 253.630859375 1646.90625 253.630859375 1646.90625 278.869140625 1652.56835938 c 0,14,15
 282.767578125 1653.83203125 282.767578125 1653.83203125 284.963867188 1654.75976562 c 0,16,17
 302.448242188 1664.11035156 302.448242188 1664.11035156 312.84375 1694.12011719 c 0,18,19
 317.376953125 1708.3671875 317.376953125 1708.3671875 326.44140625 1795.65625 c 0,20,21
 327.103515625 1801.65136719 327.103515625 1801.65136719 327.604492188 1805.63964844 c 1,22,-1
 414.524414062 1805.63964844 l 1,23,24
 413.509765625 1651.98730469 413.509765625 1651.98730469 368.604492188 1592.44042969 c 0,25,26
 324.551757812 1535.99804688 324.551757812 1535.99804688 255.696289062 1555.62890625 c 1,27,28
 204.345703125 1572.24804688 204.345703125 1572.24804688 183.284179688 1620.3203125 c 1,29,30
 160.282226562 1582.76855469 160.282226562 1582.76855469 139.00390625 1567.83984375 c 0,31,32
 83.1787109375 1532.48339844 83.1787109375 1532.48339844 21.748046875 1558.71386719 c 0,33,34
 -7.0322265625 1572.41992188 -7.0322265625 1572.41992188 -21.7158203125 1595.71972656 c 0,35,36
 -54.0087890625 1648.5625 -54.0087890625 1648.5625 -52.9677734375 1786.70898438 c 0,37,38
 -52.8759765625 1798.90722656 -52.8759765625 1798.90722656 -52.8759765625 1805.63964844 c 1,0,-1
EndSplineSet
EndChar

StartChar: afii57458
Encoding: 1618 1618 318
AltUni2: 00fe7e.ffffffff.0
Width: -96
VWidth: 1639
GlyphClass: 2
Flags: HW
AnchorPoint: "GposMark2BaseAnchorHamzaErabAbove_01_01" 90.5596 1547.7 mark 0
AnchorPoint: "GposMark2BaseAnchorHamzaErabBelow_01_01" 90.5596 1823.9 mark 0
AnchorPoint: "GposMark2BaseAnchorClassErabAbove_01_02" 90.5596 1547.7 mark 0
AnchorPoint: "GposMark2MarkAnchorHamzaErabAbove_01_01" 90.5596 1547.7 mark 0
AnchorPoint: "GposMark2MarkAnchorHamzaErabBelow_01_01" 90.5596 1823.9 mark 0
AnchorPoint: "GposMark2MarkAnchorShaddaErabAbove_01_02" 90.5596 1547.7 mark 0
AnchorPoint: "GposMark2MarkAnchorShaddaErabBelow_01_02" 90.5596 1823.9 mark 0
LayerCount: 2
Fore
SplineSet
73.2470703125 1822.04003906 m 1,0,1
 96.6748046875 1823.89648438 96.6748046875 1823.89648438 120.807617188 1818.75976562 c 0,2,3
 197.071289062 1801.8125 197.071289062 1801.8125 219.12109375 1725.61914062 c 0,4,5
 242.163085938 1645.99316406 242.163085938 1645.99316406 186.776367188 1589.46386719 c 0,6,7
 174.547851562 1577.6953125 174.547851562 1577.6953125 161.807617188 1569.48046875 c 0,8,9
 136.819335938 1555.23144531 136.819335938 1555.23144531 106.046875 1549.79980469 c 1,10,11
 76.607421875 1547.69824219 76.607421875 1547.69824219 51.927734375 1554.71972656 c 0,12,13
 -21.84375 1576.74121094 -21.84375 1576.74121094 -40.8642578125 1652.87695312 c 0,14,15
 -61.0439453125 1733.64941406 -61.0439453125 1733.64941406 -1.927734375 1787.12792969 c 0,16,17
 6.30078125 1794.57128906 6.30078125 1794.57128906 15.84765625 1800.71972656 c 0,18,19
 42.884765625 1817.05664062 42.884765625 1817.05664062 73.2470703125 1822.04003906 c 1,0,1
83.0869140625 1754.79980469 m 1,20,21
 56.8603515625 1750.43847656 56.8603515625 1750.43847656 45.3671875 1740.04003906 c 0,22,23
 18.2646484375 1710.8515625 18.2646484375 1710.8515625 33.6552734375 1665.39453125 c 0,24,25
 38.7021484375 1652.7109375 38.7021484375 1652.7109375 45.3671875 1644.91992188 c 0,26,27
 66.1552734375 1625.90820312 66.1552734375 1625.90820312 104.407226562 1628.51953125 c 1,28,29
 144.866210938 1633.91503906 144.866210938 1633.91503906 156.771484375 1678.41894531 c 0,30,31
 166.794921875 1715.89160156 166.794921875 1715.89160156 142.126953125 1741.6796875 c 1,32,33
 124.061523438 1757.96191406 124.061523438 1757.96191406 83.0869140625 1754.79980469 c 1,20,21
EndSplineSet
EndChar

StartChar: uni0654
Encoding: 1620 1620 320
Width: -87
VWidth: 1639
GlyphClass: 2
Flags: HW
AnchorPoint: "GposMark2BaseAnchorClassErabAbove_01_02" 104.4 1549.8 mark 0
AnchorPoint: "GposMark2MarkAnchorHamzaErabAbove_01_01" 104.4 1956.63 basemark 0
AnchorPoint: "GposMark2MarkAnchorHamzaErabBelow_01_01" 104.4 1399.8 basemark 0
LayerCount: 2
Fore
SplineSet
20.759765625 1638.36035156 m 1,0,1
 21.2119140625 1709.21679688 21.2119140625 1709.21679688 25.6796875 1725.28027344 c 0,2,3
 50.1396484375 1804.09472656 50.1396484375 1804.09472656 172.817382812 1806.36328125 c 0,4,5
 187.454101562 1806.63378906 187.454101562 1806.63378906 216.046875 1806.03515625 c 0,6,7
 234.944335938 1805.63964844 234.944335938 1805.63964844 243.799804688 1805.63964844 c 1,8,-1
 243.799804688 1718.71972656 l 1,9,10
 236.796875 1718.71972656 236.796875 1718.71972656 219.025390625 1719.88476562 c 0,11,12
 128.920898438 1724.31640625 128.920898438 1724.31640625 110.959960938 1694.12011719 c 1,13,14
 106.354492188 1682.76953125 106.354492188 1682.76953125 107.6796875 1638.36035156 c 1,15,-1
 243.799804688 1638.36035156 l 1,16,-1
 243.799804688 1549.79980469 l 1,17,-1
 -35 1549.79980469 l 1,18,-1
 -35 1638.36035156 l 1,19,-1
 20.759765625 1638.36035156 l 1,0,1
EndSplineSet
EndChar

StartChar: uni0655
Encoding: 1621 1621 321
Width: -86
VWidth: 1639
GlyphClass: 2
Flags: HW
AnchorPoint: "GposMark2BaseAnchorClassErabBelow_01_02" -115.6 -141.687 mark 0
LayerCount: 2
Fore
SplineSet
-199.240234375 -309.959960938 m 1,0,1
 -198.788085938 -239.102539062 -198.788085938 -239.102539062 -194.3203125 -223.040039062 c 0,2,3
 -169.860351562 -144.225585938 -169.860351562 -144.225585938 -47.1826171875 -141.95703125 c 0,4,5
 -32.5458984375 -141.686523438 -32.5458984375 -141.686523438 -3.953125 -142.284179688 c 0,6,7
 14.9443359375 -142.6796875 14.9443359375 -142.6796875 23.7998046875 -142.6796875 c 1,8,-1
 23.7998046875 -229.599609375 l 1,9,10
 16.796875 -229.599609375 16.796875 -229.599609375 -0.974609375 -228.435546875 c 0,11,12
 -91.0791015625 -224.00390625 -91.0791015625 -224.00390625 -109.040039062 -254.200195312 c 1,13,14
 -113.645507812 -265.55078125 -113.645507812 -265.55078125 -112.3203125 -309.959960938 c 1,15,-1
 23.7998046875 -309.959960938 l 1,16,-1
 23.7998046875 -398.51953125 l 1,17,-1
 -255 -398.51953125 l 1,18,-1
 -255 -309.959960938 l 1,19,-1
 -199.240234375 -309.959960938 l 1,0,1
EndSplineSet
EndChar

StartChar: uni0656
Encoding: 1622 1622 322
Width: 40
VWidth: 1639
GlyphClass: 2
Flags: HW
AnchorPoint: "GposMark2BaseAnchorClassErabBelow_01_02" -40.6602 -142.68 mark 0
LayerCount: 2
Fore
SplineSet
-112 -142.6796875 m 1,0,-1
 30.6796875 -142.6796875 l 1,1,-1
 30.6796875 -564.16015625 l 1,2,-1
 -112 -564.16015625 l 1,3,-1
 -112 -142.6796875 l 1,0,-1
EndSplineSet
EndChar

StartChar: uni0670
Encoding: 1648 1648 326
Width: 40
VWidth: 1639
GlyphClass: 2
Flags: HW
AnchorPoint: "GposMark2BaseAnchorHamzaErabAbove_01_01" 126.34 1549.8 mark 0
AnchorPoint: "GposMark2BaseAnchorHamzaErabBelow_01_01" 126.34 1971.28 mark 0
AnchorPoint: "GposMark2BaseAnchorClassErabAbove_01_02" 126.34 1549.8 mark 0
AnchorPoint: "GposMark2MarkAnchorHamzaErabAbove_01_01" 126.34 1549.8 mark 0
AnchorPoint: "GposMark2MarkAnchorHamzaErabBelow_01_01" 126.34 1971.28 mark 0
AnchorPoint: "GposMark2MarkAnchorShaddaErabAbove_01_02" 126.34 1549.8 mark 0
AnchorPoint: "GposMark2MarkAnchorShaddaErabBelow_01_02" 126.34 1971.28 mark 0
LayerCount: 2
Fore
SplineSet
55 1971.28027344 m 1,0,-1
 197.6796875 1971.28027344 l 1,1,-1
 197.6796875 1549.79980469 l 1,2,-1
 55 1549.79980469 l 1,3,-1
 55 1971.28027344 l 1,0,-1
EndSplineSet
EndChar

StartChar: uni0674
Encoding: 1652 1652 327
Width: 110
GlyphClass: 2
Flags: HW
AnchorPoint: "GposMark2BaseAnchorClassErabAbove_01_02" 359.5 1014 mark 0
AnchorPoint: "GposMark2MarkAnchorHamzaErabAbove_01_01" 359.5 1579 basemark 0
AnchorPoint: "GposMark2MarkAnchorHamzaErabBelow_01_01" 359.5 864 basemark 0
LayerCount: 2
Fore
SplineSet
533 1178 m 2,0,1
 528 1160 528 1160 521 1145 c 128,-1,2
 514 1130 514 1130 509 1129 c 0,3,4
 461 1118 461 1118 421 1109 c 128,-1,5
 381 1100 381 1100 363 1095 c 0,6,7
 317 1082 317 1082 274 1062 c 128,-1,8
 231 1042 231 1042 196 1018 c 1,9,10
 192 1014 192 1014 188 1014 c 0,11,12
 185 1014 185 1014 180 1018 c 128,-1,13
 175 1022 175 1022 175 1025 c 256,14,15
 175 1028 175 1028 180 1032 c 1,16,-1
 180 1031 l 1,17,18
 191 1051 191 1051 217 1076 c 128,-1,19
 243 1101 243 1101 283 1136 c 1,20,21
 195 1171 195 1171 195 1233 c 0,22,23
 195 1282 195 1282 269 1355 c 1,24,25
 346 1429 346 1429 410 1429 c 0,26,27
 421 1429 421 1429 433.5 1425.5 c 128,-1,28
 446 1422 446 1422 456 1415.5 c 128,-1,29
 466 1409 466 1409 472.5 1400.5 c 128,-1,30
 479 1392 479 1392 479 1382 c 0,31,32
 479 1368 479 1368 475.5 1353.5 c 128,-1,33
 472 1339 472 1339 466 1327 c 128,-1,34
 460 1315 460 1315 452.5 1307.5 c 128,-1,35
 445 1300 445 1300 437 1300 c 0,36,37
 433 1300 433 1300 425.5 1307.5 c 128,-1,38
 418 1315 418 1315 408 1323.5 c 128,-1,39
 398 1332 398 1332 385.5 1339.5 c 128,-1,40
 373 1347 373 1347 359 1347 c 256,41,42
 345 1347 345 1347 329 1339.5 c 128,-1,43
 313 1332 313 1332 299 1321.5 c 128,-1,44
 285 1311 285 1311 276 1299 c 128,-1,45
 267 1287 267 1287 267 1277 c 0,46,47
 267 1259 267 1259 279 1244 c 128,-1,48
 291 1229 291 1229 309.5 1218 c 128,-1,49
 328 1207 328 1207 352 1201 c 128,-1,50
 376 1195 376 1195 400 1195 c 0,51,52
 403 1195 403 1195 424 1200 c 128,-1,53
 445 1205 445 1205 470 1210.5 c 128,-1,54
 495 1216 495 1216 517 1221 c 128,-1,55
 539 1226 539 1226 544 1226 c 1,56,-1
 533 1178 l 2,0,1
EndSplineSet
EndChar

StartChar: afii57388
Encoding: 1548 1548 329
Width: 533
VWidth: 1639
GlyphClass: 2
Flags: W
LayerCount: 2
Fore
SplineSet
208.959960938 239.440429688 m 1,0,1
 210.267578125 221.864257812 210.267578125 221.864257812 215.51953125 216.48046875 c 0,2,3
 218.799804688 213.200195312 218.799804688 213.200195312 234.37890625 213.08203125 c 0,4,5
 235.19921875 213.200195312 235.19921875 213.200195312 236.83984375 213.200195312 c 2,6,-1
 238.479492188 213.200195312 l 1,4,5
 262.830078125 210.500976562 262.830078125 210.500976562 289.319335938 200.080078125 c 1,6,7
 314.755859375 185.712890625 314.755859375 185.712890625 322.120117188 136.120117188 c 0,8,9
 332.90234375 66.1650390625 332.90234375 66.1650390625 299.159179688 24.599609375 c 0,10,11
 263.588867188 -17.4375 263.588867188 -17.4375 190.231445312 -5.328125 c 0,12,13
 154.275390625 1.5078125 154.275390625 1.5078125 133.51953125 19.6796875 c 1,12,13
 104.227539062 50.6162109375 104.227539062 50.6162109375 104 123 c 0,14,15
 104.12109375 298.975585938 104.12109375 298.975585938 105.639648438 319.799804688 c 0,16,17
 110.134765625 378.401367188 110.134765625 378.401367188 133.51953125 405.080078125 c 1,18,19
 167.177734375 437.3359375 167.177734375 437.3359375 273.698242188 434.938476562 c 0,20,21
 289.208007812 434.622070312 289.208007812 434.622070312 295.879882812 434.599609375 c 1,20,-1
 295.879882812 377.200195312 l 1,21,22
 255.78515625 370.211914062 255.78515625 370.211914062 235.19921875 355.879882812 c 0,23,24
 231.099609375 352.599609375 231.099609375 352.599609375 225.359375 346.040039062 c 0,25,26
 218.623046875 338.93359375 218.623046875 338.93359375 215.51953125 336.200195312 c 0,25,26
 212.44140625 332.506835938 212.44140625 332.506835938 205.852539062 326.072265625 c 0,27,28
 194.84375 314.521484375 194.84375 314.521484375 190.919921875 308.3203125 c 0,27,28
 172.94921875 275.973632812 172.94921875 275.973632812 184.110351562 250.124023438 c 0,29,30
 187.0234375 245.221679688 187.0234375 245.221679688 189.279296875 242.719726562 c 0,29,30
 193.504882812 238.96484375 193.504882812 238.96484375 208.959960938 239.440429688 c 1,0,1
EndSplineSet
EndChar

StartChar: afii57403
Encoding: 1563 1563 334
Width: 535
VWidth: 1639
GlyphClass: 2
Flags: W
LayerCount: 2
Fore
SplineSet
209.331054688 595.3203125 m 1,0,1
 210.638671875 577.744140625 210.638671875 577.744140625 215.890625 572.360351562 c 0,2,3
 219.170898438 569.080078125 219.170898438 569.080078125 234.75 568.962890625 c 0,4,5
 235.5703125 569.080078125 235.5703125 569.080078125 237.2109375 569.080078125 c 2,6,-1
 238.850585938 569.080078125 l 1,4,5
 263.201171875 566.380859375 263.201171875 566.380859375 289.690429688 555.959960938 c 1,6,7
 315.126953125 541.592773438 315.126953125 541.592773438 322.491210938 492 c 0,8,9
 333.2734375 422.044921875 333.2734375 422.044921875 299.530273438 380.48046875 c 0,10,11
 263.959960938 338.442382812 263.959960938 338.442382812 190.602539062 350.551757812 c 0,12,13
 154.708984375 356.4765625 154.708984375 356.4765625 133.890625 375.559570312 c 1,12,13
 104.598632812 406.49609375 104.598632812 406.49609375 104.37109375 478.879882812 c 0,14,15
 104.4921875 654.85546875 104.4921875 654.85546875 106.010742188 675.6796875 c 0,16,17
 110.505859375 734.28125 110.505859375 734.28125 133.890625 760.959960938 c 1,18,19
 167.548828125 793.215820312 167.548828125 793.215820312 274.069335938 790.819335938 c 0,20,21
 289.579101562 790.501953125 289.579101562 790.501953125 296.250976562 790.48046875 c 1,20,-1
 296.250976562 733.080078125 l 1,21,22
 256.15625 726.091796875 256.15625 726.091796875 235.5703125 711.759765625 c 0,23,24
 231.470703125 708.48046875 231.470703125 708.48046875 225.73046875 701.919921875 c 0,25,26
 218.994140625 694.813476562 218.994140625 694.813476562 215.890625 692.080078125 c 0,25,26
 212.8125 688.38671875 212.8125 688.38671875 206.223632812 681.952148438 c 0,27,28
 195.21484375 670.401367188 195.21484375 670.401367188 191.291015625 664.200195312 c 0,27,28
 173.3203125 631.853515625 173.3203125 631.853515625 184.481445312 606.00390625 c 0,29,30
 187.39453125 601.1015625 187.39453125 601.1015625 189.650390625 598.599609375 c 0,29,30
 193.875976562 594.844726562 193.875976562 594.844726562 209.331054688 595.3203125 c 1,0,1
196.2109375 211.559570312 m 1,31,32
 264.38671875 217.100585938 264.38671875 217.100585938 299.530273438 183.6796875 c 1,33,34
 337.649414062 142.095703125 337.649414062 142.095703125 323.348632812 72.142578125 c 0,35,36
 315.661132812 39.08984375 315.661132812 39.08984375 297.890625 19.6796875 c 1,35,36
 275.06640625 -1.6708984375 275.06640625 -1.6708984375 232.291015625 -8.2001953125 c 1,37,38
 168.946289062 -13.609375 168.946289062 -13.609375 133.890625 19.6796875 c 1,39,40
 94.0703125 61.232421875 94.0703125 61.232421875 107.297851562 131.217773438 c 0,41,42
 114.493164062 164.264648438 114.493164062 164.264648438 132.250976562 183.6796875 c 1,41,42
 154.716796875 204.758789062 154.716796875 204.758789062 196.2109375 211.559570312 c 1,31,32
EndSplineSet
EndChar

StartChar: afii57407
Encoding: 1567 1567 335
Width: 1067
VWidth: 1639
GlyphClass: 2
Flags: W
LayerCount: 2
Fore
SplineSet
586.685546875 388.6796875 m 1,0,1
 586.685546875 401.741210938 586.685546875 401.741210938 588.090820312 430.083984375 c 0,2,3
 591.609375 512.623046875 591.609375 512.623046875 580.125 546.120117188 c 0,2,3
 577.159179688 555.017578125 577.159179688 555.017578125 559.203125 569.3046875 c 0,4,5
 555.533203125 572.486328125 555.533203125 572.486328125 553.885742188 574 c 0,4,5
 536.150390625 595.099609375 536.150390625 595.099609375 535.845703125 595.3203125 c 0,6,7
 509.04296875 611.572265625 509.04296875 611.572265625 450.565429688 611.719726562 c 0,8,9
 431.354492188 611.719726562 431.354492188 611.719726562 391.83203125 610.602539062 c 0,10,11
 276.734375 607.708007812 276.734375 607.708007812 222.60546875 618.280273438 c 1,10,11
 160.331054688 634.03515625 160.331054688 634.03515625 140.60546875 657.639648438 c 1,12,13
 114.275390625 694.267578125 114.275390625 694.267578125 107.805664062 770.799804688 c 0,14,15
 106.0859375 800.8046875 106.0859375 800.8046875 106.165039062 934.799804688 c 0,16,17
 106.165039062 961.473632812 106.165039062 961.473632812 104.927734375 1015.50976562 c 0,18,19
 102.122070312 1138.08984375 102.122070312 1138.08984375 107.805664062 1197.20019531 c 0,18,19
 115.879882812 1281.52636719 115.879882812 1281.52636719 142.245117188 1313.63964844 c 0,20,21
 156.60546875 1328.74511719 156.60546875 1328.74511719 188.165039062 1341.51953125 c 0,22,23
 235.145507812 1358.29296875 235.145507812 1358.29296875 342.325195312 1357.91992188 c 2,24,-1
 858.92578125 1357.91992188 l 1,25,-1
 858.92578125 1144.71972656 l 1,26,-1
 527.645507812 1144.71972656 l 2,27,28
 444.83203125 1144.71972656 444.83203125 1144.71972656 427.229492188 1139.94238281 c 0,29,30
 411.43359375 1135.1484375 411.43359375 1135.1484375 399.725585938 1128.3203125 c 0,29,30
 395.905273438 1125.06933594 395.905273438 1125.06933594 370.205078125 1100.44042969 c 0,31,32
 345.7421875 1075.28613281 345.7421875 1075.28613281 340.685546875 1067.63964844 c 0,33,34
 325.93359375 1036.44042969 325.93359375 1036.44042969 325.92578125 972.51953125 c 2,35,-1
 325.92578125 849.51953125 l 1,36,-1
 352.165039062 849.51953125 l 1,37,-1
 352.165039062 823.280273438 l 1,38,-1
 670.325195312 823.280273438 l 1,39,-1
 757.245117188 818.360351562 l 1,40,-1
 790.044921875 806.879882812 l 1,41,-1
 798.245117188 779 l 1,42,-1
 803.165039062 703.559570312 l 1,43,-1
 804.805664062 588.759765625 l 1,44,-1
 804.805664062 388.6796875 l 1,45,-1
 586.685546875 388.6796875 l 1,0,1
668.685546875 219.759765625 m 1,46,47
 734.530273438 225.033203125 734.530273438 225.033203125 768.725585938 190.240234375 c 1,48,49
 807.4453125 148 807.4453125 148 792.528320312 78.7470703125 c 0,50,51
 785.053710938 48.1533203125 785.053710938 48.1533203125 768.725585938 29.51953125 c 0,50,51
 746.666015625 6.86328125 746.666015625 6.86328125 701.485351562 0 c 1,52,53
 636.157226562 -5.21484375 636.157226562 -5.21484375 601.4453125 27.8798828125 c 1,54,55
 562.865234375 69.966796875 562.865234375 69.966796875 577.513671875 141.211914062 c 0,56,57
 584.934570312 173.021484375 584.934570312 173.021484375 601.4453125 191.879882812 c 1,56,57
 623.974609375 212.969726562 623.974609375 212.969726562 668.685546875 219.759765625 c 1,46,47
EndSplineSet
EndChar

StartChar: afii57409
Encoding: 1569 1569 336
AltUni2: 00fe80.ffffffff.0
Width: 525
VWidth: 1639
GlyphClass: 2
Flags: HW
AnchorPoint: "GposMark2BaseAnchorHamzaErabAbove_01_01" 184.5 485.55 basechar 0
AnchorPoint: "GposMark2BaseAnchorHamzaErabBelow_01_01" 184.5 -153.28 basechar 0
LayerCount: 2
Fore
SplineSet
83.640625 101.6796875 m 1,0,1
 83.640625 198.956054688 83.640625 198.956054688 85.8916015625 211.978515625 c 0,2,3
 87.275390625 219.306640625 87.275390625 219.306640625 88.560546875 224.6796875 c 0,4,5
 100.596679688 256.065429688 100.596679688 256.065429688 104.959960938 264.040039062 c 0,6,7
 144.6875 335.549804688 144.6875 335.549804688 288.637695312 333.44140625 c 0,8,9
 301.766601562 333.25 301.766601562 333.25 327.192382812 332.327148438 c 0,10,11
 356.467773438 331.317382812 356.467773438 331.317382812 369 331.280273438 c 1,12,-1
 369 254.200195312 l 1,13,14
 358.720703125 254.200195312 358.720703125 254.200195312 336.637695312 255.131835938 c 0,15,16
 251.381835938 257.8828125 251.381835938 257.8828125 218.120117188 239.440429688 c 0,17,18
 210.327148438 233.684570312 210.327148438 233.684570312 193.520507812 216.48046875 c 0,19,20
 190.477539062 212.9296875 190.477539062 212.9296875 184.163085938 206.852539062 c 0,21,22
 170.836914062 192.659179688 170.836914062 192.659179688 167.280273438 183.6796875 c 0,23,24
 161.485351562 165.965820312 161.485351562 165.965820312 162.360351562 101.6796875 c 1,25,-1
 188.600585938 101.6796875 l 1,26,-1
 188.600585938 75.4404296875 l 1,27,-1
 369 75.4404296875 l 1,28,-1
 369 -3.2802734375 l 1,29,-1
 0 -3.2802734375 l 1,30,-1
 0 75.4404296875 l 1,31,-1
 57.400390625 75.4404296875 l 1,32,-1
 57.400390625 101.6796875 l 1,33,-1
 83.640625 101.6796875 l 1,0,1
EndSplineSet
EndChar

StartChar: afii57410
Encoding: 1570 1570 337
AltUni2: 00fe81.ffffffff.0
Width: 381
VWidth: 1639
GlyphClass: 2
Flags: W
LayerCount: 2
Fore
SplineSet
-168 1485.83984375 m 1,0,1
 -166.82421875 1552.05664062 -166.82421875 1552.05664062 -135.200195312 1580.95996094 c 1,2,3
 -107.814453125 1603.44140625 -107.814453125 1603.44140625 -41.7197265625 1610.48046875 c 0,4,5
 -13.4404296875 1612.98925781 -13.4404296875 1612.98925781 59.9599609375 1605.55957031 c 2,6,7
 256.759765625 1585.87988281 l 2,8,9
 295.206054688 1581.95703125 295.206054688 1581.95703125 446.842773438 1589.43652344 c 0,10,11
 474.474609375 1590.79980469 474.474609375 1590.79980469 496.200195312 1590.79980469 c 1,10,11
 496.200195312 1588.22851562 496.200195312 1588.22851562 496.915039062 1580.37011719 c 0,12,13
 498.5703125 1553.76074219 498.5703125 1553.76074219 494.559570312 1548.16015625 c 0,12,13
 488.591796875 1541.65527344 488.591796875 1541.65527344 461.759765625 1541.59960938 c 1,14,15
 398.893554688 1535.15234375 398.893554688 1535.15234375 368.280273438 1535.04003906 c 0,16,17
 343.6796875 1535.04003906 343.6796875 1535.04003906 320.719726562 1535.04003906 c 0,18,19
 297.759765625 1535.04003906 297.759765625 1535.04003906 263.3203125 1537.5 c 0,20,21
 228.879882812 1539.95996094 228.879882812 1539.95996094 219.040039062 1540.78027344 c 0,22,23
 209.200195312 1541.59960938 209.200195312 1541.59960938 161.639648438 1546.51953125 c 2,24,-1
 114.080078125 1551.44042969 l 2,18,19
 11.3408203125 1562.93359375 11.3408203125 1562.93359375 -20.400390625 1559.63964844 c 1,20,21
 -57.953125 1553.22363281 -57.953125 1553.22363281 -100.759765625 1510.44042969 c 0,22,23
 -102.4296875 1508.21386719 -102.4296875 1508.21386719 -105.833007812 1502.13476562 c 0,24,25
 -113.448242188 1490.20507812 -113.448242188 1490.20507812 -117.16015625 1487.48046875 c 0,24,25
 -123.697265625 1484.87792969 -123.697265625 1484.87792969 -168 1485.83984375 c 1,0,1
51.759765625 1356.28027344 m 1,26,-1
 273.16015625 1356.28027344 l 1,27,-1
 273.16015625 -1.6396484375 l 1,28,-1
 51.759765625 -1.6396484375 l 1,29,-1
 51.759765625 1356.28027344 l 1,26,-1
EndSplineSet
AlternateSubs2: "gsub_alternate_dfl_aalt_arab_FAR_Lookup_01_Subtable_01" uniFE82 afii57410
Substitution2: "gsub_single_rtl_fina_arab_FAR_Lookup_01_Subtable_01" uniFE82
PairPos2: "gpos_pair_dfl_kern_arab_FAR_Lookup_01_Subtable_01" gafarabic dx=0 dy=0 dh=0 dv=0 dx=0 dy=0 dh=0 dv=0
EndChar

StartChar: uniFE83
Encoding: 1571 1571 339
AltUni2: 00fe83.ffffffff.0
Width: 357
VWidth: 1639
GlyphClass: 2
Flags: W
LayerCount: 2
Fore
SplineSet
33.51953125 1356.28027344 m 1,0,-1
 253.279296875 1356.28027344 l 1,1,-1
 253.279296875 -1.6396484375 l 1,2,-1
 33.51953125 -1.6396484375 l 1,3,-1
 33.51953125 1356.28027344 l 1,0,-1
59.759765625 1526.83984375 m 1,0,1
 60.2119140625 1597.69726562 60.2119140625 1597.69726562 64.6796875 1613.75976562 c 0,2,3
 89.1396484375 1692.57421875 89.1396484375 1692.57421875 211.817382812 1694.84277344 c 0,4,5
 226.453125 1695.11328125 226.453125 1695.11328125 255.046875 1694.515625 c 0,6,7
 273.944335938 1694.12011719 273.944335938 1694.12011719 282.799804688 1694.12011719 c 1,4,-1
 282.799804688 1607.20019531 l 1,5,6
 275.795898438 1607.20019531 275.795898438 1607.20019531 258.024414062 1608.36425781 c 0,7,8
 167.919921875 1612.79589844 167.919921875 1612.79589844 149.959960938 1582.59960938 c 1,7,8
 145.354492188 1571.24902344 145.354492188 1571.24902344 146.6796875 1526.83984375 c 1,9,-1
 282.799804688 1526.83984375 l 1,10,-1
 282.799804688 1438.28027344 l 1,11,-1
 4 1438.28027344 l 1,12,-1
 4 1526.83984375 l 1,13,-1
 59.759765625 1526.83984375 l 1,0,1
EndSplineSet
AlternateSubs2: "gsub_alternate_dfl_aalt_arab_FAR_Lookup_01_Subtable_01" uniFE84 uniFE83
Substitution2: "gsub_single_rtl_fina_arab_FAR_Lookup_01_Subtable_01" uniFE84
EndChar

StartChar: uniFE84
Encoding: 65156 65156 340
Width: 450
VWidth: 1639
GlyphClass: 2
Flags: W
LayerCount: 2
Fore
SplineSet
24.48046875 1356.28027344 m 1,0,-1
 244.240234375 1356.28027344 l 1,1,-1
 244.240234375 606.799804688 l 1,2,-1
 244.240234375 408.360351562 l 2,3,4
 245.755859375 322.604492188 245.755859375 322.604492188 259 295.200195312 c 1,5,6
 270.467773438 278.110351562 270.467773438 278.110351562 288.520507812 262.400390625 c 1,7,8
 311.4375 237.524414062 311.4375 237.524414062 326.240234375 229.599609375 c 0,9,10
 362.650390625 210.094726562 362.650390625 210.094726562 460.763671875 212.844726562 c 0,11,12
 473.452148438 213.200195312 473.452148438 213.200195312 482.040039062 213.200195312 c 1,11,-1
 482.040039062 -1.6396484375 l 1,12,13
 456.731445312 -1.6396484375 456.731445312 -1.6396484375 404.96484375 -3.087890625 c 0,14,15
 263.196289062 -6.728515625 263.196289062 -6.728515625 196.680664062 4.919921875 c 0,14,15
 116.961914062 19.1416015625 116.961914062 19.1416015625 78.6005859375 52.48046875 c 1,16,17
 51.0439453125 81.310546875 51.0439453125 81.310546875 34.3203125 147.599609375 c 0,18,19
 18.9013671875 208.088867188 18.9013671875 208.088867188 23.671875 366.365234375 c 0,20,21
 24.48046875 393.201171875 24.48046875 393.201171875 24.48046875 411.639648438 c 2,20,-1
 24.48046875 1356.28027344 l 1,0,-1
68.7607421875 1526.83984375 m 1,0,1
 69.212890625 1597.69726562 69.212890625 1597.69726562 73.6806640625 1613.75976562 c 0,2,3
 98.140625 1692.57421875 98.140625 1692.57421875 220.818359375 1694.84277344 c 0,4,5
 235.454101562 1695.11328125 235.454101562 1695.11328125 264.046875 1694.515625 c 0,6,7
 282.9453125 1694.12011719 282.9453125 1694.12011719 291.80078125 1694.12011719 c 1,4,-1
 291.80078125 1607.20019531 l 1,5,6
 284.796875 1607.20019531 284.796875 1607.20019531 267.025390625 1608.36425781 c 0,7,8
 176.920898438 1612.79589844 176.920898438 1612.79589844 158.9609375 1582.59960938 c 1,7,8
 154.35546875 1571.24902344 154.35546875 1571.24902344 155.680664062 1526.83984375 c 1,9,-1
 291.80078125 1526.83984375 l 1,10,-1
 291.80078125 1438.28027344 l 1,11,-1
 13 1438.28027344 l 1,12,-1
 13 1526.83984375 l 1,13,-1
 68.7607421875 1526.83984375 l 1,0,1
EndSplineSet
EndChar

StartChar: uniFE85
Encoding: 1572 1572 341
AltUni2: 00fe85.ffffffff.0
Width: 852
VWidth: 1639
GlyphClass: 2
Flags: W
LayerCount: 2
Fore
SplineSet
432.279296875 -1.6396484375 m 1,0,-1
 105.919921875 -1.6396484375 l 2,1,2
 -16.7041015625 -0.5517578125 -16.7041015625 -0.5517578125 -63 37.7197265625 c 1,3,4
 -102.349609375 75.3154296875 -102.349609375 75.3154296875 -102.360351562 191.879882812 c 2,5,-1
 -102.360351562 555.959960938 l 2,6,7
 -101.076171875 672.165039062 -101.076171875 672.165039062 -61.3603515625 705.200195312 c 1,8,9
 -4.0068359375 744.455078125 -4.0068359375 744.455078125 119.040039062 744.559570312 c 2,10,-1
 406.040039062 744.559570312 l 2,11,12
 528.866210938 744.559570312 528.866210938 744.559570312 560.764648438 737.868164062 c 0,13,14
 571.411132812 735.50390625 571.411132812 735.50390625 579.879882812 733.080078125 c 0,13,14
 624.73046875 718.53125 624.73046875 718.53125 642.19921875 703.559570312 c 1,15,16
 657.485351562 687.173828125 657.485351562 687.173828125 671.719726562 644.51953125 c 1,17,18
 683.153320312 604.502929688 683.153320312 604.502929688 680.204101562 483.469726562 c 0,19,20
 679.94140625 471.126953125 679.94140625 471.126953125 679.919921875 462.48046875 c 2,19,-1
 679.919921875 -211.559570312 l 2,20,21
 679.919921875 -226.715820312 679.919921875 -226.715820312 680.793945312 -258.926757812 c 0,22,23
 684.826171875 -407.544921875 684.826171875 -407.544921875 653.658203125 -469.868164062 c 0,24,25
 643.19140625 -489.801757812 643.19140625 -489.801757812 630.719726562 -505.120117188 c 1,22,23
 570.6328125 -562.16796875 570.6328125 -562.16796875 414.239257812 -562.51953125 c 2,24,-1
 -104 -562.51953125 l 1,25,-1
 -104 -349.3203125 l 1,26,-1
 271.559570312 -349.3203125 l 2,27,28
 279.90625 -349.3203125 279.90625 -349.3203125 297.795898438 -350.133789062 c 0,29,30
 364.66015625 -352.318359375 364.66015625 -352.318359375 391.279296875 -337.83984375 c 0,29,30
 398.576171875 -333.34375 398.576171875 -333.34375 420.799804688 -309.959960938 c 1,31,32
 439.5 -293.561523438 439.5 -293.561523438 445.399414062 -285.360351562 c 0,33,34
 458.772460938 -262.34375 458.772460938 -262.34375 458.51953125 -195.16015625 c 2,35,-1
 458.51953125 -27.8798828125 l 1,36,-1
 432.279296875 -27.8798828125 l 1,37,-1
 432.279296875 -1.6396484375 l 1,0,-1
197.759765625 531.360351562 m 1,38,39
 174.799804688 528.080078125 174.799804688 528.080078125 151.237304688 501.353515625 c 2,40,-1
 150.19921875 500.200195312 l 2,40,41
 147.198242188 497.198242188 147.198242188 497.198242188 140.776367188 492.529296875 c 0,42,43
 129.551757812 483.139648438 129.551757812 483.139648438 125.599609375 477.240234375 c 0,42,43
 112.751953125 452.711914062 112.751953125 452.711914062 116.91796875 366.244140625 c 0,44,45
 117.35546875 355.723632812 117.35546875 355.723632812 117.399414062 349.3203125 c 0,44,45
 117.399414062 286.8359375 117.399414062 286.8359375 124.013671875 272.4765625 c 0,46,47
 126.774414062 267.24609375 126.774414062 267.24609375 128.879882812 264.040039062 c 0,46,47
 150.595703125 233.088867188 150.595703125 233.088867188 178.080078125 218.120117188 c 1,48,49
 204.922851562 211.185546875 204.922851562 211.185546875 284.6796875 213.200195312 c 1,50,51
 371.599609375 213.200195312 l 1,52,53
 397.158203125 218.265625 397.158203125 218.265625 420.799804688 244.360351562 c 1,54,55
 445.399414062 268.959960938 l 1,56,57
 456.712890625 292.717773438 456.712890625 292.717773438 452.45703125 378.17578125 c 0,58,59
 451.959960938 388.161132812 451.959960938 388.161132812 451.959960938 395.240234375 c 0,58,59
 451.959960938 455.334960938 451.959960938 455.334960938 449.311523438 464.127929688 c 0,60,61
 445.458984375 474.85546875 445.458984375 474.85546875 440.479492188 482.16015625 c 0,60,61
 438.310546875 484.56640625 438.310546875 484.56640625 420.799804688 500.200195312 c 0,62,63
 417.025390625 503.345703125 417.025390625 503.345703125 410.907226562 510.622070312 c 0,64,65
 399.776367188 522.469726562 399.776367188 522.469726562 392.919921875 526.440429688 c 1,64,65
 360.197265625 534.692382812 360.197265625 534.692382812 284.6796875 531.360351562 c 1,66,67
 197.759765625 531.360351562 l 1,38,39
473.279296875 920.040039062 m 1,0,1
 473.731445312 990.897460938 473.731445312 990.897460938 478.19921875 1006.95996094 c 0,2,3
 502.659179688 1085.77441406 502.659179688 1085.77441406 625.336914062 1088.04296875 c 0,4,5
 639.973632812 1088.31347656 639.973632812 1088.31347656 668.56640625 1087.71582031 c 0,6,7
 687.9375 1087.34082031 687.9375 1087.34082031 696.319335938 1087.3203125 c 1,4,-1
 696.319335938 1000.40039062 l 1,5,6
 689.31640625 1000.40039062 689.31640625 1000.40039062 671.544921875 1001.56445312 c 0,7,8
 581.440429688 1005.99609375 581.440429688 1005.99609375 563.479492188 975.799804688 c 1,7,8
 558.874023438 964.44921875 558.874023438 964.44921875 560.19921875 920.040039062 c 1,9,-1
 696.319335938 920.040039062 l 1,10,-1
 696.319335938 831.48046875 l 1,11,-1
 417.51953125 831.48046875 l 1,12,-1
 417.51953125 920.040039062 l 1,13,-1
 473.279296875 920.040039062 l 1,0,1
EndSplineSet
AlternateSubs2: "gsub_alternate_dfl_aalt_arab_FAR_Lookup_01_Subtable_01" uniFE86 uniFE85
Substitution2: "gsub_single_rtl_fina_arab_FAR_Lookup_01_Subtable_01" uniFE86
EndChar

StartChar: uniFE86
Encoding: 65158 65158 342
Width: 787
VWidth: 1639
GlyphClass: 2
Flags: W
LayerCount: 2
Fore
SplineSet
380.279296875 -1.6396484375 m 1,0,-1
 78.51953125 -1.6396484375 l 2,1,2
 -42.4931640625 -1.6396484375 -42.4931640625 -1.6396484375 -90.8818359375 22.6142578125 c 0,3,4
 -100.795898438 27.8349609375 -100.795898438 27.8349609375 -108.440429688 32.7998046875 c 0,3,4
 -154.169921875 65.9814453125 -154.169921875 65.9814453125 -154.360351562 182.040039062 c 2,5,-1
 -154.360351562 546.120117188 l 2,6,7
 -154.360351562 658.702148438 -154.360351562 658.702148438 -123.618164062 694.685546875 c 0,8,9
 -119.408203125 699.235351562 -119.408203125 699.235351562 -116.640625 701.919921875 c 0,8,9
 -69.1044921875 744.482421875 -69.1044921875 744.482421875 58.83984375 744.559570312 c 2,10,-1
 432.759765625 744.559570312 l 2,11,12
 501.068359375 743.950195312 501.068359375 743.950195312 550.83984375 724.879882812 c 0,13,14
 581.533203125 713.58203125 581.533203125 713.58203125 595.120117188 697 c 1,15,16
 628.380859375 636.432617188 628.380859375 636.432617188 627.919921875 528.080078125 c 2,17,-1
 627.919921875 239.440429688 l 1,18,-1
 654.159179688 239.440429688 l 1,19,-1
 654.159179688 213.200195312 l 1,20,-1
 818.159179688 213.200195312 l 1,21,-1
 818.159179688 52.48046875 l 1,22,-1
 818.159179688 14.759765625 l 1,23,-1
 814.879882812 0 l 1,24,-1
 772.239257812 -1.6396484375 l 1,25,-1
 654.159179688 -1.6396484375 l 1,26,-1
 654.159179688 -27.8798828125 l 1,27,-1
 627.919921875 -27.8798828125 l 1,28,-1
 627.919921875 -305.040039062 l 2,29,30
 626.798828125 -447.15625 626.798828125 -447.15625 578.719726562 -505.120117188 c 1,31,32
 518.6328125 -562.16796875 518.6328125 -562.16796875 362.239257812 -562.51953125 c 2,33,-1
 -156 -562.51953125 l 1,34,-1
 -156 -349.3203125 l 1,35,-1
 219.559570312 -349.3203125 l 2,36,37
 227.90625 -349.3203125 227.90625 -349.3203125 245.795898438 -350.133789062 c 0,38,39
 312.66015625 -352.318359375 312.66015625 -352.318359375 339.279296875 -337.83984375 c 0,38,39
 346.576171875 -333.34375 346.576171875 -333.34375 368.799804688 -309.959960938 c 1,40,41
 387.5 -293.561523438 387.5 -293.561523438 393.399414062 -285.360351562 c 0,42,43
 406.772460938 -262.34375 406.772460938 -262.34375 406.51953125 -195.16015625 c 2,44,-1
 406.51953125 -27.8798828125 l 1,45,-1
 380.279296875 -27.8798828125 l 1,46,-1
 380.279296875 -1.6396484375 l 1,0,-1
145.759765625 531.360351562 m 1,47,48
 122.799804688 528.080078125 122.799804688 528.080078125 99.2373046875 501.353515625 c 2,49,-1
 98.19921875 500.200195312 l 2,49,50
 95.1982421875 497.198242188 95.1982421875 497.198242188 88.7763671875 492.529296875 c 0,51,52
 77.5517578125 483.139648438 77.5517578125 483.139648438 73.599609375 477.240234375 c 0,51,52
 60.751953125 452.711914062 60.751953125 452.711914062 64.91796875 366.244140625 c 0,53,54
 65.35546875 355.723632812 65.35546875 355.723632812 65.3994140625 349.3203125 c 0,53,54
 65.3994140625 286.8359375 65.3994140625 286.8359375 72.013671875 272.4765625 c 0,55,56
 74.7744140625 267.24609375 74.7744140625 267.24609375 76.8798828125 264.040039062 c 0,55,56
 98.595703125 233.088867188 98.595703125 233.088867188 126.080078125 218.120117188 c 1,57,58
 152.922851562 211.185546875 152.922851562 211.185546875 232.6796875 213.200195312 c 1,59,60
 319.599609375 213.200195312 l 1,61,62
 345.158203125 218.265625 345.158203125 218.265625 368.799804688 244.360351562 c 1,63,64
 393.399414062 268.959960938 l 1,65,66
 404.712890625 292.717773438 404.712890625 292.717773438 400.45703125 378.17578125 c 0,67,68
 399.959960938 388.161132812 399.959960938 388.161132812 399.959960938 395.240234375 c 0,67,68
 399.959960938 455.334960938 399.959960938 455.334960938 397.311523438 464.127929688 c 0,69,70
 393.458984375 474.85546875 393.458984375 474.85546875 388.479492188 482.16015625 c 0,69,70
 386.310546875 484.56640625 386.310546875 484.56640625 368.799804688 500.200195312 c 0,71,72
 365.025390625 503.345703125 365.025390625 503.345703125 358.907226562 510.622070312 c 0,73,74
 347.776367188 522.469726562 347.776367188 522.469726562 340.919921875 526.440429688 c 1,73,74
 308.197265625 534.692382812 308.197265625 534.692382812 232.6796875 531.360351562 c 1,75,76
 145.759765625 531.360351562 l 1,47,48
595.120117188 915.120117188 m 1,0,1
 595.571289062 985.9765625 595.571289062 985.9765625 600.040039062 1002.04003906 c 0,2,3
 624.499023438 1080.85449219 624.499023438 1080.85449219 747.177734375 1083.12304688 c 0,4,5
 761.813476562 1083.39355469 761.813476562 1083.39355469 790.40625 1082.79589844 c 0,6,7
 809.77734375 1082.42089844 809.77734375 1082.42089844 818.159179688 1082.40039062 c 1,4,-1
 818.159179688 995.48046875 l 1,5,6
 811.15625 995.48046875 811.15625 995.48046875 793.384765625 996.64453125 c 0,7,8
 703.280273438 1001.07617188 703.280273438 1001.07617188 685.319335938 970.879882812 c 1,7,8
 680.713867188 959.529296875 680.713867188 959.529296875 682.040039062 915.120117188 c 1,9,-1
 818.159179688 915.120117188 l 1,10,-1
 818.159179688 826.559570312 l 1,11,-1
 539.359375 826.559570312 l 1,12,-1
 539.359375 915.120117188 l 1,13,-1
 595.120117188 915.120117188 l 1,0,1
EndSplineSet
EndChar

StartChar: uniFE87
Encoding: 1573 1573 343
AltUni2: 00fe87.ffffffff.0
Width: 361
VWidth: 1639
GlyphClass: 2
Flags: W
LayerCount: 2
Fore
SplineSet
91.51953125 1356.28027344 m 1,0,-1
 311.279296875 1356.28027344 l 1,1,-1
 311.279296875 -1.6396484375 l 1,2,-1
 91.51953125 -1.6396484375 l 1,3,-1
 91.51953125 1356.28027344 l 1,0,-1
117.759765625 -347.6796875 m 1,0,1
 118.211914062 -276.823242188 118.211914062 -276.823242188 122.6796875 -260.759765625 c 0,2,3
 147.139648438 -181.9453125 147.139648438 -181.9453125 269.817382812 -179.676757812 c 0,4,5
 284.453125 -179.40625 284.453125 -179.40625 313.046875 -180.004882812 c 0,6,7
 331.944335938 -180.400390625 331.944335938 -180.400390625 340.799804688 -180.400390625 c 1,4,-1
 340.799804688 -267.3203125 l 1,5,6
 333.795898438 -267.3203125 333.795898438 -267.3203125 316.024414062 -266.155273438 c 0,7,8
 225.919921875 -261.723632812 225.919921875 -261.723632812 207.959960938 -291.919921875 c 1,7,8
 203.354492188 -303.270507812 203.354492188 -303.270507812 204.6796875 -347.6796875 c 1,9,-1
 340.799804688 -347.6796875 l 1,10,-1
 340.799804688 -436.240234375 l 1,11,-1
 62 -436.240234375 l 1,12,-1
 62 -347.6796875 l 1,13,-1
 117.759765625 -347.6796875 l 1,0,1
EndSplineSet
AlternateSubs2: "gsub_alternate_dfl_aalt_arab_FAR_Lookup_01_Subtable_01" uniFE88 uniFE87
Substitution2: "gsub_single_rtl_fina_arab_FAR_Lookup_01_Subtable_01" uniFE88
EndChar

StartChar: uniFE88
Encoding: 65160 65160 344
Width: 733
VWidth: 1639
GlyphClass: 2
Flags: W
LayerCount: 2
Fore
SplineSet
307 1356.28027344 m 1,0,-1
 526.759765625 1356.28027344 l 1,1,-1
 526.759765625 606.799804688 l 1,2,-1
 526.759765625 408.360351562 l 2,3,4
 528.275390625 322.604492188 528.275390625 322.604492188 541.51953125 295.200195312 c 1,5,6
 552.987304688 278.110351562 552.987304688 278.110351562 571.040039062 262.400390625 c 1,7,8
 593.95703125 237.524414062 593.95703125 237.524414062 608.759765625 229.599609375 c 0,9,10
 645.169921875 210.094726562 645.169921875 210.094726562 743.283203125 212.844726562 c 0,11,12
 755.971679688 213.200195312 755.971679688 213.200195312 764.559570312 213.200195312 c 1,11,-1
 764.559570312 -1.6396484375 l 1,12,13
 739.250976562 -1.6396484375 739.250976562 -1.6396484375 687.484375 -3.087890625 c 0,14,15
 545.715820312 -6.728515625 545.715820312 -6.728515625 479.200195312 4.919921875 c 0,14,15
 399.481445312 19.1416015625 399.481445312 19.1416015625 361.120117188 52.48046875 c 1,16,17
 333.563476562 81.310546875 333.563476562 81.310546875 316.83984375 147.599609375 c 0,18,19
 301.420898438 208.088867188 301.420898438 208.088867188 306.19140625 366.365234375 c 0,20,21
 307 393.201171875 307 393.201171875 307 411.639648438 c 2,20,-1
 307 1356.28027344 l 1,0,-1
116.759765625 -309.959960938 m 1,0,1
 117.211914062 -239.102539062 117.211914062 -239.102539062 121.6796875 -223.040039062 c 0,2,3
 146.139648438 -144.225585938 146.139648438 -144.225585938 268.817382812 -141.95703125 c 0,4,5
 283.454101562 -141.686523438 283.454101562 -141.686523438 312.046875 -142.284179688 c 0,6,7
 330.944335938 -142.6796875 330.944335938 -142.6796875 339.799804688 -142.6796875 c 1,4,-1
 339.799804688 -229.599609375 l 1,5,6
 332.796875 -229.599609375 332.796875 -229.599609375 315.025390625 -228.435546875 c 0,7,8
 224.920898438 -224.00390625 224.920898438 -224.00390625 206.959960938 -254.200195312 c 1,7,8
 202.354492188 -265.55078125 202.354492188 -265.55078125 203.6796875 -309.959960938 c 1,9,-1
 339.799804688 -309.959960938 l 1,10,-1
 339.799804688 -398.51953125 l 1,11,-1
 61 -398.51953125 l 1,12,-1
 61 -309.959960938 l 1,13,-1
 116.759765625 -309.959960938 l 1,0,1
EndSplineSet
EndChar

StartChar: uniFE89
Encoding: 1574 1574 345
AltUni2: 00fe89.ffffffff.0
Width: 1291
VWidth: 1639
GlyphClass: 2
Flags: W
LayerCount: 2
Fore
SplineSet
835.240234375 -1.6396484375 m 1,0,1
 818.096679688 -1.6396484375 818.096679688 -1.6396484375 783.326171875 -2.4541015625 c 0,2,3
 676.9921875 -4.6015625 676.9921875 -4.6015625 626.9609375 4.919921875 c 0,2,3
 571.783203125 15.59765625 571.783203125 15.59765625 544.9609375 39.3603515625 c 1,4,5
 507.250976562 77.00390625 507.250976562 77.00390625 507.240234375 188.599609375 c 2,6,-1
 507.240234375 546.120117188 l 2,7,8
 507.240234375 658.8515625 507.240234375 658.8515625 538.05078125 696.116210938 c 0,9,10
 542.196289062 700.768554688 542.196289062 700.768554688 544.9609375 703.559570312 c 0,9,10
 604.145507812 744.921875 604.145507812 744.921875 728.640625 744.559570312 c 2,11,-1
 1135.36035156 744.559570312 l 1,12,-1
 1135.36035156 531.360351562 l 1,13,-1
 930.360351562 531.360351562 l 2,14,15
 846.931640625 531.360351562 846.931640625 531.360351562 832.116210938 527.875 c 0,16,17
 817.034179688 523.892578125 817.034179688 523.892578125 805.720703125 518.240234375 c 0,16,17
 798.985351562 513.381835938 798.985351562 513.381835938 771.280273438 487.080078125 c 1,18,19
 744.076171875 458.749023438 744.076171875 458.749023438 738.48046875 446.080078125 c 0,20,21
 726.889648438 419.74609375 726.889648438 419.74609375 727 355.879882812 c 2,22,-1
 727 236.16015625 l 1,23,-1
 753.240234375 236.16015625 l 1,24,-1
 753.240234375 209.919921875 l 1,25,-1
 945.120117188 209.919921875 l 2,26,27
 1010.99609375 208.829101562 1010.99609375 208.829101562 1032.04003906 191.879882812 c 0,28,29
 1042.24511719 182.10546875 1042.24511719 182.10546875 1050.08007812 150.879882812 c 0,30,31
 1056.84179688 123.291992188 1056.84179688 123.291992188 1056.640625 34.4404296875 c 0,32,33
 1056.39160156 -74.302734375 1056.39160156 -74.302734375 1048.44042969 -126.280273438 c 1,34,35
 1015.20019531 -292.30078125 1015.20019531 -292.30078125 900.840820312 -400.16015625 c 1,36,37
 792.301757812 -499.59765625 792.301757812 -499.59765625 664.680664062 -537.919921875 c 0,38,39
 474.73828125 -595.0703125 474.73828125 -595.0703125 283.373046875 -532.866210938 c 0,40,41
 167.494140625 -494.296875 167.494140625 -494.296875 92.3203125 -419.83984375 c 1,40,41
 33.0517578125 -357.0859375 33.0517578125 -357.0859375 -1.1591796875 -273.879882812 c 0,42,43
 -43.6533203125 -166.9609375 -43.6533203125 -166.9609375 -41.392578125 36.5146484375 c 0,44,45
 -40.51953125 115.047851562 -40.51953125 115.047851562 -40.51953125 124.639648438 c 2,44,-1
 -40.51953125 742.919921875 l 1,45,-1
 179.240234375 742.919921875 l 1,46,-1
 179.240234375 103.3203125 l 2,47,48
 179.240234375 86.0185546875 179.240234375 86.0185546875 178.252929688 50.181640625 c 0,49,50
 174.096679688 -100.56640625 174.096679688 -100.56640625 204.240234375 -166.288085938 c 0,51,52
 212.498046875 -184.291015625 212.498046875 -184.291015625 223.520507812 -200.080078125 c 0,49,50
 312.04296875 -326.961914062 312.04296875 -326.961914062 476.524414062 -339.833007812 c 0,51,52
 576.35546875 -346.826171875 576.35546875 -346.826171875 666.3203125 -306.6796875 c 0,51,52
 719.104492188 -281.518554688 719.104492188 -281.518554688 774.560546875 -226.3203125 c 0,53,54
 860.771484375 -138.125976562 860.771484375 -138.125976562 861.48046875 -27.8798828125 c 1,55,-1
 835.240234375 -27.8798828125 l 1,56,-1
 835.240234375 -1.6396484375 l 1,0,1
3.7607421875 672.400390625 m 1,0,1
 4.212890625 743.256835938 4.212890625 743.256835938 8.6806640625 759.3203125 c 0,2,3
 33.140625 838.134765625 33.140625 838.134765625 155.818359375 840.403320312 c 0,4,5
 170.454101562 840.673828125 170.454101562 840.673828125 199.046875 840.075195312 c 0,6,7
 218.41796875 839.701171875 218.41796875 839.701171875 226.80078125 839.6796875 c 1,4,-1
 226.80078125 752.759765625 l 1,5,6
 219.796875 752.759765625 219.796875 752.759765625 202.025390625 753.924804688 c 0,7,8
 111.920898438 758.356445312 111.920898438 758.356445312 93.9609375 728.16015625 c 1,7,8
 89.35546875 716.809570312 89.35546875 716.809570312 90.6806640625 672.400390625 c 1,9,-1
 226.80078125 672.400390625 l 1,10,-1
 226.80078125 583.83984375 l 1,11,-1
 -52 583.83984375 l 1,12,-1
 -52 672.400390625 l 1,13,-1
 3.7607421875 672.400390625 l 1,0,1
EndSplineSet
AlternateSubs2: "gsub_alternate_dfl_aalt_arab_FAR_Lookup_01_Subtable_01" uniFE8A uniFE8B uniFE89 uniFE8C
Substitution2: "gsub_single_rtl_fina_arab_FAR_Lookup_01_Subtable_01" uniFE8A
Substitution2: "gsub_single_rtl_init_arab_FAR_Lookup_01_Subtable_01" uniFE8B
Substitution2: "gsub_single_rtl_medi_arab_FAR_Lookup_01_Subtable_01" uniFE8C
EndChar

StartChar: uniFE8A
Encoding: 65162 65162 346
Width: 1050
VWidth: 1639
GlyphClass: 2
Flags: W
LayerCount: 2
Fore
SplineSet
-35.599609375 742.919921875 m 1,0,-1
 184.16015625 742.919921875 l 1,1,-1
 184.16015625 136.120117188 l 1,2,-1
 184.16015625 -4.919921875 l 2,3,4
 184.8359375 -114.75390625 184.8359375 -114.75390625 208.760742188 -170.559570312 c 1,5,6
 229.591796875 -210.739257812 229.591796875 -210.739257812 264.520507812 -246 c 0,7,8
 305.806640625 -286.518554688 305.806640625 -286.518554688 336.680664062 -305.040039062 c 1,9,10
 449.604492188 -364.958984375 449.604492188 -364.958984375 604 -326.360351562 c 1,11,12
 722.20703125 -294.827148438 722.20703125 -294.827148438 784.400390625 -213.200195312 c 1,13,14
 824.189453125 -157.495117188 824.189453125 -157.495117188 798.18359375 -99.634765625 c 0,15,16
 796.384765625 -95.6337890625 796.384765625 -95.6337890625 794.240234375 -91.83984375 c 0,15,16
 788.678710938 -82.30859375 788.678710938 -82.30859375 766.360351562 -60.6796875 c 0,17,18
 737.504882812 -32.6728515625 737.504882812 -32.6728515625 720.440429688 -22.9599609375 c 1,19,20
 666.06640625 -1.2197265625 666.06640625 -1.2197265625 546.600585938 -1.6396484375 c 1,21,-1
 546.600585938 213.200195312 l 1,22,-1
 1081.24023438 213.200195312 l 1,23,-1
 1081.24023438 -1.6396484375 l 1,24,-1
 956.600585938 -1.6396484375 l 1,25,-1
 956.600585938 -3.2802734375 l 1,26,27
 989.650390625 -4.6494140625 989.650390625 -4.6494140625 1009.08007812 -27.8798828125 c 1,28,-1
 930.360351562 -27.8798828125 l 1,29,-1
 930.360351562 -29.51953125 l 1,30,31
 963.41015625 -30.8896484375 963.41015625 -30.8896484375 982.840820312 -54.1201171875 c 1,32,-1
 956.600585938 -54.1201171875 l 1,33,-1
 956.600585938 -55.759765625 l 1,34,35
 1035.12109375 -57.3955078125 1035.12109375 -57.3955078125 1012.23535156 -191.260742188 c 0,36,37
 1009.37011719 -207.315429688 1009.37011719 -207.315429688 1005.80078125 -221.400390625 c 0,36,37
 957.997070312 -397.404296875 957.997070312 -397.404296875 775.825195312 -496.173828125 c 0,38,39
 759.87109375 -504.702148438 759.87109375 -504.702148438 745.040039062 -511.6796875 c 0,38,39
 633.135742188 -562.205078125 633.135742188 -562.205078125 494.120117188 -562.51953125 c 0,40,41
 388.280273438 -562.079101562 388.280273438 -562.079101562 312.080078125 -541.200195312 c 0,42,43
 238.448242188 -519.682617188 238.448242188 -519.682617188 180.880859375 -485.440429688 c 0,44,45
 125.05859375 -452.452148438 125.05859375 -452.452148438 93.9599609375 -419.83984375 c 0,46,47
 -23.2607421875 -294.716796875 -23.2607421875 -294.716796875 -34.33984375 -57.099609375 c 0,48,49
 -35.6767578125 -26.796875 -35.6767578125 -26.796875 -35.599609375 144.3203125 c 2,48,-1
 -35.599609375 742.919921875 l 1,0,-1
3.7607421875 913.48046875 m 1,0,1
 4.2119140625 984.336914062 4.2119140625 984.336914062 8.6806640625 1000.40039062 c 0,2,3
 33.1396484375 1079.21484375 33.1396484375 1079.21484375 155.818359375 1081.48339844 c 0,4,5
 170.454101562 1081.75390625 170.454101562 1081.75390625 199.046875 1081.15527344 c 0,6,7
 217.9453125 1080.75976562 217.9453125 1080.75976562 226.80078125 1080.75976562 c 1,4,-1
 226.80078125 993.83984375 l 1,5,6
 219.796875 993.83984375 219.796875 993.83984375 202.025390625 995.004882812 c 0,7,8
 111.920898438 999.436523438 111.920898438 999.436523438 93.9599609375 969.240234375 c 1,7,8
 89.3544921875 957.889648438 89.3544921875 957.889648438 90.6806640625 913.48046875 c 1,9,-1
 226.80078125 913.48046875 l 1,10,-1
 226.80078125 824.919921875 l 1,11,-1
 -52 824.919921875 l 1,12,-1
 -52 913.48046875 l 1,13,-1
 3.7607421875 913.48046875 l 1,0,1
EndSplineSet
EndChar

StartChar: uniFE8B
Encoding: 65163 65163 347
Width: 645
VWidth: 1639
GlyphClass: 2
Flags: W
LayerCount: 2
Fore
SplineSet
348.48046875 967.599609375 m 1,0,1
 348.48046875 1042.83300781 348.48046875 1042.83300781 354.966796875 1060.77539062 c 0,2,3
 360.651367188 1074.60449219 360.651367188 1074.60449219 368.16015625 1084.04003906 c 0,2,3
 393.331054688 1114.50976562 393.331054688 1114.50976562 491.77734375 1109.58007812 c 0,4,5
 510.928710938 1108.69140625 510.928710938 1108.69140625 519.040039062 1108.63964844 c 1,4,-1
 519.040039062 1075.83984375 l 1,5,6
 452.622070312 1075.83984375 452.622070312 1075.83984375 448.1796875 1074.90136719 c 0,7,8
 436.506835938 1071.88769531 436.506835938 1071.88769531 428.83984375 1067.63964844 c 0,7,8
 423.559570312 1062.88574219 423.559570312 1062.88574219 409.16015625 1044.6796875 c 1,9,10
 388.076171875 1027.11035156 388.076171875 1027.11035156 386.779296875 1024.83789062 c 0,11,12
 385.248046875 1021.65136719 385.248046875 1021.65136719 384.560546875 1020.08007812 c 0,11,12
 382.404296875 1012.03320312 382.404296875 1012.03320312 382.919921875 967.599609375 c 1,13,-1
 409.16015625 967.599609375 l 1,14,-1
 409.16015625 941.360351562 l 1,15,-1
 519.040039062 941.360351562 l 1,16,-1
 519.040039062 905.280273438 l 1,17,-1
 292.719726562 905.280273438 l 1,18,-1
 292.719726562 941.360351562 l 1,19,-1
 322.240234375 941.360351562 l 1,20,-1
 322.240234375 967.599609375 l 1,21,-1
 348.48046875 967.599609375 l 1,0,1
304.200195312 742.919921875 m 1,22,-1
 522.3203125 742.919921875 l 1,23,-1
 522.3203125 259.120117188 l 2,24,25
 521.041015625 101.6328125 521.041015625 101.6328125 464.919921875 52.48046875 c 1,26,27
 400.30078125 -1.4794921875 400.30078125 -1.4794921875 251.719726562 -1.6396484375 c 2,28,-1
 -32 -1.6396484375 l 1,29,-1
 -32 213.200195312 l 1,30,-1
 138.560546875 213.200195312 l 2,31,32
 210.201171875 213.973632812 210.201171875 213.973632812 230.400390625 224.6796875 c 0,33,34
 243.252929688 232.932617188 243.252929688 232.932617188 258.280273438 250.919921875 c 1,35,36
 282.879882812 275.51953125 l 1,37,38
 304.291015625 307.70703125 304.291015625 307.70703125 304.200195312 391.959960938 c 2,39,-1
 304.200195312 742.919921875 l 1,22,-1
EndSplineSet
EndChar

StartChar: uniFE8C
Encoding: 65164 65164 348
Width: 686
VWidth: 1639
GlyphClass: 2
Flags: W
LayerCount: 2
Fore
SplineSet
355.040039062 967.599609375 m 1,0,1
 355.040039062 1042.30273438 355.040039062 1042.30273438 360.64453125 1058.99414062 c 0,2,3
 365.948242188 1072.84765625 365.948242188 1072.84765625 373.080078125 1082.40039062 c 0,2,3
 384.872070312 1096.81738281 384.872070312 1096.81738281 414.080078125 1103.71972656 c 0,4,5
 440.4140625 1109.56738281 440.4140625 1109.56738281 525.599609375 1108.63964844 c 1,6,-1
 525.599609375 1075.83984375 l 1,7,8
 459.181640625 1075.83984375 459.181640625 1075.83984375 454.739257812 1074.90136719 c 0,9,10
 443.06640625 1071.88769531 443.06640625 1071.88769531 435.400390625 1067.63964844 c 0,9,10
 429.987304688 1064.03125 429.987304688 1064.03125 423.205078125 1054.92871094 c 0,11,12
 416.93359375 1047.32421875 416.93359375 1047.32421875 414.080078125 1044.6796875 c 0,11,12
 411.283203125 1041.8828125 411.283203125 1041.8828125 405.376953125 1037.48535156 c 0,13,14
 394.404296875 1027.87011719 394.404296875 1027.87011719 391.120117188 1021.71972656 c 0,13,14
 388.962890625 1013.71386719 388.962890625 1013.71386719 389.48046875 967.599609375 c 1,15,-1
 415.719726562 967.599609375 l 1,16,-1
 415.719726562 941.360351562 l 1,17,-1
 525.599609375 941.360351562 l 1,18,-1
 525.599609375 905.280273438 l 1,19,-1
 297.639648438 905.280273438 l 1,20,-1
 297.639648438 941.360351562 l 1,21,-1
 328.799804688 941.360351562 l 1,22,-1
 328.799804688 967.599609375 l 1,23,-1
 355.040039062 967.599609375 l 1,0,1
304.200195312 742.919921875 m 1,24,-1
 522.3203125 742.919921875 l 1,25,-1
 522.3203125 239.440429688 l 1,26,-1
 548.560546875 239.440429688 l 1,27,-1
 548.560546875 213.200195312 l 1,28,-1
 717.48046875 213.200195312 l 1,29,-1
 717.48046875 57.400390625 l 1,30,-1
 717.48046875 16.400390625 l 2,31,32
 716.559570312 2.8935546875 716.559570312 2.8935546875 715.83984375 1.6396484375 c 0,33,34
 711.107421875 -2.8486328125 711.107421875 -2.8486328125 669.919921875 -1.6396484375 c 2,35,-1
 532.16015625 -1.6396484375 l 1,36,-1
 -32 -1.6396484375 l 1,37,-1
 -32 213.200195312 l 1,38,-1
 277.959960938 213.200195312 l 1,39,-1
 277.959960938 239.440429688 l 1,40,-1
 304.200195312 239.440429688 l 1,41,-1
 304.200195312 742.919921875 l 1,24,-1
EndSplineSet
EndChar

StartChar: alefarabic
Encoding: 1575 1575 349
AltUni2: 00fe8d.ffffffff.0
Width: 480
VWidth: 1639
GlyphClass: 2
Flags: HW
AnchorPoint: "GposMark2BaseAnchorClassErabAbove_01_02" 213.88 1506.28 basechar 0
AnchorPoint: "GposMark2BaseAnchorClassErabBelow_01_02" 213.88 -151.64 basechar 0
LayerCount: 2
Fore
SplineSet
104 1356.28027344 m 1,0,-1
 323.759765625 1356.28027344 l 1,1,-1
 323.759765625 -1.6396484375 l 1,2,-1
 104 -1.6396484375 l 1,3,-1
 104 1356.28027344 l 1,0,-1
EndSplineSet
AlternateSubs2: "gsub_alternate_dfl_aalt_arab_FAR_Lookup_01_Subtable_01" uniFE8E alefarabic
Substitution2: "gsub_single_rtl_fina_arab_FAR_Lookup_01_Subtable_01" uniFE8E
PairPos2: "gpos_pair_dfl_kern_arab_FAR_Lookup_01_Subtable_01" gafarabic dx=0 dy=0 dh=0 dv=0 dx=0 dy=0 dh=0 dv=0
EndChar

StartChar: uniFE8E
Encoding: 65166 65166 350
Width: 531
VWidth: 1639
GlyphClass: 2
Flags: HW
AnchorPoint: "GposMark2BaseAnchorClassErabAbove_01_02" 331.926 1506.28 basechar 0
AnchorPoint: "GposMark2BaseAnchorClassErabBelow_01_02" 331.926 -156.729 basechar 0
LayerCount: 2
Fore
SplineSet
105.935546875 1356.28027344 m 1,0,-1
 325.6953125 1356.28027344 l 1,1,-1
 325.6953125 606.799804688 l 1,2,-1
 325.6953125 408.360351562 l 2,3,4
 327.2109375 322.604492188 327.2109375 322.604492188 340.455078125 295.200195312 c 1,5,6
 351.922851562 278.110351562 351.922851562 278.110351562 369.975585938 262.400390625 c 1,7,8
 392.892578125 237.524414062 392.892578125 237.524414062 407.6953125 229.599609375 c 0,9,10
 444.10546875 210.094726562 444.10546875 210.094726562 542.21875 212.844726562 c 0,11,12
 554.907226562 213.200195312 554.907226562 213.200195312 563.495117188 213.200195312 c 1,13,-1
 563.495117188 -1.6396484375 l 1,14,15
 538.186523438 -1.6396484375 538.186523438 -1.6396484375 486.419921875 -3.087890625 c 0,16,17
 344.651367188 -6.728515625 344.651367188 -6.728515625 278.135742188 4.919921875 c 0,18,19
 198.416992188 19.1416015625 198.416992188 19.1416015625 160.055664062 52.48046875 c 1,20,21
 132.499023438 81.310546875 132.499023438 81.310546875 115.775390625 147.599609375 c 0,22,23
 100.356445312 208.088867188 100.356445312 208.088867188 105.126953125 366.365234375 c 0,24,25
 105.935546875 393.201171875 105.935546875 393.201171875 105.935546875 411.639648438 c 2,26,-1
 105.935546875 1356.28027344 l 1,0,-1
EndSplineSet
PairPos2: "gpos_pair_dfl_kern_arab_FAR_Lookup_01_Subtable_01" gafarabic dx=0 dy=0 dh=0 dv=0 dx=0 dy=0 dh=0 dv=0
EndChar

StartChar: afii57416
Encoding: 1576 1576 351
AltUni2: 00fe8f.ffffffff.0
Width: 1521
VWidth: 1639
GlyphClass: 2
Flags: HW
AnchorPoint: "GposMark2BaseAnchorClassErabAbove_01_02" 682.249 892.92 basechar 0
AnchorPoint: "GposMark2BaseAnchorClassErabBelow_01_02" 682.249 -571.912 basechar 0
LayerCount: 2
Fore
SplineSet
0.033203125 742.919921875 m 1,0,-1
 219.79296875 742.919921875 l 1,1,-1
 219.79296875 416.559570312 l 2,2,3
 219.79296875 324.887695312 219.79296875 324.887695312 228.498046875 299.359375 c 0,4,5
 235.701171875 280.279296875 235.701171875 280.279296875 246.033203125 267.3203125 c 0,6,7
 272.697265625 233.0390625 272.697265625 233.0390625 293.59375 224.6796875 c 0,8,9
 316.54296875 215.010742188 316.54296875 215.010742188 350.994140625 214.83984375 c 0,10,11
 383.775390625 213.201171875 383.775390625 213.201171875 444.474609375 213.200195312 c 2,12,-1
 913.513671875 213.200195312 l 2,13,14
 981.240234375 213.279296875 981.240234375 213.279296875 1013.55273438 214.83984375 c 0,15,16
 1061.66015625 219.212890625 1061.66015625 219.212890625 1069.31445312 223.040039062 c 0,17,18
 1097.56835938 239.430664062 1097.56835938 239.430664062 1120.15429688 270.599609375 c 0,19,20
 1146.75585938 304.202148438 1146.75585938 304.202148438 1144.97070312 398.458007812 c 0,21,22
 1144.77148438 410.440429688 1144.77148438 410.440429688 1144.75390625 416.559570312 c 2,23,-1
 1144.75390625 742.919921875 l 1,24,-1
 1364.51367188 742.919921875 l 1,25,-1
 1364.51367188 296.83984375 l 2,26,27
 1364.51367188 156.168945312 1364.51367188 156.168945312 1336.8359375 98.171875 c 0,28,29
 1325.75976562 76.0546875 1325.75976562 76.0546875 1312.03320312 59.0400390625 c 0,30,31
 1290.76953125 33.125 1290.76953125 33.125 1238.234375 16.400390625 c 1,32,33
 1167.3515625 -2.6923828125 1167.3515625 -2.6923828125 1031.59375 -1.6396484375 c 2,34,-1
 328.033203125 -1.6396484375 l 2,35,36
 193.67578125 -1.6396484375 193.67578125 -1.6396484375 149.791015625 9.1865234375 c 0,37,38
 131.58203125 13.904296875 131.58203125 13.904296875 116.474609375 19.6796875 c 0,39,40
 68.478515625 39.0673828125 68.478515625 39.0673828125 52.513671875 57.400390625 c 0,41,42
 0.609375 116.938476562 0.609375 116.938476562 0.015625 255.681640625 c 0,43,44
 -0.015625 263.127929688 -0.015625 263.127929688 0.015625 277.83984375 c 0,45,46
 0.03125 286.698242188 0.03125 286.698242188 0.033203125 290.280273438 c 2,47,-1
 0.033203125 742.919921875 l 1,0,-1
633.07421875 -195.16015625 m 1,48,49
 703.748046875 -189.438476562 703.748046875 -189.438476562 736.39453125 -224.6796875 c 1,50,51
 775.201171875 -270.879882812 775.201171875 -270.879882812 759.064453125 -339.306640625 c 0,52,53
 751.6015625 -367.364257812 751.6015625 -367.364257812 736.39453125 -385.400390625 c 1,54,55
 714.162109375 -406.302734375 714.162109375 -406.302734375 675.712890625 -413.280273438 c 1,56,57
 605.69140625 -421.912109375 605.69140625 -421.912109375 569.11328125 -387.040039062 c 1,58,59
 530.712890625 -345.147460938 530.712890625 -345.147460938 544.095703125 -275.502929688 c 0,60,61
 551.40234375 -242.405273438 551.40234375 -242.405273438 569.11328125 -223.040039062 c 1,62,63
 591.580078125 -201.961914062 591.580078125 -201.961914062 633.07421875 -195.16015625 c 1,48,49
EndSplineSet
AlternateSubs2: "gsub_alternate_dfl_aalt_arab_FAR_Lookup_01_Subtable_01" uniFE90 uniFE91 afii57416 uniFE92
Substitution2: "gsub_single_rtl_fina_arab_FAR_Lookup_01_Subtable_01" uniFE90
Substitution2: "gsub_single_rtl_init_arab_FAR_Lookup_01_Subtable_01" uniFE91
Substitution2: "gsub_single_rtl_medi_arab_FAR_Lookup_01_Subtable_01" uniFE92
EndChar

StartChar: uniFE90
Encoding: 65168 65168 352
Width: 1524
VWidth: 1639
GlyphClass: 2
Flags: HW
AnchorPoint: "GposMark2BaseAnchorClassErabAbove_01_02" 777.37 892.92 basechar 0
AnchorPoint: "GposMark2BaseAnchorClassErabBelow_01_02" 777.37 -575.562 basechar 0
LayerCount: 2
Fore
SplineSet
0.0341796875 742.919921875 m 1,0,-1
 219.793945312 742.919921875 l 1,1,-1
 219.793945312 414.919921875 l 2,2,3
 219.793945312 320.622070312 219.793945312 320.622070312 227.1796875 296.529296875 c 0,4,5
 233.05859375 279.220703125 233.05859375 279.220703125 241.114257812 267.3203125 c 0,6,7
 265.377929688 236.17578125 265.377929688 236.17578125 287.034179688 223.040039062 c 1,8,9
 297.998046875 218.64453125 297.998046875 218.64453125 349.354492188 214.83984375 c 0,10,11
 374.44140625 213.103515625 374.44140625 213.103515625 482.194335938 213.200195312 c 2,12,-1
 1118.51464844 213.200195312 l 1,13,-1
 1118.51464844 239.440429688 l 1,14,-1
 1144.75390625 239.440429688 l 1,15,-1
 1144.75390625 742.919921875 l 1,16,-1
 1364.51464844 742.919921875 l 1,17,-1
 1364.51464844 239.440429688 l 1,18,-1
 1390.75390625 239.440429688 l 1,19,-1
 1390.75390625 213.200195312 l 1,20,-1
 1554.75390625 213.200195312 l 1,21,-1
 1554.75390625 -1.6396484375 l 1,22,-1
 454.314453125 -1.6396484375 l 2,23,24
 429.681640625 -1.6396484375 429.681640625 -1.6396484375 379.354492188 -2.96484375 c 0,25,26
 232.846679688 -6.4755859375 232.846679688 -6.4755859375 164.034179688 6.5595703125 c 0,27,28
 83.6337890625 21.6435546875 83.6337890625 21.6435546875 52.5146484375 57.400390625 c 0,29,30
 0.4912109375 115.543945312 0.4912109375 115.543945312 0.009765625 256.16015625 c 0,31,32
 -0.013671875 262.998046875 -0.013671875 262.998046875 0.0166015625 276.45703125 c 0,33,34
 0.0341796875 284.6171875 0.0341796875 284.6171875 0.0341796875 288.639648438 c 2,35,-1
 0.0341796875 742.919921875 l 1,0,-1
633.07421875 -200.080078125 m 1,36,37
 701.75390625 -194.500976562 701.75390625 -194.500976562 734.75390625 -227.959960938 c 0,38,39
 774.29296875 -269.217773438 774.29296875 -269.217773438 760.147460938 -339.497070312 c 0,40,41
 752.5703125 -372.499023438 752.5703125 -372.499023438 734.75390625 -391.959960938 c 1,42,43
 711.930664062 -413.311523438 711.930664062 -413.311523438 669.154296875 -419.83984375 c 1,44,45
 602.286132812 -425.5625 602.286132812 -425.5625 569.114257812 -391.959960938 c 1,46,47
 530.712890625 -350.067382812 530.712890625 -350.067382812 544.096679688 -280.422851562 c 0,48,49
 551.40234375 -247.325195312 551.40234375 -247.325195312 569.114257812 -227.959960938 c 1,50,51
 591.580078125 -206.881835938 591.580078125 -206.881835938 633.07421875 -200.080078125 c 1,36,37
EndSplineSet
EndChar

StartChar: uniFE91
Encoding: 65169 65169 353
Width: 681
VWidth: 1639
GlyphClass: 2
Flags: HW
AnchorPoint: "GposMark2BaseAnchorClassErabAbove_01_02" 251.884 892.92 basechar 0
AnchorPoint: "GposMark2BaseAnchorClassErabBelow_01_02" 251.884 -571.912 basechar 0
LayerCount: 2
Fore
SplineSet
304.200195312 742.919921875 m 1,0,-1
 522.3203125 742.919921875 l 1,1,-1
 522.3203125 259.120117188 l 2,2,3
 521.041015625 101.6328125 521.041015625 101.6328125 464.919921875 52.48046875 c 1,4,5
 400.30078125 -1.4794921875 400.30078125 -1.4794921875 251.719726562 -1.6396484375 c 2,6,-1
 -32 -1.6396484375 l 1,7,-1
 -32 213.200195312 l 1,8,-1
 138.560546875 213.200195312 l 2,9,10
 210.201171875 213.973632812 210.201171875 213.973632812 230.400390625 224.6796875 c 0,11,12
 243.252929688 232.932617188 243.252929688 232.932617188 258.280273438 250.919921875 c 1,13,14
 282.879882812 275.51953125 l 1,15,16
 304.291015625 307.70703125 304.291015625 307.70703125 304.200195312 391.959960938 c 2,17,-1
 304.200195312 742.919921875 l 1,0,-1
394.400390625 -195.16015625 m 1,18,19
 465.07421875 -189.438476562 465.07421875 -189.438476562 497.719726562 -224.6796875 c 1,20,21
 535.767578125 -269.974609375 535.767578125 -269.974609375 520.541992188 -338.33203125 c 0,22,23
 512.844726562 -368.72265625 512.844726562 -368.72265625 496.080078125 -387.040039062 c 1,24,25
 475.291992188 -406.461914062 475.291992188 -406.461914062 437.040039062 -413.280273438 c 1,26,27
 367.017578125 -421.912109375 367.017578125 -421.912109375 330.440429688 -387.040039062 c 1,28,29
 292.0390625 -345.147460938 292.0390625 -345.147460938 305.421875 -275.502929688 c 0,30,31
 312.727539062 -242.405273438 312.727539062 -242.405273438 330.440429688 -223.040039062 c 1,32,33
 352.90625 -201.961914062 352.90625 -201.961914062 394.400390625 -195.16015625 c 1,18,19
EndSplineSet
EndChar

StartChar: uniFE92
Encoding: 65170 65170 354
Width: 686
VWidth: 1639
GlyphClass: 2
Flags: HW
AnchorPoint: "GposMark2BaseAnchorClassErabAbove_01_02" 342.74 892.92 basechar 0
AnchorPoint: "GposMark2BaseAnchorClassErabBelow_01_02" 342.74 -573.741 basechar 0
LayerCount: 2
Fore
SplineSet
304.200195312 742.919921875 m 1,0,-1
 522.3203125 742.919921875 l 1,1,-1
 522.3203125 239.440429688 l 1,2,-1
 548.560546875 239.440429688 l 1,3,-1
 548.560546875 213.200195312 l 1,4,-1
 717.48046875 213.200195312 l 1,5,-1
 717.48046875 57.400390625 l 1,6,-1
 717.48046875 16.400390625 l 2,7,8
 716.559570312 2.8935546875 716.559570312 2.8935546875 715.83984375 1.6396484375 c 0,9,10
 711.107421875 -2.8486328125 711.107421875 -2.8486328125 669.919921875 -1.6396484375 c 2,11,-1
 532.16015625 -1.6396484375 l 1,12,-1
 -32 -1.6396484375 l 1,13,-1
 -32 213.200195312 l 1,14,-1
 277.959960938 213.200195312 l 1,15,-1
 277.959960938 239.440429688 l 1,16,-1
 304.200195312 239.440429688 l 1,17,-1
 304.200195312 742.919921875 l 1,0,-1
389.48046875 -198.440429688 m 1,18,19
 455.32421875 -193.166992188 455.32421875 -193.166992188 489.520507812 -227.959960938 c 1,20,21
 528.732421875 -270.736328125 528.732421875 -270.736328125 512.689453125 -340.536132812 c 0,22,23
 504.758789062 -371.1796875 504.758789062 -371.1796875 487.879882812 -390.3203125 c 0,24,25
 467.541015625 -411.306640625 467.541015625 -411.306640625 425.560546875 -418.200195312 c 1,26,27
 357.383789062 -423.741210938 357.383789062 -423.741210938 322.240234375 -390.3203125 c 1,28,29
 282.854492188 -345.563476562 282.854492188 -345.563476562 299.203125 -275.587890625 c 0,30,31
 307.168945312 -245.270507812 307.168945312 -245.270507812 323.879882812 -226.3203125 c 1,32,33
 346.704101562 -204.96875 346.704101562 -204.96875 389.48046875 -198.440429688 c 1,18,19
EndSplineSet
EndChar

StartChar: afii57417
Encoding: 1577 1577 355
AltUni2: 00fe93.ffffffff.0
Width: 803
VWidth: 1639
GlyphClass: 2
Flags: HW
AnchorPoint: "GposMark2BaseAnchorClassErabAbove_01_02" 321.02 1280.92 basechar 0
AnchorPoint: "GposMark2BaseAnchorClassErabBelow_01_02" 321.02 -151.64 basechar 0
LayerCount: 2
Fore
SplineSet
197.200195312 1123.40039062 m 1,0,1
 265.419921875 1130.875 265.419921875 1130.875 302.16015625 1095.51953125 c 1,2,3
 341.071289062 1051.30175781 341.071289062 1051.30175781 324.469726562 980.060546875 c 0,4,5
 316.56640625 949.82421875 316.56640625 949.82421875 300.51953125 931.51953125 c 1,6,7
 278.053710938 910.44140625 278.053710938 910.44140625 236.559570312 903.639648438 c 1,8,9
 170.131835938 897.970703125 170.131835938 897.970703125 136.51953125 929.879882812 c 1,10,11
 96.9384765625 972.903320312 96.9384765625 972.903320312 111.479492188 1043.61914062 c 0,12,13
 119.423828125 1077.54003906 119.423828125 1077.54003906 138.16015625 1097.16015625 c 0,14,15
 158.948242188 1116.58203125 158.948242188 1116.58203125 197.200195312 1123.40039062 c 1,0,1
507.16015625 1123.40039062 m 1,16,17
 575.8125 1130.91894531 575.8125 1130.91894531 610.48046875 1095.51953125 c 0,18,19
 651.333007812 1051.11523438 651.333007812 1051.11523438 635.103515625 980.788085938 c 0,20,21
 627.23046875 950.515625 627.23046875 950.515625 610.48046875 931.51953125 c 1,22,23
 588.014648438 910.44140625 588.014648438 910.44140625 546.51953125 903.639648438 c 1,24,25
 478.25 897.768554688 478.25 897.768554688 446.48046875 929.879882812 c 0,26,27
 406.8984375 972.903320312 406.8984375 972.903320312 421.439453125 1043.61914062 c 0,28,29
 429.383789062 1077.54003906 429.383789062 1077.54003906 448.120117188 1097.16015625 c 0,30,31
 468.908203125 1116.58203125 468.908203125 1116.58203125 507.16015625 1123.40039062 c 1,16,17
699.040039062 -1.6396484375 m 1,32,-1
 234.919921875 -1.6396484375 l 2,33,34
 102.5703125 -1.6396484375 102.5703125 -1.6396484375 90.3857421875 -0.2919921875 c 0,35,36
 33.177734375 6.76171875 33.177734375 6.76171875 -6.16015625 29.51953125 c 1,37,38
 -56.634765625 62.873046875 -56.634765625 62.873046875 -57 173.83984375 c 2,39,-1
 -57 559.240234375 l 2,40,41
 -55.662109375 675.896484375 -55.662109375 675.896484375 -12.7197265625 708.48046875 c 0,42,43
 42.0654296875 748.19921875 42.0654296875 748.19921875 170.44140625 745.403320312 c 0,44,45
 209.841796875 744.578125 209.841796875 744.578125 218.51953125 744.559570312 c 2,46,-1
 699.040039062 744.559570312 l 1,47,-1
 699.040039062 -1.6396484375 l 1,32,-1
467.799804688 534.639648438 m 1,48,-1
 298.879882812 534.639648438 l 2,49,50
 233.375 533.88671875 233.375 533.88671875 215.240234375 524.799804688 c 0,51,52
 213.35546875 522.911132812 213.35546875 522.911132812 193.919921875 501.83984375 c 0,53,54
 191.419921875 499.340820312 191.419921875 499.340820312 185.78515625 494.930664062 c 0,55,56
 172.920898438 483.356445312 172.920898438 483.356445312 169.3203125 475.599609375 c 0,57,58
 161.9140625 456.452148438 161.9140625 456.452148438 162.759765625 395.240234375 c 0,59,60
 162.759765625 385.834960938 162.759765625 385.834960938 161.509765625 364.5234375 c 0,61,62
 158.17578125 294.73828125 158.17578125 294.73828125 170.959960938 268.959960938 c 0,63,64
 176.180664062 259.768554688 176.180664062 259.768554688 195.559570312 244.360351562 c 1,65,66
 211.830078125 225.13671875 211.830078125 225.13671875 216.879882812 221.400390625 c 0,67,68
 237.0234375 212.37109375 237.0234375 212.37109375 298.879882812 213.200195312 c 2,69,-1
 467.799804688 213.200195312 l 1,70,-1
 467.799804688 239.440429688 l 1,71,-1
 494.040039062 239.440429688 l 1,72,-1
 494.040039062 508.400390625 l 1,73,-1
 467.799804688 508.400390625 l 1,74,-1
 467.799804688 534.639648438 l 1,48,-1
EndSplineSet
AlternateSubs2: "gsub_alternate_dfl_aalt_arab_FAR_Lookup_01_Subtable_01" uniFE94 afii57417
Substitution2: "gsub_single_rtl_fina_arab_FAR_Lookup_01_Subtable_01" uniFE94
EndChar

StartChar: uniFE94
Encoding: 65172 65172 356
Width: 924
VWidth: 1639
GlyphClass: 2
Flags: HW
AnchorPoint: "GposMark2BaseAnchorClassErabAbove_01_02" 471.8 1369.49 basechar 0
AnchorPoint: "GposMark2BaseAnchorClassErabBelow_01_02" 471.8 -158.327 basechar 0
LayerCount: 2
Fore
SplineSet
197.919921875 1213.59960938 m 1,0,1
 266.215820312 1219.49414062 266.215820312 1219.49414062 299.599609375 1185.71972656 c 1,2,3
 338.985351562 1140.96386719 338.985351562 1140.96386719 322.637695312 1070.98828125 c 0,4,5
 314.670898438 1040.67089844 314.670898438 1040.67089844 297.959960938 1021.71972656 c 0,6,7
 277.62109375 1000.73242188 277.62109375 1000.73242188 235.639648438 993.83984375 c 1,8,9
 166.98828125 988.283203125 166.98828125 988.283203125 135.599609375 1020.08007812 c 0,10,11
 96.3125 1062.78417969 96.3125 1062.78417969 110.094726562 1133.81933594 c 0,12,13
 117.599609375 1167.69042969 117.599609375 1167.69042969 135.599609375 1187.36035156 c 1,14,15
 159.025390625 1207.19140625 159.025390625 1207.19140625 197.919921875 1213.59960938 c 1,0,1
507.879882812 1213.59960938 m 1,16,17
 574.630859375 1218.97851562 574.630859375 1218.97851562 609.559570312 1185.71972656 c 1,18,19
 648.822265625 1144.75 648.822265625 1144.75 633.752929688 1074.18261719 c 0,20,21
 625.795898438 1041.22851562 625.795898438 1041.22851562 607.919921875 1021.71972656 c 0,22,23
 587.581054688 1000.73242188 587.581054688 1000.73242188 545.599609375 993.83984375 c 1,24,25
 477.357421875 988.311523438 477.357421875 988.311523438 443.919921875 1020.08007812 c 1,26,27
 405.481445312 1063.75976562 405.481445312 1063.75976562 419.259765625 1133.81933594 c 0,28,29
 426.9296875 1167.83398438 426.9296875 1167.83398438 445.559570312 1187.36035156 c 1,30,31
 468.985351562 1207.19140625 468.985351562 1207.19140625 507.879882812 1213.59960938 c 1,16,17
539.040039062 831.48046875 m 1,32,-1
 770.280273438 831.48046875 l 1,33,-1
 770.280273438 239.440429688 l 1,34,-1
 796.51953125 239.440429688 l 1,35,-1
 796.51953125 213.200195312 l 1,36,-1
 955.599609375 213.200195312 l 1,37,-1
 955.599609375 -1.6396484375 l 1,38,-1
 312.719726562 -1.6396484375 l 2,39,40
 295.856445312 -1.6396484375 295.856445312 -1.6396484375 259.560546875 -2.96875 c 0,41,42
 113.131835938 -8.3271484375 113.131835938 -8.3271484375 53.0615234375 22.3896484375 c 0,43,44
 40.4462890625 29.1611328125 40.4462890625 29.1611328125 30.6396484375 36.080078125 c 0,45,46
 -11.8046875 69.416015625 -11.8046875 69.416015625 -12 182.040039062 c 2,47,-1
 -12 559.240234375 l 2,48,49
 -10.662109375 675.498046875 -10.662109375 675.498046875 30.6396484375 708.48046875 c 1,50,51
 92.6240234375 744.642578125 92.6240234375 744.642578125 211.040039062 744.559570312 c 2,52,-1
 512.799804688 744.559570312 l 1,53,-1
 512.799804688 770.799804688 l 1,54,-1
 539.040039062 770.799804688 l 1,55,-1
 539.040039062 831.48046875 l 1,32,-1
512.799804688 534.639648438 m 1,56,-1
 343.879882812 534.639648438 l 2,57,58
 278.375 533.88671875 278.375 533.88671875 260.240234375 524.799804688 c 0,59,60
 258.35546875 522.911132812 258.35546875 522.911132812 238.919921875 501.83984375 c 0,61,62
 236.419921875 499.340820312 236.419921875 499.340820312 230.78515625 494.930664062 c 0,63,64
 217.920898438 483.356445312 217.920898438 483.356445312 214.3203125 475.599609375 c 0,65,66
 206.9140625 456.452148438 206.9140625 456.452148438 207.759765625 395.240234375 c 0,67,68
 207.759765625 385.834960938 207.759765625 385.834960938 206.509765625 364.5234375 c 0,69,70
 203.17578125 294.73828125 203.17578125 294.73828125 215.959960938 268.959960938 c 0,71,72
 221.180664062 259.768554688 221.180664062 259.768554688 240.559570312 244.360351562 c 1,73,74
 256.830078125 225.13671875 256.830078125 225.13671875 261.879882812 221.400390625 c 0,75,76
 282.0234375 212.37109375 282.0234375 212.37109375 343.879882812 213.200195312 c 2,77,-1
 512.799804688 213.200195312 l 1,78,-1
 512.799804688 239.440429688 l 1,79,-1
 539.040039062 239.440429688 l 1,80,-1
 539.040039062 508.400390625 l 1,81,-1
 512.799804688 508.400390625 l 1,82,-1
 512.799804688 534.639648438 l 1,56,-1
EndSplineSet
EndChar

StartChar: afii57418
Encoding: 1578 1578 357
AltUni2: 00fe95.ffffffff.0
Width: 1521
VWidth: 1639
GlyphClass: 2
Flags: HW
AnchorPoint: "GposMark2BaseAnchorClassErabAbove_01_02" 682.249 1277.34 basechar 0
AnchorPoint: "GposMark2BaseAnchorClassErabBelow_01_02" 682.249 -152.692 basechar 0
LayerCount: 2
Fore
SplineSet
524.833984375 1121.75976562 m 1,0,1
 593.513671875 1127.33886719 593.513671875 1127.33886719 626.513671875 1093.87988281 c 0,2,3
 666.716796875 1050.18066406 666.716796875 1050.18066406 651.533203125 980.189453125 c 0,4,5
 643.78515625 948.740234375 643.78515625 948.740234375 626.513671875 929.879882812 c 1,6,7
 605.37890625 910.145507812 605.37890625 910.145507812 569.11328125 903.639648438 c 1,8,9
 497.26171875 894.736328125 497.26171875 894.736328125 462.513671875 929.879882812 c 1,10,11
 421.345703125 974.627929688 421.345703125 974.627929688 436.646484375 1044.61132812 c 0,12,13
 444.177734375 1074.92773438 444.177734375 1074.92773438 460.873046875 1093.87988281 c 1,14,15
 483.33984375 1114.95800781 483.33984375 1114.95800781 524.833984375 1121.75976562 c 1,0,1
834.79296875 1121.75976562 m 1,16,17
 902.96875 1127.30078125 902.96875 1127.30078125 938.11328125 1093.87988281 c 1,18,19
 976.232421875 1052.29589844 976.232421875 1052.29589844 961.931640625 982.342773438 c 0,20,21
 954.244140625 949.290039062 954.244140625 949.290039062 936.474609375 929.879882812 c 1,22,23
 913.650390625 908.528320312 913.650390625 908.528320312 870.873046875 902 c 1,24,25
 805.029296875 896.7265625 805.029296875 896.7265625 770.833984375 931.51953125 c 1,26,27
 732.56640625 973.265625 732.56640625 973.265625 746.78125 1043.04003906 c 0,28,29
 754.146484375 1074.82910156 754.146484375 1074.82910156 770.833984375 1093.87988281 c 1,30,31
 793.298828125 1114.95800781 793.298828125 1114.95800781 834.79296875 1121.75976562 c 1,16,17
0.033203125 742.919921875 m 1,32,-1
 219.79296875 742.919921875 l 1,33,-1
 219.79296875 416.559570312 l 2,34,35
 219.79296875 324.887695312 219.79296875 324.887695312 228.498046875 299.359375 c 0,36,37
 235.701171875 280.279296875 235.701171875 280.279296875 246.033203125 267.3203125 c 0,38,39
 272.697265625 233.0390625 272.697265625 233.0390625 293.59375 224.6796875 c 0,40,41
 316.54296875 215.010742188 316.54296875 215.010742188 350.994140625 214.83984375 c 0,42,43
 383.775390625 213.201171875 383.775390625 213.201171875 444.474609375 213.200195312 c 2,44,-1
 913.513671875 213.200195312 l 2,45,46
 981.240234375 213.279296875 981.240234375 213.279296875 1013.55273438 214.83984375 c 0,47,48
 1061.66015625 219.212890625 1061.66015625 219.212890625 1069.31445312 223.040039062 c 0,49,50
 1097.56835938 239.430664062 1097.56835938 239.430664062 1120.15429688 270.599609375 c 0,51,52
 1146.75585938 304.202148438 1146.75585938 304.202148438 1144.97070312 398.458007812 c 0,53,54
 1144.77148438 410.440429688 1144.77148438 410.440429688 1144.75390625 416.559570312 c 2,55,-1
 1144.75390625 742.919921875 l 1,56,-1
 1364.51367188 742.919921875 l 1,57,-1
 1364.51367188 296.83984375 l 2,58,59
 1364.51367188 156.168945312 1364.51367188 156.168945312 1336.8359375 98.171875 c 0,60,61
 1325.75976562 76.0546875 1325.75976562 76.0546875 1312.03320312 59.0400390625 c 0,62,63
 1290.76953125 33.125 1290.76953125 33.125 1238.234375 16.400390625 c 1,64,65
 1167.3515625 -2.6923828125 1167.3515625 -2.6923828125 1031.59375 -1.6396484375 c 2,66,-1
 328.033203125 -1.6396484375 l 2,67,68
 193.67578125 -1.6396484375 193.67578125 -1.6396484375 149.791015625 9.1865234375 c 0,69,70
 131.58203125 13.904296875 131.58203125 13.904296875 116.474609375 19.6796875 c 0,71,72
 68.478515625 39.0673828125 68.478515625 39.0673828125 52.513671875 57.400390625 c 0,73,74
 0.609375 116.938476562 0.609375 116.938476562 0.015625 255.681640625 c 0,75,76
 -0.015625 263.127929688 -0.015625 263.127929688 0.015625 277.83984375 c 0,77,78
 0.03125 286.698242188 0.03125 286.698242188 0.033203125 290.280273438 c 2,79,-1
 0.033203125 742.919921875 l 1,32,-1
EndSplineSet
AlternateSubs2: "gsub_alternate_dfl_aalt_arab_FAR_Lookup_01_Subtable_01" uniFE96 uniFE97 afii57418 uniFE98
Substitution2: "gsub_single_rtl_fina_arab_FAR_Lookup_01_Subtable_01" uniFE96
Substitution2: "gsub_single_rtl_init_arab_FAR_Lookup_01_Subtable_01" uniFE97
Substitution2: "gsub_single_rtl_medi_arab_FAR_Lookup_01_Subtable_01" uniFE98
EndChar

StartChar: uniFE96
Encoding: 65174 65174 358
Width: 1524
VWidth: 1639
GlyphClass: 2
Flags: HW
AnchorPoint: "GposMark2BaseAnchorClassErabAbove_01_02" 777.37 1277.34 basechar 0
AnchorPoint: "GposMark2BaseAnchorClassErabBelow_01_02" 777.37 -156.476 basechar 0
LayerCount: 2
Fore
SplineSet
524.833984375 1121.75976562 m 1,0,1
 593.513671875 1127.33886719 593.513671875 1127.33886719 626.514648438 1093.87988281 c 0,2,3
 666.717773438 1050.18066406 666.717773438 1050.18066406 651.534179688 980.189453125 c 0,4,5
 643.786132812 948.740234375 643.786132812 948.740234375 626.514648438 929.879882812 c 1,6,7
 605.37890625 910.145507812 605.37890625 910.145507812 569.114257812 903.639648438 c 1,8,9
 497.26171875 894.736328125 497.26171875 894.736328125 462.514648438 929.879882812 c 1,10,11
 421.345703125 974.627929688 421.345703125 974.627929688 436.646484375 1044.61132812 c 0,12,13
 444.177734375 1074.92773438 444.177734375 1074.92773438 460.874023438 1093.87988281 c 1,14,15
 483.33984375 1114.95800781 483.33984375 1114.95800781 524.833984375 1121.75976562 c 1,0,1
834.793945312 1121.75976562 m 1,16,17
 902.969726562 1127.30078125 902.969726562 1127.30078125 938.114257812 1093.87988281 c 1,18,19
 976.233398438 1052.29589844 976.233398438 1052.29589844 961.931640625 982.342773438 c 0,20,21
 954.244140625 949.290039062 954.244140625 949.290039062 936.474609375 929.879882812 c 1,22,23
 913.650390625 908.528320312 913.650390625 908.528320312 870.874023438 902 c 1,24,25
 805.029296875 896.7265625 805.029296875 896.7265625 770.833984375 931.51953125 c 1,26,27
 732.567382812 973.265625 732.567382812 973.265625 746.78125 1043.04003906 c 0,28,29
 754.146484375 1074.82910156 754.146484375 1074.82910156 770.833984375 1093.87988281 c 1,30,31
 793.299804688 1114.95800781 793.299804688 1114.95800781 834.793945312 1121.75976562 c 1,16,17
0.0341796875 742.919921875 m 1,32,-1
 219.793945312 742.919921875 l 1,33,-1
 219.793945312 414.919921875 l 2,34,35
 219.793945312 320.622070312 219.793945312 320.622070312 227.1796875 296.529296875 c 0,36,37
 233.05859375 279.220703125 233.05859375 279.220703125 241.114257812 267.3203125 c 0,38,39
 265.377929688 236.17578125 265.377929688 236.17578125 287.034179688 223.040039062 c 1,40,41
 297.998046875 218.64453125 297.998046875 218.64453125 349.354492188 214.83984375 c 0,42,43
 374.44140625 213.103515625 374.44140625 213.103515625 482.194335938 213.200195312 c 2,44,-1
 1118.51464844 213.200195312 l 1,45,-1
 1118.51464844 239.440429688 l 1,46,-1
 1144.75390625 239.440429688 l 1,47,-1
 1144.75390625 742.919921875 l 1,48,-1
 1364.51464844 742.919921875 l 1,49,-1
 1364.51464844 239.440429688 l 1,50,-1
 1390.75390625 239.440429688 l 1,51,-1
 1390.75390625 213.200195312 l 1,52,-1
 1554.75390625 213.200195312 l 1,53,-1
 1554.75390625 -1.6396484375 l 1,54,-1
 454.314453125 -1.6396484375 l 2,55,56
 429.681640625 -1.6396484375 429.681640625 -1.6396484375 379.354492188 -2.96484375 c 0,57,58
 232.846679688 -6.4755859375 232.846679688 -6.4755859375 164.034179688 6.5595703125 c 0,59,60
 83.6337890625 21.6435546875 83.6337890625 21.6435546875 52.5146484375 57.400390625 c 0,61,62
 0.4912109375 115.543945312 0.4912109375 115.543945312 0.009765625 256.16015625 c 0,63,64
 -0.013671875 262.998046875 -0.013671875 262.998046875 0.0166015625 276.45703125 c 0,65,66
 0.0341796875 284.6171875 0.0341796875 284.6171875 0.0341796875 288.639648438 c 2,67,-1
 0.0341796875 742.919921875 l 1,32,-1
EndSplineSet
EndChar

StartChar: uniFE97
Encoding: 65175 65175 359
Width: 777
VWidth: 1639
GlyphClass: 2
Flags: HW
AnchorPoint: "GposMark2BaseAnchorClassErabAbove_01_02" 295.951 1277.3 basechar 0
AnchorPoint: "GposMark2BaseAnchorClassErabBelow_01_02" 295.951 -151.64 basechar 0
LayerCount: 2
Fore
SplineSet
212.360351562 1121.75976562 m 1,0,1
 280.536132812 1127.30078125 280.536132812 1127.30078125 315.6796875 1093.87988281 c 1,2,3
 354.374023438 1051.66796875 354.374023438 1051.66796875 340.2265625 982.342773438 c 0,4,5
 332.48046875 949.201171875 332.48046875 949.201171875 314.040039062 929.879882812 c 0,6,7
 291.215820312 908.528320312 291.215820312 908.528320312 248.440429688 902 c 1,8,9
 185.095703125 896.590820312 185.095703125 896.590820312 150.040039062 929.879882812 c 1,10,11
 110.219726562 971.431640625 110.219726562 971.431640625 123.447265625 1041.41699219 c 0,12,13
 130.642578125 1074.46484375 130.642578125 1074.46484375 148.400390625 1093.87988281 c 1,14,15
 170.866210938 1114.95800781 170.866210938 1114.95800781 212.360351562 1121.75976562 c 1,0,1
522.3203125 1121.75976562 m 1,16,17
 590.49609375 1127.30078125 590.49609375 1127.30078125 625.639648438 1093.87988281 c 1,18,19
 664.90234375 1052.91015625 664.90234375 1052.91015625 649.833007812 982.342773438 c 0,20,21
 641.875976562 949.387695312 641.875976562 949.387695312 624 929.879882812 c 1,22,23
 601.17578125 908.528320312 601.17578125 908.528320312 558.400390625 902 c 1,24,25
 495.055664062 896.590820312 495.055664062 896.590820312 460 929.879882812 c 1,26,27
 419.796875 971.831054688 419.796875 971.831054688 434.98046875 1042.48339844 c 0,28,29
 442.708007812 1074.26367188 442.708007812 1074.26367188 460 1093.87988281 c 0,30,31
 480.338867188 1114.8671875 480.338867188 1114.8671875 522.3203125 1121.75976562 c 1,16,17
263.200195312 742.919921875 m 1,32,-1
 481.3203125 742.919921875 l 1,33,-1
 481.3203125 259.120117188 l 2,34,35
 480.041015625 101.6328125 480.041015625 101.6328125 423.919921875 52.48046875 c 1,36,37
 359.30078125 -1.4794921875 359.30078125 -1.4794921875 210.719726562 -1.6396484375 c 2,38,-1
 -73 -1.6396484375 l 1,39,-1
 -73 213.200195312 l 1,40,-1
 97.560546875 213.200195312 l 2,41,42
 169.201171875 213.973632812 169.201171875 213.973632812 189.400390625 224.6796875 c 0,43,44
 202.252929688 232.932617188 202.252929688 232.932617188 217.280273438 250.919921875 c 1,45,-1
 241.879882812 275.51953125 l 1,46,47
 263.291015625 307.70703125 263.291015625 307.70703125 263.200195312 391.959960938 c 2,48,-1
 263.200195312 742.919921875 l 1,32,-1
EndSplineSet
EndChar

StartChar: uniFE98
Encoding: 65176 65176 360
Width: 645
VWidth: 1639
GlyphClass: 2
Flags: HW
AnchorPoint: "GposMark2BaseAnchorClassErabAbove_01_02" 301.74 1277.3 basechar 0
AnchorPoint: "GposMark2BaseAnchorClassErabBelow_01_02" 301.74 -152.849 basechar 0
LayerCount: 2
Fore
SplineSet
212.360351562 1121.75976562 m 1,0,1
 280.536132812 1127.30078125 280.536132812 1127.30078125 315.6796875 1093.87988281 c 1,2,3
 354.374023438 1051.66796875 354.374023438 1051.66796875 340.2265625 982.342773438 c 0,4,5
 332.48046875 949.201171875 332.48046875 949.201171875 314.040039062 929.879882812 c 0,6,7
 291.215820312 908.528320312 291.215820312 908.528320312 248.440429688 902 c 1,8,9
 185.095703125 896.590820312 185.095703125 896.590820312 150.040039062 929.879882812 c 1,10,11
 110.219726562 971.431640625 110.219726562 971.431640625 123.447265625 1041.41699219 c 0,12,13
 130.642578125 1074.46484375 130.642578125 1074.46484375 148.400390625 1093.87988281 c 1,14,15
 170.866210938 1114.95800781 170.866210938 1114.95800781 212.360351562 1121.75976562 c 1,0,1
522.3203125 1121.75976562 m 1,16,17
 590.49609375 1127.30078125 590.49609375 1127.30078125 625.639648438 1093.87988281 c 1,18,19
 664.90234375 1052.91015625 664.90234375 1052.91015625 649.833007812 982.342773438 c 0,20,21
 641.875976562 949.387695312 641.875976562 949.387695312 624 929.879882812 c 1,22,23
 601.17578125 908.528320312 601.17578125 908.528320312 558.400390625 902 c 1,24,25
 495.055664062 896.590820312 495.055664062 896.590820312 460 929.879882812 c 1,26,27
 419.796875 971.831054688 419.796875 971.831054688 434.98046875 1042.48339844 c 0,28,29
 442.708007812 1074.26367188 442.708007812 1074.26367188 460 1093.87988281 c 0,30,31
 480.338867188 1114.8671875 480.338867188 1114.8671875 522.3203125 1121.75976562 c 1,16,17
263.200195312 742.919921875 m 1,32,-1
 481.3203125 742.919921875 l 1,33,-1
 481.3203125 239.440429688 l 1,34,-1
 507.560546875 239.440429688 l 1,35,-1
 507.560546875 213.200195312 l 1,36,-1
 676.48046875 213.200195312 l 1,37,-1
 676.48046875 57.400390625 l 1,38,-1
 676.48046875 16.400390625 l 2,39,40
 675.559570312 2.8935546875 675.559570312 2.8935546875 674.83984375 1.6396484375 c 0,41,42
 670.107421875 -2.8486328125 670.107421875 -2.8486328125 628.919921875 -1.6396484375 c 2,43,-1
 491.16015625 -1.6396484375 l 1,44,-1
 -73 -1.6396484375 l 1,45,-1
 -73 213.200195312 l 1,46,-1
 236.959960938 213.200195312 l 1,47,-1
 236.959960938 239.440429688 l 1,48,-1
 263.200195312 239.440429688 l 1,49,-1
 263.200195312 742.919921875 l 1,32,-1
EndSplineSet
EndChar

StartChar: afii57419
Encoding: 1579 1579 361
AltUni2: 00fe99.ffffffff.0
Width: 1521
VWidth: 1639
GlyphClass: 2
Flags: HW
AnchorPoint: "GposMark2BaseAnchorClassErabAbove_01_02" 682.249 1526.86 basechar 0
AnchorPoint: "GposMark2BaseAnchorClassErabBelow_01_02" 682.249 -152.692 basechar 0
LayerCount: 2
Fore
SplineSet
723.2734375 1371.04003906 m 0,0,1
 775.689453125 1376.86425781 775.689453125 1376.86425781 811.033203125 1345.65527344 c 0,2,3
 814.806640625 1341.96679688 814.806640625 1341.96679688 816.75390625 1339.87988281 c 0,4,5
 854.494140625 1294.95117188 854.494140625 1294.95117188 838.337890625 1226.22753906 c 0,6,7
 830.291015625 1195.87792969 830.291015625 1195.87792969 813.474609375 1177.51953125 c 1,8,9
 792.294921875 1157.80078125 792.294921875 1157.80078125 752.79296875 1151.28027344 c 1,10,11
 686.939453125 1145.91992188 686.939453125 1145.91992188 651.11328125 1175.87988281 c 1,12,13
 609.884765625 1213.81054688 609.884765625 1213.81054688 623.306640625 1287.02832031 c 0,14,15
 630.78125 1322.73828125 630.78125 1322.73828125 649.474609375 1343.16015625 c 1,16,17
 674.453125 1364.67480469 674.453125 1364.67480469 723.2734375 1371.04003906 c 0,0,1
564.193359375 1125.04003906 m 0,18,19
 618.91796875 1131.12011719 618.91796875 1131.12011719 654.587890625 1100.08300781 c 0,20,21
 657.8125 1097.01660156 657.8125 1097.01660156 659.314453125 1095.51953125 c 0,22,23
 697.431640625 1053.93554688 697.431640625 1053.93554688 683.130859375 983.982421875 c 0,24,25
 675.443359375 950.930664062 675.443359375 950.930664062 657.673828125 931.51953125 c 1,26,27
 634.248046875 911.688476562 634.248046875 911.688476562 595.353515625 905.280273438 c 1,28,29
 527.111328125 899.750976562 527.111328125 899.750976562 493.673828125 931.51953125 c 0,30,31
 455.34765625 969.845703125 455.34765625 969.845703125 466.681640625 1040.45996094 c 0,32,33
 473.734375 1077.86523438 473.734375 1077.86523438 493.673828125 1097.16015625 c 0,34,35
 518.626953125 1118.69238281 518.626953125 1118.69238281 564.193359375 1125.04003906 c 0,18,19
874.154296875 1125.04003906 m 0,36,37
 933.09375 1131.24414062 933.09375 1131.24414062 967.48828125 1097.51855469 c 0,38,39
 969.30078125 1095.74023438 969.30078125 1095.74023438 970.9140625 1093.87988281 c 0,40,41
 1009.54492188 1047.890625 1009.54492188 1047.890625 992.3125 978.528320312 c 0,42,43
 984.501953125 950.53515625 984.501953125 950.53515625 969.2734375 933.16015625 c 1,44,45
 946.80859375 912.08203125 946.80859375 912.08203125 905.314453125 905.280273438 c 1,46,47
 837.0703125 899.750976562 837.0703125 899.750976562 803.6328125 931.51953125 c 0,48,49
 762.85546875 972.297851562 762.85546875 972.297851562 776.89453125 1043.06542969 c 0,50,51
 784.6640625 1077.29589844 784.6640625 1077.29589844 803.6328125 1097.16015625 c 0,52,53
 826.36328125 1118.40234375 826.36328125 1118.40234375 874.154296875 1125.04003906 c 0,36,37
0.033203125 742.919921875 m 1,54,-1
 219.79296875 742.919921875 l 1,55,-1
 219.79296875 416.559570312 l 2,56,57
 219.79296875 324.887695312 219.79296875 324.887695312 228.498046875 299.359375 c 0,58,59
 235.701171875 280.279296875 235.701171875 280.279296875 246.033203125 267.3203125 c 0,60,61
 272.697265625 233.0390625 272.697265625 233.0390625 293.59375 224.6796875 c 0,62,63
 316.54296875 215.010742188 316.54296875 215.010742188 350.994140625 214.83984375 c 0,64,65
 383.775390625 213.201171875 383.775390625 213.201171875 444.474609375 213.200195312 c 2,66,-1
 913.513671875 213.200195312 l 2,67,68
 981.240234375 213.279296875 981.240234375 213.279296875 1013.55273438 214.83984375 c 0,69,70
 1061.66015625 219.212890625 1061.66015625 219.212890625 1069.31445312 223.040039062 c 0,71,72
 1097.56835938 239.430664062 1097.56835938 239.430664062 1120.15429688 270.599609375 c 0,73,74
 1146.75585938 304.202148438 1146.75585938 304.202148438 1144.97070312 398.458007812 c 0,75,76
 1144.77148438 410.440429688 1144.77148438 410.440429688 1144.75390625 416.559570312 c 2,77,-1
 1144.75390625 742.919921875 l 1,78,-1
 1364.51367188 742.919921875 l 1,79,-1
 1364.51367188 296.83984375 l 2,80,81
 1364.51367188 156.168945312 1364.51367188 156.168945312 1336.8359375 98.171875 c 0,82,83
 1325.75976562 76.0546875 1325.75976562 76.0546875 1312.03320312 59.0400390625 c 0,84,85
 1290.76953125 33.125 1290.76953125 33.125 1238.234375 16.400390625 c 1,86,87
 1167.3515625 -2.6923828125 1167.3515625 -2.6923828125 1031.59375 -1.6396484375 c 2,88,-1
 328.033203125 -1.6396484375 l 2,89,90
 193.67578125 -1.6396484375 193.67578125 -1.6396484375 149.791015625 9.1865234375 c 0,91,92
 131.58203125 13.904296875 131.58203125 13.904296875 116.474609375 19.6796875 c 0,93,94
 68.478515625 39.0673828125 68.478515625 39.0673828125 52.513671875 57.400390625 c 0,95,96
 0.609375 116.938476562 0.609375 116.938476562 0.015625 255.681640625 c 0,97,98
 -0.015625 263.127929688 -0.015625 263.127929688 0.015625 277.83984375 c 0,99,100
 0.03125 286.698242188 0.03125 286.698242188 0.033203125 290.280273438 c 2,101,-1
 0.033203125 742.919921875 l 1,54,-1
EndSplineSet
AlternateSubs2: "gsub_alternate_dfl_aalt_arab_FAR_Lookup_01_Subtable_01" uniFE9A uniFE9B afii57419 uniFE9C
Substitution2: "gsub_single_rtl_fina_arab_FAR_Lookup_01_Subtable_01" uniFE9A
Substitution2: "gsub_single_rtl_init_arab_FAR_Lookup_01_Subtable_01" uniFE9B
Substitution2: "gsub_single_rtl_medi_arab_FAR_Lookup_01_Subtable_01" uniFE9C
EndChar

StartChar: uniFE9A
Encoding: 65178 65178 362
Width: 1524
VWidth: 1639
GlyphClass: 2
Flags: HW
AnchorPoint: "GposMark2BaseAnchorClassErabAbove_01_02" 777.37 1521.66 basechar 0
AnchorPoint: "GposMark2BaseAnchorClassErabBelow_01_02" 777.37 -156.476 basechar 0
LayerCount: 2
Fore
SplineSet
711.793945312 1366.12011719 m 1,0,1
 779.969726562 1371.66113281 779.969726562 1371.66113281 815.114257812 1338.24023438 c 1,2,3
 853.380859375 1296.49414062 853.380859375 1296.49414062 839.16796875 1226.71972656 c 0,4,5
 831.802734375 1194.93066406 831.802734375 1194.93066406 815.114257812 1175.87988281 c 1,6,7
 792.532226562 1154.66015625 792.532226562 1154.66015625 756.07421875 1148 c 1,8,9
 686.051757812 1139.36816406 686.051757812 1139.36816406 649.474609375 1174.24023438 c 1,10,11
 609.583007812 1215.86523438 609.583007812 1215.86523438 623.9609375 1286.84277344 c 0,12,13
 630.34765625 1318.36816406 630.34765625 1318.36816406 647.833984375 1338.24023438 c 1,14,15
 670.299804688 1359.31835938 670.299804688 1359.31835938 711.793945312 1366.12011719 c 1,0,1
552.713867188 1120.12011719 m 1,16,17
 623.208007812 1128.82910156 623.208007812 1128.82910156 659.314453125 1092.24023438 c 1,18,19
 698.072265625 1048.19726562 698.072265625 1048.19726562 682.752929688 978.548828125 c 0,20,21
 674.904296875 947.053710938 674.904296875 947.053710938 657.673828125 928.240234375 c 1,22,23
 633.711914062 908.149414062 633.711914062 908.149414062 600.274414062 902 c 1,24,25
 528.34765625 893.1484375 528.34765625 893.1484375 492.034179688 929.879882812 c 1,26,27
 453.170898438 972.276367188 453.170898438 972.276367188 467.251953125 1041.40039062 c 0,28,29
 474.6875 1073.28125 474.6875 1073.28125 492.034179688 1092.24023438 c 1,30,31
 514.991210938 1113.74121094 514.991210938 1113.74121094 552.713867188 1120.12011719 c 1,16,17
862.673828125 1120.12011719 m 1,32,33
 933.16796875 1128.82910156 933.16796875 1128.82910156 969.274414062 1092.24023438 c 1,34,35
 1007.54101562 1050.49414062 1007.54101562 1050.49414062 993.327148438 980.719726562 c 0,36,37
 985.961914062 948.930664062 985.961914062 948.930664062 969.274414062 929.879882812 c 1,38,39
 946.692382812 908.66015625 946.692382812 908.66015625 910.234375 902 c 1,40,41
 840.211914062 893.368164062 840.211914062 893.368164062 803.633789062 928.240234375 c 1,42,43
 763.989257812 969.608398438 763.989257812 969.608398438 777.28125 1039.78515625 c 0,44,45
 784.771484375 1074.11132812 784.771484375 1074.11132812 803.633789062 1093.87988281 c 0,46,47
 824.421875 1113.30175781 824.421875 1113.30175781 862.673828125 1120.12011719 c 1,32,33
0.0341796875 742.919921875 m 1,48,-1
 219.793945312 742.919921875 l 1,49,-1
 219.793945312 414.919921875 l 2,50,51
 219.793945312 320.622070312 219.793945312 320.622070312 227.1796875 296.529296875 c 0,52,53
 233.05859375 279.220703125 233.05859375 279.220703125 241.114257812 267.3203125 c 0,54,55
 265.377929688 236.17578125 265.377929688 236.17578125 287.034179688 223.040039062 c 1,56,57
 297.998046875 218.64453125 297.998046875 218.64453125 349.354492188 214.83984375 c 0,58,59
 374.44140625 213.103515625 374.44140625 213.103515625 482.194335938 213.200195312 c 2,60,-1
 1118.51464844 213.200195312 l 1,61,-1
 1118.51464844 239.440429688 l 1,62,-1
 1144.75390625 239.440429688 l 1,63,-1
 1144.75390625 742.919921875 l 1,64,-1
 1364.51464844 742.919921875 l 1,65,-1
 1364.51464844 239.440429688 l 1,66,-1
 1390.75390625 239.440429688 l 1,67,-1
 1390.75390625 213.200195312 l 1,68,-1
 1554.75390625 213.200195312 l 1,69,-1
 1554.75390625 -1.6396484375 l 1,70,-1
 454.314453125 -1.6396484375 l 2,71,72
 429.681640625 -1.6396484375 429.681640625 -1.6396484375 379.354492188 -2.96484375 c 0,73,74
 232.846679688 -6.4755859375 232.846679688 -6.4755859375 164.034179688 6.5595703125 c 0,75,76
 83.6337890625 21.6435546875 83.6337890625 21.6435546875 52.5146484375 57.400390625 c 0,77,78
 0.4912109375 115.543945312 0.4912109375 115.543945312 0.009765625 256.16015625 c 0,79,80
 -0.013671875 262.998046875 -0.013671875 262.998046875 0.0166015625 276.45703125 c 0,81,82
 0.0341796875 284.6171875 0.0341796875 284.6171875 0.0341796875 288.639648438 c 2,83,-1
 0.0341796875 742.919921875 l 1,48,-1
EndSplineSet
EndChar

StartChar: uniFE9B
Encoding: 65179 65179 363
Width: 773
VWidth: 1639
GlyphClass: 2
Flags: HW
AnchorPoint: "GposMark2BaseAnchorClassErabAbove_01_02" 299.472 1526.74 basechar 0
AnchorPoint: "GposMark2BaseAnchorClassErabBelow_01_02" 299.472 -151.64 basechar 0
LayerCount: 2
Fore
SplineSet
381.719726562 1371.04003906 m 1,0,1
 430.190429688 1376.7421875 430.190429688 1376.7421875 466.01171875 1347.08691406 c 0,2,3
 469.891601562 1343.54980469 469.891601562 1343.54980469 471.919921875 1341.51953125 c 0,4,5
 510.321289062 1299.62792969 510.321289062 1299.62792969 496.9375 1229.98242188 c 0,6,7
 489.6328125 1196.88476562 489.6328125 1196.88476562 471.919921875 1177.51953125 c 1,8,9
 451.475585938 1158.40820312 451.475585938 1158.40820312 411.240234375 1151.28027344 c 1,10,11
 347.8828125 1143.578125 347.8828125 1143.578125 307.919921875 1177.51953125 c 1,12,13
 268.850585938 1213.33398438 268.850585938 1213.33398438 280.092773438 1284.59472656 c 0,14,15
 286.953125 1322.03125 286.953125 1322.03125 306.280273438 1343.16015625 c 1,16,17
 325.137695312 1360.62011719 325.137695312 1360.62011719 381.719726562 1371.04003906 c 1,0,1
221 1125.04003906 m 1,18,19
 279.090820312 1129.03515625 279.090820312 1129.03515625 314.48046875 1097.16015625 c 1,20,21
 355.950195312 1053.96191406 355.950195312 1053.96191406 340.848632812 983.440429688 c 0,22,23
 332.88671875 950.788085938 332.88671875 950.788085938 314.48046875 931.51953125 c 1,24,25
 291.0546875 911.688476562 291.0546875 911.688476562 252.16015625 905.280273438 c 1,26,27
 185.740234375 899.94140625 185.740234375 899.94140625 150.48046875 931.51953125 c 1,28,29
 111.401367188 972.297851562 111.401367188 972.297851562 124.85546875 1043.06542969 c 0,30,31
 132.299804688 1077.29589844 132.299804688 1077.29589844 150.48046875 1097.16015625 c 1,32,33
 173.208984375 1118.40234375 173.208984375 1118.40234375 221 1125.04003906 c 1,18,19
530.959960938 1125.04003906 m 0,34,35
 585.841796875 1131.13769531 585.841796875 1131.13769531 620.432617188 1101.16503906 c 0,36,37
 624.177734375 1097.54394531 624.177734375 1097.54394531 626.080078125 1095.51953125 c 0,38,39
 664.943359375 1053.12402344 664.943359375 1053.12402344 650.862304688 984 c 0,40,41
 643.426757812 952.119140625 643.426757812 952.119140625 626.080078125 933.16015625 c 0,42,43
 605.741210938 912.172851562 605.741210938 912.172851562 563.759765625 905.280273438 c 1,44,45
 495.922851562 899.779296875 495.922851562 899.779296875 460.440429688 931.51953125 c 1,46,47
 421.361328125 972.297851562 421.361328125 972.297851562 434.815429688 1043.06542969 c 0,48,49
 442.259765625 1077.29589844 442.259765625 1077.29589844 460.440429688 1097.16015625 c 1,50,51
 483.168945312 1118.40234375 483.168945312 1118.40234375 530.959960938 1125.04003906 c 0,34,35
270.200195312 742.919921875 m 1,52,-1
 488.3203125 742.919921875 l 1,53,-1
 488.3203125 259.120117188 l 2,54,55
 487.041015625 101.6328125 487.041015625 101.6328125 430.919921875 52.48046875 c 1,56,57
 366.30078125 -1.4794921875 366.30078125 -1.4794921875 217.719726562 -1.6396484375 c 2,58,-1
 -66 -1.6396484375 l 1,59,-1
 -66 213.200195312 l 1,60,-1
 104.560546875 213.200195312 l 2,61,62
 176.201171875 213.973632812 176.201171875 213.973632812 196.400390625 224.6796875 c 0,63,64
 209.252929688 232.932617188 209.252929688 232.932617188 224.280273438 250.919921875 c 1,65,-1
 248.879882812 275.51953125 l 1,66,67
 270.291015625 307.70703125 270.291015625 307.70703125 270.200195312 391.959960938 c 2,68,-1
 270.200195312 742.919921875 l 1,52,-1
EndSplineSet
EndChar

StartChar: uniFE9C
Encoding: 65180 65180 364
Width: 652
VWidth: 1639
GlyphClass: 2
Flags: HW
AnchorPoint: "GposMark2BaseAnchorClassErabAbove_01_02" 308.74 1526.74 basechar 0
AnchorPoint: "GposMark2BaseAnchorClassErabBelow_01_02" 308.74 -152.849 basechar 0
LayerCount: 2
Fore
SplineSet
381.719726562 1371.04003906 m 1,0,1
 430.190429688 1376.7421875 430.190429688 1376.7421875 466.01171875 1347.08691406 c 0,2,3
 469.891601562 1343.54980469 469.891601562 1343.54980469 471.919921875 1341.51953125 c 0,4,5
 510.321289062 1299.62792969 510.321289062 1299.62792969 496.9375 1229.98242188 c 0,6,7
 489.6328125 1196.88476562 489.6328125 1196.88476562 471.919921875 1177.51953125 c 1,8,9
 451.475585938 1158.40820312 451.475585938 1158.40820312 411.240234375 1151.28027344 c 1,10,11
 347.8828125 1143.578125 347.8828125 1143.578125 307.919921875 1177.51953125 c 1,12,13
 268.850585938 1213.33398438 268.850585938 1213.33398438 280.092773438 1284.59472656 c 0,14,15
 286.953125 1322.03125 286.953125 1322.03125 306.280273438 1343.16015625 c 1,16,17
 325.137695312 1360.62011719 325.137695312 1360.62011719 381.719726562 1371.04003906 c 1,0,1
221 1125.04003906 m 1,18,19
 279.090820312 1129.03515625 279.090820312 1129.03515625 314.48046875 1097.16015625 c 1,20,21
 355.950195312 1053.96191406 355.950195312 1053.96191406 340.848632812 983.440429688 c 0,22,23
 332.88671875 950.788085938 332.88671875 950.788085938 314.48046875 931.51953125 c 1,24,25
 291.0546875 911.688476562 291.0546875 911.688476562 252.16015625 905.280273438 c 1,26,27
 185.740234375 899.94140625 185.740234375 899.94140625 150.48046875 931.51953125 c 1,28,29
 111.401367188 972.297851562 111.401367188 972.297851562 124.85546875 1043.06542969 c 0,30,31
 132.299804688 1077.29589844 132.299804688 1077.29589844 150.48046875 1097.16015625 c 1,32,33
 173.208984375 1118.40234375 173.208984375 1118.40234375 221 1125.04003906 c 1,18,19
530.959960938 1125.04003906 m 0,34,35
 585.841796875 1131.13769531 585.841796875 1131.13769531 620.432617188 1101.16503906 c 0,36,37
 624.177734375 1097.54394531 624.177734375 1097.54394531 626.080078125 1095.51953125 c 0,38,39
 664.943359375 1053.12402344 664.943359375 1053.12402344 650.862304688 984 c 0,40,41
 643.426757812 952.119140625 643.426757812 952.119140625 626.080078125 933.16015625 c 0,42,43
 605.741210938 912.172851562 605.741210938 912.172851562 563.759765625 905.280273438 c 1,44,45
 495.922851562 899.779296875 495.922851562 899.779296875 460.440429688 931.51953125 c 1,46,47
 421.361328125 972.297851562 421.361328125 972.297851562 434.815429688 1043.06542969 c 0,48,49
 442.259765625 1077.29589844 442.259765625 1077.29589844 460.440429688 1097.16015625 c 1,50,51
 483.168945312 1118.40234375 483.168945312 1118.40234375 530.959960938 1125.04003906 c 0,34,35
270.200195312 742.919921875 m 1,52,-1
 488.3203125 742.919921875 l 1,53,-1
 488.3203125 239.440429688 l 1,54,-1
 514.560546875 239.440429688 l 1,55,-1
 514.560546875 213.200195312 l 1,56,-1
 683.48046875 213.200195312 l 1,57,-1
 683.48046875 57.400390625 l 1,58,-1
 683.48046875 16.400390625 l 2,59,60
 682.559570312 2.8935546875 682.559570312 2.8935546875 681.83984375 1.6396484375 c 0,61,62
 677.107421875 -2.8486328125 677.107421875 -2.8486328125 635.919921875 -1.6396484375 c 2,63,-1
 498.16015625 -1.6396484375 l 1,64,-1
 -66 -1.6396484375 l 1,65,-1
 -66 213.200195312 l 1,66,-1
 243.959960938 213.200195312 l 1,67,-1
 243.959960938 239.440429688 l 1,68,-1
 270.200195312 239.440429688 l 1,69,-1
 270.200195312 742.919921875 l 1,52,-1
EndSplineSet
EndChar

StartChar: afii57420
Encoding: 1580 1580 365
AltUni2: 00fe9d.ffffffff.0
Width: 953
VWidth: 1639
GlyphClass: 2
Flags: HW
AnchorPoint: "GposMark2BaseAnchorClassErabAbove_01_02" 470.335 894.56 basechar 0
AnchorPoint: "GposMark2BaseAnchorClassErabBelow_01_02" 470.335 -963.44 basechar 0
LayerCount: 2
Fore
SplineSet
138.405273438 744.559570312 m 1,0,-1
 692.725585938 744.559570312 l 2,1,2
 808.526367188 744.559570312 808.526367188 744.559570312 840.775390625 736.899414062 c 0,3,4
 851.466796875 734.2109375 851.466796875 734.2109375 860.004882812 731.440429688 c 0,5,6
 898.564453125 716.733398438 898.564453125 716.733398438 914.125 703.559570312 c 1,7,8
 954.831054688 660.046875 954.831054688 660.046875 952.392578125 534.412109375 c 0,9,10
 951.844726562 506.177734375 951.844726562 506.177734375 951.844726562 498.559570312 c 2,11,-1
 951.844726562 -1.6396484375 l 1,12,-1
 641.884765625 -1.6396484375 l 2,13,14
 520.963867188 -1.6396484375 520.963867188 -1.6396484375 491.818359375 -7.236328125 c 0,15,16
 467.892578125 -12.150390625 467.892578125 -12.150390625 448.365234375 -19.6796875 c 0,17,18
 392.517578125 -42.115234375 392.517578125 -42.115234375 341.765625 -95.1201171875 c 0,19,20
 281.890625 -158.990234375 281.890625 -158.990234375 261.405273438 -209.919921875 c 1,21,22
 214.155273438 -340.64453125 214.155273438 -340.64453125 305.421875 -466.204101562 c 0,23,24
 348.778320312 -524.374023438 348.778320312 -524.374023438 409.004882812 -560.879882812 c 1,25,26
 472.677734375 -597.264648438 472.677734375 -597.264648438 603.620117188 -597.020507812 c 0,27,28
 607.037109375 -597.014648438 607.037109375 -597.014648438 613.884765625 -596.993164062 c 0,29,30
 625.438476562 -596.962890625 625.438476562 -596.962890625 630.405273438 -596.959960938 c 2,31,-1
 951.844726562 -596.959960938 l 1,32,-1
 951.844726562 -813.440429688 l 1,33,-1
 641.884765625 -813.440429688 l 2,34,35
 474.399414062 -813.440429688 474.399414062 -813.440429688 443.171875 -809.77734375 c 0,36,37
 431.610351562 -808.356445312 431.610351562 -808.356445312 422.125 -806.879882812 c 0,38,39
 281.08984375 -784.014648438 281.08984375 -784.014648438 166.28515625 -685.51953125 c 0,40,41
 18.3603515625 -555.958984375 18.3603515625 -555.958984375 1.9287109375 -341.595703125 c 0,42,43
 -14.16015625 -131.692382812 -14.16015625 -131.692382812 103.979492188 24.1826171875 c 0,44,45
 151.251953125 85.3037109375 151.251953125 85.3037109375 212.205078125 126.280273438 c 0,46,47
 337.720703125 208.5625 337.720703125 208.5625 557.60546875 213.015625 c 0,48,49
 570.697265625 213.247070312 570.697265625 213.247070312 696.004882812 213.200195312 c 1,50,-1
 696.004882812 239.440429688 l 1,51,-1
 722.245117188 239.440429688 l 1,52,-1
 722.245117188 360.799804688 l 2,53,54
 721.358398438 430.01171875 721.358398438 430.01171875 704.205078125 459.200195312 c 0,55,56
 695.952148438 472.052734375 695.952148438 472.052734375 677.96484375 487.080078125 c 1,57,58
 649.557617188 514.616210938 649.557617188 514.616210938 643.525390625 518.240234375 c 0,59,60
 603.271484375 533.251953125 603.271484375 533.251953125 515.60546875 531.360351562 c 1,61,-1
 138.405273438 531.360351562 l 1,62,-1
 138.405273438 744.559570312 l 1,0,-1
641.884765625 -195.16015625 m 1,63,64
 712.55859375 -189.438476562 712.55859375 -189.438476562 745.205078125 -224.6796875 c 1,65,66
 783.252929688 -269.974609375 783.252929688 -269.974609375 768.026367188 -338.33203125 c 0,67,68
 760.329101562 -368.72265625 760.329101562 -368.72265625 743.565429688 -387.040039062 c 1,69,70
 722.77734375 -406.461914062 722.77734375 -406.461914062 684.525390625 -413.280273438 c 1,71,72
 614.502929688 -421.912109375 614.502929688 -421.912109375 577.924804688 -387.040039062 c 1,73,74
 538.38671875 -345.782226562 538.38671875 -345.782226562 552.532226562 -275.502929688 c 0,75,76
 560.108398438 -242.500976562 560.108398438 -242.500976562 577.924804688 -223.040039062 c 1,77,78
 600.390625 -201.961914062 600.390625 -201.961914062 641.884765625 -195.16015625 c 1,63,64
EndSplineSet
AlternateSubs2: "gsub_alternate_dfl_aalt_arab_FAR_Lookup_01_Subtable_01" uniFE9E uniFE9F afii57420 uniFEA0
Substitution2: "gsub_single_rtl_fina_arab_FAR_Lookup_01_Subtable_01" uniFE9E
Substitution2: "gsub_single_rtl_init_arab_FAR_Lookup_01_Subtable_01" uniFE9F
Substitution2: "gsub_single_rtl_medi_arab_FAR_Lookup_01_Subtable_01" uniFEA0
PairPos2: "gpos_pair_dfl_kern_arab_FAR_Lookup_01_Subtable_01" tcheharabic dx=0 dy=0 dh=0 dv=0 dx=0 dy=0 dh=0 dv=0
EndChar

StartChar: uniFE9E
Encoding: 65182 65182 366
Width: 983
VWidth: 1639
GlyphClass: 2
Flags: HW
AnchorPoint: "GposMark2BaseAnchorClassErabAbove_01_02" 563.156 894.56 basechar 0
AnchorPoint: "GposMark2BaseAnchorClassErabBelow_01_02" 563.156 -963.44 basechar 0
LayerCount: 2
Fore
SplineSet
138.401367188 744.559570312 m 1,0,-1
 704.201171875 744.559570312 l 2,1,2
 818.4921875 744.559570312 818.4921875 744.559570312 860.18359375 730.434570312 c 0,3,4
 864.208984375 729.01953125 864.208984375 729.01953125 866.560546875 728.16015625 c 0,5,6
 902.96875 713.893554688 902.96875 713.893554688 915.760742188 698.639648438 c 1,7,8
 950.33203125 646.37109375 950.33203125 646.37109375 950.201171875 536.280273438 c 2,9,-1
 950.201171875 239.440429688 l 1,10,-1
 976.440429688 239.440429688 l 1,11,-1
 976.440429688 213.200195312 l 1,12,-1
 1142.08105469 213.200195312 l 1,13,-1
 1142.08105469 -1.6396484375 l 1,14,-1
 673.041015625 -1.6396484375 l 2,15,16
 533.586914062 -1.6396484375 533.586914062 -1.6396484375 521.010742188 -2.9423828125 c 0,17,18
 460.279296875 -9.904296875 460.279296875 -9.904296875 417.201171875 -32.7998046875 c 0,19,20
 302.844726562 -94.4921875 302.844726562 -94.4921875 261.49609375 -213.763671875 c 0,21,22
 231.107421875 -304.793945312 231.107421875 -304.793945312 261.401367188 -388.6796875 c 0,23,24
 282.737304688 -445.77734375 282.737304688 -445.77734375 340.12109375 -503.48046875 c 0,25,26
 386.799804688 -549.271484375 386.799804688 -549.271484375 420.48046875 -567.440429688 c 0,27,28
 480.600585938 -597.5 480.600585938 -597.5 610.049804688 -597.0078125 c 0,29,30
 622.750976562 -596.959960938 622.750976562 -596.959960938 628.760742188 -596.959960938 c 2,31,-1
 927.241210938 -596.959960938 l 1,32,-1
 927.241210938 -813.440429688 l 1,33,-1
 633.680664062 -813.440429688 l 2,34,35
 471.581054688 -813.2421875 471.581054688 -813.2421875 431.9609375 -808.51953125 c 0,36,37
 287.446289062 -787.940429688 287.446289062 -787.940429688 171.201171875 -690.440429688 c 1,38,39
 20.9560546875 -560.63671875 20.9560546875 -560.63671875 2.423828125 -345.973632812 c 0,40,41
 -15.76953125 -135.23046875 -15.76953125 -135.23046875 102.586914062 21.958984375 c 0,42,43
 149.622070312 83.171875 149.622070312 83.171875 210.560546875 124.639648438 c 0,44,45
 335.833984375 208.155273438 335.833984375 208.155273438 554.266601562 212.9453125 c 0,46,47
 569.680664062 213.24609375 569.680664062 213.24609375 694.361328125 213.200195312 c 1,48,-1
 694.361328125 239.440429688 l 1,49,-1
 720.600585938 239.440429688 l 1,50,-1
 720.600585938 364.080078125 l 2,51,52
 719.685546875 432.78125 719.685546875 432.78125 704.201171875 459.200195312 c 0,53,54
 696.000976562 470.6796875 696.000976562 470.6796875 679.513671875 484.147460938 c 2,55,-1
 677.9609375 485.440429688 l 1,56,57
 658.26953125 507.3515625 658.26953125 507.3515625 646.80078125 514.959960938 c 1,58,59
 600.23828125 533.302734375 600.23828125 533.302734375 512.321289062 531.360351562 c 1,60,-1
 138.401367188 531.360351562 l 1,61,-1
 138.401367188 744.559570312 l 1,0,-1
643.520507812 -195.16015625 m 1,62,63
 714.194335938 -189.438476562 714.194335938 -189.438476562 746.840820312 -224.6796875 c 1,64,65
 784.888671875 -269.974609375 784.888671875 -269.974609375 769.662109375 -338.33203125 c 0,66,67
 761.96484375 -368.72265625 761.96484375 -368.72265625 745.201171875 -387.040039062 c 1,68,69
 724.413085938 -406.461914062 724.413085938 -406.461914062 686.161132812 -413.280273438 c 1,70,71
 616.138671875 -421.912109375 616.138671875 -421.912109375 579.560546875 -387.040039062 c 1,72,73
 540.022460938 -345.782226562 540.022460938 -345.782226562 554.16796875 -275.502929688 c 0,74,75
 561.744140625 -242.500976562 561.744140625 -242.500976562 579.560546875 -223.040039062 c 1,76,77
 602.026367188 -201.961914062 602.026367188 -201.961914062 643.520507812 -195.16015625 c 1,62,63
EndSplineSet
PairPos2: "gpos_pair_dfl_kern_arab_FAR_Lookup_01_Subtable_01" tcheharabic dx=0 dy=0 dh=0 dv=0 dx=0 dy=0 dh=0 dv=0
EndChar

StartChar: uniFE9F
Encoding: 65183 65183 367
Width: 1225
VWidth: 1639
GlyphClass: 2
Flags: HW
AnchorPoint: "GposMark2BaseAnchorClassErabAbove_01_02" 519.674 894.56 basechar 0
AnchorPoint: "GposMark2BaseAnchorClassErabBelow_01_02" 519.674 -571.912 basechar 0
LayerCount: 2
Fore
SplineSet
251.719726562 744.559570312 m 1,0,-1
 809.3203125 744.559570312 l 2,1,2
 925.12109375 744.559570312 925.12109375 744.559570312 957.37109375 736.899414062 c 0,3,4
 968.061523438 734.2109375 968.061523438 734.2109375 976.599609375 731.440429688 c 0,5,6
 1015.15722656 716.659179688 1015.15722656 716.659179688 1029.08007812 703.559570312 c 0,7,8
 1071.34863281 659.881835938 1071.34863281 659.881835938 1068.97363281 532.606445312 c 0,9,10
 1068.44042969 504.032226562 1068.44042969 504.032226562 1068.44042969 496.919921875 c 2,11,-1
 1068.44042969 -1.6396484375 l 1,12,-1
 255 -1.6396484375 l 1,13,-1
 45.080078125 -1.6396484375 l 1,14,-1
 -9.0400390625 -1.6396484375 l 1,15,-1
 -28.7197265625 0 l 1,16,-1
 -32 14.759765625 l 1,17,-1
 -32 52.48046875 l 1,18,-1
 -32 213.200195312 l 1,19,-1
 809.3203125 213.200195312 l 1,20,-1
 809.3203125 239.440429688 l 1,21,-1
 835.560546875 239.440429688 l 1,22,-1
 835.560546875 364.080078125 l 2,23,24
 834.7265625 430.079101562 834.7265625 430.079101562 819.16015625 459.200195312 c 1,25,26
 810.959960938 470.6796875 810.959960938 470.6796875 794.473632812 484.147460938 c 2,27,-1
 792.919921875 485.440429688 l 1,28,29
 773.228515625 507.3515625 773.228515625 507.3515625 761.759765625 514.959960938 c 1,30,31
 715.198242188 533.302734375 715.198242188 533.302734375 627.280273438 531.360351562 c 1,32,-1
 251.719726562 531.360351562 l 1,33,-1
 251.719726562 744.559570312 l 1,0,-1
653.520507812 -195.16015625 m 1,34,35
 724.194335938 -189.438476562 724.194335938 -189.438476562 756.83984375 -224.6796875 c 1,36,37
 795.034179688 -270.149414062 795.034179688 -270.149414062 779.912109375 -338.284179688 c 0,38,39
 772.549804688 -367.4609375 772.549804688 -367.4609375 756.83984375 -385.400390625 c 1,40,41
 734.608398438 -406.302734375 734.608398438 -406.302734375 696.16015625 -413.280273438 c 1,42,43
 626.137695312 -421.912109375 626.137695312 -421.912109375 589.560546875 -387.040039062 c 1,44,45
 551.159179688 -345.147460938 551.159179688 -345.147460938 564.541992188 -275.502929688 c 0,46,47
 571.84765625 -242.405273438 571.84765625 -242.405273438 589.560546875 -223.040039062 c 1,48,49
 612.026367188 -201.961914062 612.026367188 -201.961914062 653.520507812 -195.16015625 c 1,34,35
EndSplineSet
EndChar

StartChar: uniFEA0
Encoding: 65184 65184 368
Width: 1221
VWidth: 1639
GlyphClass: 2
Flags: HW
AnchorPoint: "GposMark2BaseAnchorClassErabAbove_01_02" 610.06 892.92 basechar 0
AnchorPoint: "GposMark2BaseAnchorClassErabBelow_01_02" 610.06 -571.912 basechar 0
LayerCount: 2
Fore
SplineSet
251.719726562 742.919921875 m 1,0,-1
 814.240234375 742.919921875 l 2,1,2
 933.366210938 742.919921875 933.366210938 742.919921875 975.31640625 728.73046875 c 0,3,4
 979.256835938 727.346679688 979.256835938 727.346679688 981.520507812 726.51953125 c 0,5,6
 1017.00195312 711.473632812 1017.00195312 711.473632812 1029.08007812 698.639648438 c 1,7,8
 1065.25292969 646.139648438 1065.25292969 646.139648438 1065.16015625 537.919921875 c 2,9,-1
 1065.16015625 239.440429688 l 1,10,-1
 1091.40039062 239.440429688 l 1,11,-1
 1091.40039062 213.200195312 l 1,12,-1
 1252.12011719 213.200195312 l 1,13,-1
 1252.12011719 -1.6396484375 l 1,14,-1
 302.560546875 -1.6396484375 l 1,15,-1
 58.2001953125 -1.6396484375 l 1,16,-1
 -5.759765625 -1.6396484375 l 1,17,-1
 -28.7197265625 0 l 1,18,-1
 -32 14.759765625 l 1,19,-1
 -32 52.48046875 l 1,20,-1
 -32 213.200195312 l 1,21,-1
 809.3203125 213.200195312 l 1,22,-1
 809.3203125 239.440429688 l 1,23,-1
 835.560546875 239.440429688 l 1,24,-1
 835.560546875 362.440429688 l 2,25,26
 834.697265625 426.727539062 834.697265625 426.727539062 819.16015625 454.280273438 c 0,27,28
 812.708007812 464.328125 812.708007812 464.328125 792.919921875 483.799804688 c 0,29,30
 766.133789062 510.586914062 766.133789062 510.586914062 761.759765625 513.3203125 c 0,31,32
 713.953125 531.647460938 713.953125 531.647460938 627.280273438 529.719726562 c 1,33,-1
 251.719726562 529.719726562 l 1,34,-1
 251.719726562 742.919921875 l 1,0,-1
653.520507812 -195.16015625 m 1,35,36
 724.194335938 -189.438476562 724.194335938 -189.438476562 756.83984375 -224.6796875 c 1,37,38
 795.034179688 -270.149414062 795.034179688 -270.149414062 779.912109375 -338.284179688 c 0,39,40
 772.549804688 -367.4609375 772.549804688 -367.4609375 756.83984375 -385.400390625 c 1,41,42
 734.608398438 -406.302734375 734.608398438 -406.302734375 696.16015625 -413.280273438 c 1,43,44
 626.137695312 -421.912109375 626.137695312 -421.912109375 589.560546875 -387.040039062 c 1,45,46
 551.159179688 -345.147460938 551.159179688 -345.147460938 564.541992188 -275.502929688 c 0,47,48
 571.84765625 -242.405273438 571.84765625 -242.405273438 589.560546875 -223.040039062 c 1,49,50
 612.026367188 -201.961914062 612.026367188 -201.961914062 653.520507812 -195.16015625 c 1,35,36
EndSplineSet
EndChar

StartChar: afii57421
Encoding: 1581 1581 369
AltUni2: 00fea1.ffffffff.0
Width: 953
VWidth: 1639
GlyphClass: 2
Flags: HW
AnchorPoint: "GposMark2BaseAnchorClassErabAbove_01_02" 470.335 894.56 basechar 0
AnchorPoint: "GposMark2BaseAnchorClassErabBelow_01_02" 470.335 -963.44 basechar 0
LayerCount: 2
Fore
SplineSet
138.405273438 744.559570312 m 1,0,-1
 692.725585938 744.559570312 l 2,1,2
 808.526367188 744.559570312 808.526367188 744.559570312 840.775390625 736.899414062 c 0,3,4
 851.466796875 734.2109375 851.466796875 734.2109375 860.004882812 731.440429688 c 0,5,6
 898.564453125 716.733398438 898.564453125 716.733398438 914.125 703.559570312 c 1,7,8
 954.831054688 660.046875 954.831054688 660.046875 952.392578125 534.412109375 c 0,9,10
 951.844726562 506.177734375 951.844726562 506.177734375 951.844726562 498.559570312 c 2,11,-1
 951.844726562 -1.6396484375 l 1,12,-1
 641.884765625 -1.6396484375 l 2,13,14
 520.963867188 -1.6396484375 520.963867188 -1.6396484375 491.818359375 -7.236328125 c 0,15,16
 467.892578125 -12.150390625 467.892578125 -12.150390625 448.365234375 -19.6796875 c 0,17,18
 392.517578125 -42.115234375 392.517578125 -42.115234375 341.765625 -95.1201171875 c 0,19,20
 281.890625 -158.990234375 281.890625 -158.990234375 261.405273438 -209.919921875 c 1,21,22
 214.155273438 -340.64453125 214.155273438 -340.64453125 305.421875 -466.204101562 c 0,23,24
 348.778320312 -524.374023438 348.778320312 -524.374023438 409.004882812 -560.879882812 c 1,25,26
 472.677734375 -597.264648438 472.677734375 -597.264648438 603.620117188 -597.020507812 c 0,27,28
 607.037109375 -597.014648438 607.037109375 -597.014648438 613.884765625 -596.993164062 c 0,29,30
 625.438476562 -596.962890625 625.438476562 -596.962890625 630.405273438 -596.959960938 c 2,31,-1
 951.844726562 -596.959960938 l 1,32,-1
 951.844726562 -813.440429688 l 1,33,-1
 641.884765625 -813.440429688 l 2,34,35
 474.399414062 -813.440429688 474.399414062 -813.440429688 443.171875 -809.77734375 c 0,36,37
 431.610351562 -808.356445312 431.610351562 -808.356445312 422.125 -806.879882812 c 0,38,39
 281.08984375 -784.014648438 281.08984375 -784.014648438 166.28515625 -685.51953125 c 0,40,41
 18.3603515625 -555.958984375 18.3603515625 -555.958984375 1.9287109375 -341.595703125 c 0,42,43
 -14.16015625 -131.692382812 -14.16015625 -131.692382812 103.979492188 24.1826171875 c 0,44,45
 151.251953125 85.3037109375 151.251953125 85.3037109375 212.205078125 126.280273438 c 0,46,47
 337.720703125 208.5625 337.720703125 208.5625 557.60546875 213.015625 c 0,48,49
 570.697265625 213.247070312 570.697265625 213.247070312 696.004882812 213.200195312 c 1,50,-1
 696.004882812 239.440429688 l 1,51,-1
 722.245117188 239.440429688 l 1,52,-1
 722.245117188 360.799804688 l 2,53,54
 721.358398438 430.01171875 721.358398438 430.01171875 704.205078125 459.200195312 c 0,55,56
 695.952148438 472.052734375 695.952148438 472.052734375 677.96484375 487.080078125 c 1,57,58
 649.557617188 514.616210938 649.557617188 514.616210938 643.525390625 518.240234375 c 0,59,60
 603.271484375 533.251953125 603.271484375 533.251953125 515.60546875 531.360351562 c 1,61,-1
 138.405273438 531.360351562 l 1,62,-1
 138.405273438 744.559570312 l 1,0,-1
EndSplineSet
AlternateSubs2: "gsub_alternate_dfl_aalt_arab_FAR_Lookup_01_Subtable_01" uniFEA2 uniFEA3 afii57421 uniFEA4
Substitution2: "gsub_single_rtl_fina_arab_FAR_Lookup_01_Subtable_01" uniFEA2
Substitution2: "gsub_single_rtl_init_arab_FAR_Lookup_01_Subtable_01" uniFEA3
Substitution2: "gsub_single_rtl_medi_arab_FAR_Lookup_01_Subtable_01" uniFEA4
PairPos2: "gpos_pair_dfl_kern_arab_FAR_Lookup_01_Subtable_01" tcheharabic dx=0 dy=0 dh=0 dv=0 dx=0 dy=0 dh=0 dv=0
EndChar

StartChar: uniFEA2
Encoding: 65186 65186 370
Width: 981
VWidth: 1639
GlyphClass: 2
Flags: HW
AnchorPoint: "GposMark2BaseAnchorClassErabAbove_01_02" 562.335 894.56 basechar 0
AnchorPoint: "GposMark2BaseAnchorClassErabBelow_01_02" 562.335 -963.44 basechar 0
LayerCount: 2
Fore
SplineSet
138.401367188 744.559570312 m 1,0,-1
 704.201171875 744.559570312 l 2,1,2
 818.4921875 744.559570312 818.4921875 744.559570312 860.18359375 730.434570312 c 0,3,4
 864.208984375 729.01953125 864.208984375 729.01953125 866.560546875 728.16015625 c 0,5,6
 902.96875 713.893554688 902.96875 713.893554688 915.760742188 698.639648438 c 1,7,8
 950.33203125 646.37109375 950.33203125 646.37109375 950.201171875 536.280273438 c 2,9,-1
 950.201171875 239.440429688 l 1,10,-1
 976.440429688 239.440429688 l 1,11,-1
 976.440429688 213.200195312 l 1,12,-1
 1140.44042969 213.200195312 l 1,13,-1
 1140.44042969 -1.6396484375 l 1,14,-1
 673.041015625 -1.6396484375 l 2,15,16
 533.586914062 -1.6396484375 533.586914062 -1.6396484375 521.010742188 -2.9423828125 c 0,17,18
 460.279296875 -9.904296875 460.279296875 -9.904296875 417.201171875 -32.7998046875 c 0,19,20
 302.844726562 -94.4921875 302.844726562 -94.4921875 261.49609375 -213.763671875 c 0,21,22
 231.107421875 -304.793945312 231.107421875 -304.793945312 261.401367188 -388.6796875 c 0,23,24
 282.737304688 -445.77734375 282.737304688 -445.77734375 340.12109375 -503.48046875 c 0,25,26
 386.799804688 -549.271484375 386.799804688 -549.271484375 420.48046875 -567.440429688 c 0,27,28
 480.600585938 -597.5 480.600585938 -597.5 610.049804688 -597.0078125 c 0,29,30
 622.750976562 -596.959960938 622.750976562 -596.959960938 628.760742188 -596.959960938 c 2,31,-1
 927.241210938 -596.959960938 l 1,32,-1
 927.241210938 -813.440429688 l 1,33,-1
 633.680664062 -813.440429688 l 2,34,35
 471.581054688 -813.2421875 471.581054688 -813.2421875 431.9609375 -808.51953125 c 0,36,37
 287.446289062 -787.940429688 287.446289062 -787.940429688 171.201171875 -690.440429688 c 1,38,39
 20.9560546875 -560.63671875 20.9560546875 -560.63671875 2.423828125 -345.973632812 c 0,40,41
 -15.76953125 -135.23046875 -15.76953125 -135.23046875 102.586914062 21.958984375 c 0,42,43
 149.622070312 83.171875 149.622070312 83.171875 210.560546875 124.639648438 c 0,44,45
 335.833984375 208.155273438 335.833984375 208.155273438 554.266601562 212.9453125 c 0,46,47
 569.680664062 213.24609375 569.680664062 213.24609375 694.361328125 213.200195312 c 1,48,-1
 694.361328125 239.440429688 l 1,49,-1
 720.600585938 239.440429688 l 1,50,-1
 720.600585938 364.080078125 l 2,51,52
 719.685546875 432.78125 719.685546875 432.78125 704.201171875 459.200195312 c 0,53,54
 696.000976562 470.6796875 696.000976562 470.6796875 679.513671875 484.147460938 c 2,55,-1
 677.9609375 485.440429688 l 1,56,57
 658.26953125 507.3515625 658.26953125 507.3515625 646.80078125 514.959960938 c 1,58,59
 600.23828125 533.302734375 600.23828125 533.302734375 512.321289062 531.360351562 c 1,60,-1
 138.401367188 531.360351562 l 1,61,-1
 138.401367188 744.559570312 l 1,0,-1
EndSplineSet
PairPos2: "gpos_pair_dfl_kern_arab_FAR_Lookup_01_Subtable_01" tcheharabic dx=0 dy=0 dh=0 dv=0 dx=0 dy=0 dh=0 dv=0
EndChar

StartChar: uniFEA3
Encoding: 65187 65187 371
Width: 1225
VWidth: 1639
GlyphClass: 2
Flags: HW
AnchorPoint: "GposMark2BaseAnchorClassErabAbove_01_02" 519.674 894.56 basechar 0
AnchorPoint: "GposMark2BaseAnchorClassErabBelow_01_02" 519.674 -151.64 basechar 0
LayerCount: 2
Fore
SplineSet
251.719726562 744.559570312 m 1,0,-1
 807.6796875 744.559570312 l 2,1,2
 923.481445312 744.559570312 923.481445312 744.559570312 955.73046875 736.899414062 c 0,3,4
 966.421875 734.2109375 966.421875 734.2109375 974.959960938 731.440429688 c 0,5,6
 1016.03710938 715.766601562 1016.03710938 715.766601562 1029.08007812 703.559570312 c 0,7,8
 1071.34863281 659.881835938 1071.34863281 659.881835938 1068.97363281 532.606445312 c 0,9,10
 1068.44042969 504.032226562 1068.44042969 504.032226562 1068.44042969 496.919921875 c 2,11,-1
 1068.44042969 -1.6396484375 l 1,12,-1
 255 -1.6396484375 l 1,13,-1
 45.080078125 -1.6396484375 l 1,14,-1
 -9.0400390625 -1.6396484375 l 1,15,-1
 -28.7197265625 0 l 1,16,-1
 -32 14.759765625 l 1,17,-1
 -32 52.48046875 l 1,18,-1
 -32 213.200195312 l 1,19,-1
 809.3203125 213.200195312 l 1,20,-1
 809.3203125 239.440429688 l 1,21,-1
 835.560546875 239.440429688 l 1,22,-1
 835.560546875 364.080078125 l 2,23,24
 834.7265625 430.079101562 834.7265625 430.079101562 819.16015625 459.200195312 c 1,25,26
 810.959960938 470.6796875 810.959960938 470.6796875 794.473632812 484.147460938 c 2,27,-1
 792.919921875 485.440429688 l 1,28,29
 773.228515625 507.3515625 773.228515625 507.3515625 761.759765625 514.959960938 c 1,30,31
 715.198242188 533.302734375 715.198242188 533.302734375 627.280273438 531.360351562 c 1,32,-1
 251.719726562 531.360351562 l 1,33,-1
 251.719726562 744.559570312 l 1,0,-1
EndSplineSet
EndChar

StartChar: uniFEA4
Encoding: 65188 65188 372
Width: 1223
VWidth: 1639
GlyphClass: 2
Flags: HW
AnchorPoint: "GposMark2BaseAnchorClassErabAbove_01_02" 610.88 892.92 basechar 0
AnchorPoint: "GposMark2BaseAnchorClassErabBelow_01_02" 610.88 -151.64 basechar 0
LayerCount: 2
Fore
SplineSet
251.719726562 742.919921875 m 1,0,-1
 814.240234375 742.919921875 l 2,1,2
 933.366210938 742.919921875 933.366210938 742.919921875 975.31640625 728.73046875 c 0,3,4
 979.256835938 727.346679688 979.256835938 727.346679688 981.520507812 726.51953125 c 0,5,6
 1017.00195312 711.473632812 1017.00195312 711.473632812 1029.08007812 698.639648438 c 1,7,8
 1065.25292969 646.139648438 1065.25292969 646.139648438 1065.16015625 537.919921875 c 2,9,-1
 1065.16015625 239.440429688 l 1,10,-1
 1091.40039062 239.440429688 l 1,11,-1
 1091.40039062 213.200195312 l 1,12,-1
 1253.75976562 213.200195312 l 1,13,-1
 1253.75976562 52.48046875 l 1,14,-1
 1253.75976562 14.759765625 l 1,15,-1
 1250.48046875 0 l 1,16,-1
 1232.44042969 -1.6396484375 l 1,17,-1
 1183.24023438 -1.6396484375 l 1,18,-1
 993 -1.6396484375 l 1,19,-1
 253.360351562 -1.6396484375 l 1,20,-1
 45.080078125 -1.6396484375 l 1,21,-1
 -9.0400390625 -1.6396484375 l 1,22,-1
 -28.7197265625 0 l 1,23,-1
 -32 14.759765625 l 1,24,-1
 -32 52.48046875 l 1,25,-1
 -32 213.200195312 l 1,26,-1
 809.3203125 213.200195312 l 1,27,-1
 809.3203125 239.440429688 l 1,28,-1
 835.560546875 239.440429688 l 1,29,-1
 835.560546875 362.440429688 l 2,30,31
 834.697265625 426.727539062 834.697265625 426.727539062 819.16015625 454.280273438 c 0,32,33
 812.708007812 464.328125 812.708007812 464.328125 792.919921875 483.799804688 c 0,34,35
 766.133789062 510.586914062 766.133789062 510.586914062 761.759765625 513.3203125 c 0,36,37
 713.953125 531.647460938 713.953125 531.647460938 627.280273438 529.719726562 c 1,38,-1
 251.719726562 529.719726562 l 1,39,-1
 251.719726562 742.919921875 l 1,0,-1
EndSplineSet
EndChar

StartChar: afii57422
Encoding: 1582 1582 373
AltUni2: 00fea5.ffffffff.0
Width: 953
VWidth: 1639
GlyphClass: 2
Flags: HW
AnchorPoint: "GposMark2BaseAnchorClassErabAbove_01_02" 470.335 1275.95 basechar 0
AnchorPoint: "GposMark2BaseAnchorClassErabBelow_01_02" 470.335 -963.44 basechar 0
LayerCount: 2
Fore
SplineSet
564.8046875 1120.12011719 m 1,0,1
 636.41015625 1125.94921875 636.41015625 1125.94921875 669.765625 1092.24023438 c 1,2,3
 709.286132812 1047.32910156 709.286132812 1047.32910156 693.045898438 977.555664062 c 0,4,5
 685.426757812 948.44140625 685.426757812 948.44140625 669.765625 929.879882812 c 1,6,7
 646.80859375 908.37890625 646.80859375 908.37890625 609.084960938 902 c 1,8,9
 538.541992188 893.368164062 538.541992188 893.368164062 502.485351562 929.879882812 c 1,10,11
 463.133789062 974.59765625 463.133789062 974.59765625 478.317382812 1043.57128906 c 0,12,13
 486.2421875 1075.14941406 486.2421875 1075.14941406 504.125 1093.87988281 c 0,14,15
 525.302734375 1113.59863281 525.302734375 1113.59863281 564.8046875 1120.12011719 c 1,0,1
138.405273438 744.559570312 m 1,16,-1
 692.725585938 744.559570312 l 2,17,18
 808.526367188 744.559570312 808.526367188 744.559570312 840.775390625 736.899414062 c 0,19,20
 851.466796875 734.2109375 851.466796875 734.2109375 860.004882812 731.440429688 c 0,21,22
 898.564453125 716.733398438 898.564453125 716.733398438 914.125 703.559570312 c 1,23,24
 954.831054688 660.046875 954.831054688 660.046875 952.392578125 534.412109375 c 0,25,26
 951.844726562 506.177734375 951.844726562 506.177734375 951.844726562 498.559570312 c 2,27,-1
 951.844726562 -1.6396484375 l 1,28,-1
 641.884765625 -1.6396484375 l 2,29,30
 520.963867188 -1.6396484375 520.963867188 -1.6396484375 491.818359375 -7.236328125 c 0,31,32
 467.892578125 -12.150390625 467.892578125 -12.150390625 448.365234375 -19.6796875 c 0,33,34
 392.517578125 -42.115234375 392.517578125 -42.115234375 341.765625 -95.1201171875 c 0,35,36
 281.890625 -158.990234375 281.890625 -158.990234375 261.405273438 -209.919921875 c 1,37,38
 214.155273438 -340.64453125 214.155273438 -340.64453125 305.421875 -466.204101562 c 0,39,40
 348.778320312 -524.374023438 348.778320312 -524.374023438 409.004882812 -560.879882812 c 1,41,42
 472.677734375 -597.264648438 472.677734375 -597.264648438 603.620117188 -597.020507812 c 0,43,44
 607.037109375 -597.014648438 607.037109375 -597.014648438 613.884765625 -596.993164062 c 0,45,46
 625.438476562 -596.962890625 625.438476562 -596.962890625 630.405273438 -596.959960938 c 2,47,-1
 951.844726562 -596.959960938 l 1,48,-1
 951.844726562 -813.440429688 l 1,49,-1
 641.884765625 -813.440429688 l 2,50,51
 474.399414062 -813.440429688 474.399414062 -813.440429688 443.171875 -809.77734375 c 0,52,53
 431.610351562 -808.356445312 431.610351562 -808.356445312 422.125 -806.879882812 c 0,54,55
 281.08984375 -784.014648438 281.08984375 -784.014648438 166.28515625 -685.51953125 c 0,56,57
 18.3603515625 -555.958984375 18.3603515625 -555.958984375 1.9287109375 -341.595703125 c 0,58,59
 -14.16015625 -131.692382812 -14.16015625 -131.692382812 103.979492188 24.1826171875 c 0,60,61
 151.251953125 85.3037109375 151.251953125 85.3037109375 212.205078125 126.280273438 c 0,62,63
 337.720703125 208.5625 337.720703125 208.5625 557.60546875 213.015625 c 0,64,65
 570.697265625 213.247070312 570.697265625 213.247070312 696.004882812 213.200195312 c 1,66,-1
 696.004882812 239.440429688 l 1,67,-1
 722.245117188 239.440429688 l 1,68,-1
 722.245117188 360.799804688 l 2,69,70
 721.358398438 430.01171875 721.358398438 430.01171875 704.205078125 459.200195312 c 0,71,72
 695.952148438 472.052734375 695.952148438 472.052734375 677.96484375 487.080078125 c 1,73,74
 649.557617188 514.616210938 649.557617188 514.616210938 643.525390625 518.240234375 c 0,75,76
 603.271484375 533.251953125 603.271484375 533.251953125 515.60546875 531.360351562 c 1,77,-1
 138.405273438 531.360351562 l 1,78,-1
 138.405273438 744.559570312 l 1,16,-1
EndSplineSet
AlternateSubs2: "gsub_alternate_dfl_aalt_arab_FAR_Lookup_01_Subtable_01" uniFEA6 uniFEA7 afii57422 uniFEA8
Substitution2: "gsub_single_rtl_fina_arab_FAR_Lookup_01_Subtable_01" uniFEA6
Substitution2: "gsub_single_rtl_init_arab_FAR_Lookup_01_Subtable_01" uniFEA7
Substitution2: "gsub_single_rtl_medi_arab_FAR_Lookup_01_Subtable_01" uniFEA8
PairPos2: "gpos_pair_dfl_kern_arab_FAR_Lookup_01_Subtable_01" tcheharabic dx=0 dy=0 dh=0 dv=0 dx=0 dy=0 dh=0 dv=0
EndChar

StartChar: uniFEA6
Encoding: 65190 65190 374
Width: 983
VWidth: 1639
GlyphClass: 2
Flags: HW
AnchorPoint: "GposMark2BaseAnchorClassErabAbove_01_02" 563.156 1275.95 basechar 0
AnchorPoint: "GposMark2BaseAnchorClassErabBelow_01_02" 563.156 -963.44 basechar 0
LayerCount: 2
Fore
SplineSet
566.440429688 1120.12011719 m 1,0,1
 638.045898438 1125.94921875 638.045898438 1125.94921875 671.401367188 1092.24023438 c 1,2,3
 710.921875 1047.32910156 710.921875 1047.32910156 694.681640625 977.555664062 c 0,4,5
 687.0625 948.44140625 687.0625 948.44140625 671.401367188 929.879882812 c 1,6,7
 648.444335938 908.37890625 648.444335938 908.37890625 610.720703125 902 c 1,8,9
 540.177734375 893.368164062 540.177734375 893.368164062 504.12109375 929.879882812 c 1,10,11
 464.76953125 974.59765625 464.76953125 974.59765625 479.953125 1043.57128906 c 0,12,13
 487.877929688 1075.14941406 487.877929688 1075.14941406 505.760742188 1093.87988281 c 0,14,15
 526.938476562 1113.59863281 526.938476562 1113.59863281 566.440429688 1120.12011719 c 1,0,1
138.401367188 744.559570312 m 1,16,-1
 704.201171875 744.559570312 l 2,17,18
 818.4921875 744.559570312 818.4921875 744.559570312 860.18359375 730.434570312 c 0,19,20
 864.208984375 729.01953125 864.208984375 729.01953125 866.560546875 728.16015625 c 0,21,22
 902.96875 713.893554688 902.96875 713.893554688 915.760742188 698.639648438 c 1,23,24
 950.33203125 646.37109375 950.33203125 646.37109375 950.201171875 536.280273438 c 2,25,-1
 950.201171875 239.440429688 l 1,26,-1
 976.440429688 239.440429688 l 1,27,-1
 976.440429688 213.200195312 l 1,28,-1
 1142.08105469 213.200195312 l 1,29,-1
 1142.08105469 -1.6396484375 l 1,30,-1
 673.041015625 -1.6396484375 l 2,31,32
 533.586914062 -1.6396484375 533.586914062 -1.6396484375 521.010742188 -2.9423828125 c 0,33,34
 460.279296875 -9.904296875 460.279296875 -9.904296875 417.201171875 -32.7998046875 c 0,35,36
 302.844726562 -94.4921875 302.844726562 -94.4921875 261.49609375 -213.763671875 c 0,37,38
 231.107421875 -304.793945312 231.107421875 -304.793945312 261.401367188 -388.6796875 c 0,39,40
 282.737304688 -445.77734375 282.737304688 -445.77734375 340.12109375 -503.48046875 c 0,41,42
 386.799804688 -549.271484375 386.799804688 -549.271484375 420.48046875 -567.440429688 c 0,43,44
 480.600585938 -597.5 480.600585938 -597.5 610.049804688 -597.0078125 c 0,45,46
 622.750976562 -596.959960938 622.750976562 -596.959960938 628.760742188 -596.959960938 c 2,47,-1
 927.241210938 -596.959960938 l 1,48,-1
 927.241210938 -813.440429688 l 1,49,-1
 633.680664062 -813.440429688 l 2,50,51
 471.581054688 -813.2421875 471.581054688 -813.2421875 431.9609375 -808.51953125 c 0,52,53
 287.446289062 -787.940429688 287.446289062 -787.940429688 171.201171875 -690.440429688 c 1,54,55
 20.9560546875 -560.63671875 20.9560546875 -560.63671875 2.423828125 -345.973632812 c 0,56,57
 -15.76953125 -135.23046875 -15.76953125 -135.23046875 102.586914062 21.958984375 c 0,58,59
 149.622070312 83.171875 149.622070312 83.171875 210.560546875 124.639648438 c 0,60,61
 335.833984375 208.155273438 335.833984375 208.155273438 554.266601562 212.9453125 c 0,62,63
 569.680664062 213.24609375 569.680664062 213.24609375 694.361328125 213.200195312 c 1,64,-1
 694.361328125 239.440429688 l 1,65,-1
 720.600585938 239.440429688 l 1,66,-1
 720.600585938 364.080078125 l 2,67,68
 719.685546875 432.78125 719.685546875 432.78125 704.201171875 459.200195312 c 0,69,70
 696.000976562 470.6796875 696.000976562 470.6796875 679.513671875 484.147460938 c 2,71,-1
 677.9609375 485.440429688 l 1,72,73
 658.26953125 507.3515625 658.26953125 507.3515625 646.80078125 514.959960938 c 1,74,75
 600.23828125 533.302734375 600.23828125 533.302734375 512.321289062 531.360351562 c 1,76,-1
 138.401367188 531.360351562 l 1,77,-1
 138.401367188 744.559570312 l 1,16,-1
EndSplineSet
PairPos2: "gpos_pair_dfl_kern_arab_FAR_Lookup_01_Subtable_01" tcheharabic dx=0 dy=0 dh=0 dv=0 dx=0 dy=0 dh=0 dv=0
EndChar

StartChar: uniFEA7
Encoding: 65191 65191 375
Width: 1225
VWidth: 1639
GlyphClass: 2
Flags: HW
AnchorPoint: "GposMark2BaseAnchorClassErabAbove_01_02" 519.674 1278.83 basechar 0
AnchorPoint: "GposMark2BaseAnchorClassErabBelow_01_02" 519.674 -151.64 basechar 0
LayerCount: 2
Fore
SplineSet
612.520507812 1120.12011719 m 1,0,1
 683.014648438 1128.82910156 683.014648438 1128.82910156 719.120117188 1092.24023438 c 1,2,3
 757.38671875 1050.49414062 757.38671875 1050.49414062 743.173828125 980.719726562 c 0,4,5
 735.80859375 948.930664062 735.80859375 948.930664062 719.120117188 929.879882812 c 1,6,7
 696.538085938 908.66015625 696.538085938 908.66015625 660.080078125 902 c 1,8,9
 590.057617188 893.368164062 590.057617188 893.368164062 553.48046875 928.240234375 c 1,10,11
 513.834960938 969.608398438 513.834960938 969.608398438 527.126953125 1039.78515625 c 0,12,13
 534.618164062 1074.11132812 534.618164062 1074.11132812 553.48046875 1093.87988281 c 0,14,15
 574.268554688 1113.30175781 574.268554688 1113.30175781 612.520507812 1120.12011719 c 1,0,1
251.719726562 744.559570312 m 1,16,-1
 807.6796875 744.559570312 l 2,17,18
 923.481445312 744.559570312 923.481445312 744.559570312 955.73046875 736.899414062 c 0,19,20
 966.421875 734.2109375 966.421875 734.2109375 974.959960938 731.440429688 c 0,21,22
 1016.03710938 715.766601562 1016.03710938 715.766601562 1029.08007812 703.559570312 c 0,23,24
 1071.34863281 659.881835938 1071.34863281 659.881835938 1068.97363281 532.606445312 c 0,25,26
 1068.44042969 504.032226562 1068.44042969 504.032226562 1068.44042969 496.919921875 c 2,27,-1
 1068.44042969 -1.6396484375 l 1,28,-1
 255 -1.6396484375 l 1,29,-1
 45.080078125 -1.6396484375 l 1,30,-1
 -9.0400390625 -1.6396484375 l 1,31,-1
 -28.7197265625 0 l 1,32,-1
 -32 14.759765625 l 1,33,-1
 -32 52.48046875 l 1,34,-1
 -32 213.200195312 l 1,35,-1
 809.3203125 213.200195312 l 1,36,-1
 809.3203125 239.440429688 l 1,37,-1
 835.560546875 239.440429688 l 1,38,-1
 835.560546875 364.080078125 l 2,39,40
 834.7265625 430.079101562 834.7265625 430.079101562 819.16015625 459.200195312 c 1,41,42
 810.959960938 470.6796875 810.959960938 470.6796875 794.473632812 484.147460938 c 2,43,-1
 792.919921875 485.440429688 l 1,44,45
 773.228515625 507.3515625 773.228515625 507.3515625 761.759765625 514.959960938 c 1,46,47
 715.198242188 533.302734375 715.198242188 533.302734375 627.280273438 531.360351562 c 1,48,-1
 251.719726562 531.360351562 l 1,49,-1
 251.719726562 744.559570312 l 1,16,-1
EndSplineSet
EndChar

StartChar: uniFEA8
Encoding: 65192 65192 376
Width: 1221
VWidth: 1639
GlyphClass: 2
Flags: HW
AnchorPoint: "GposMark2BaseAnchorClassErabAbove_01_02" 610.06 1278.83 basechar 0
AnchorPoint: "GposMark2BaseAnchorClassErabBelow_01_02" 610.06 -151.64 basechar 0
LayerCount: 2
Fore
SplineSet
612.520507812 1120.12011719 m 1,0,1
 683.014648438 1128.82910156 683.014648438 1128.82910156 719.120117188 1092.24023438 c 1,2,3
 757.38671875 1050.49414062 757.38671875 1050.49414062 743.173828125 980.719726562 c 0,4,5
 735.80859375 948.930664062 735.80859375 948.930664062 719.120117188 929.879882812 c 1,6,7
 696.538085938 908.66015625 696.538085938 908.66015625 660.080078125 902 c 1,8,9
 590.057617188 893.368164062 590.057617188 893.368164062 553.48046875 928.240234375 c 1,10,11
 513.834960938 969.608398438 513.834960938 969.608398438 527.126953125 1039.78515625 c 0,12,13
 534.618164062 1074.11132812 534.618164062 1074.11132812 553.48046875 1093.87988281 c 0,14,15
 574.268554688 1113.30175781 574.268554688 1113.30175781 612.520507812 1120.12011719 c 1,0,1
251.719726562 742.919921875 m 1,16,-1
 814.240234375 742.919921875 l 2,17,18
 933.366210938 742.919921875 933.366210938 742.919921875 975.31640625 728.73046875 c 0,19,20
 979.256835938 727.346679688 979.256835938 727.346679688 981.520507812 726.51953125 c 0,21,22
 1017.00195312 711.473632812 1017.00195312 711.473632812 1029.08007812 698.639648438 c 1,23,24
 1065.25292969 646.139648438 1065.25292969 646.139648438 1065.16015625 537.919921875 c 2,25,-1
 1065.16015625 239.440429688 l 1,26,-1
 1091.40039062 239.440429688 l 1,27,-1
 1091.40039062 213.200195312 l 1,28,-1
 1252.12011719 213.200195312 l 1,29,-1
 1252.12011719 -1.6396484375 l 1,30,-1
 302.560546875 -1.6396484375 l 1,31,-1
 58.2001953125 -1.6396484375 l 1,32,-1
 -5.759765625 -1.6396484375 l 1,33,-1
 -28.7197265625 0 l 1,34,-1
 -32 14.759765625 l 1,35,-1
 -32 52.48046875 l 1,36,-1
 -32 213.200195312 l 1,37,-1
 809.3203125 213.200195312 l 1,38,-1
 809.3203125 239.440429688 l 1,39,-1
 835.560546875 239.440429688 l 1,40,-1
 835.560546875 362.440429688 l 2,41,42
 834.697265625 426.727539062 834.697265625 426.727539062 819.16015625 454.280273438 c 0,43,44
 812.708007812 464.328125 812.708007812 464.328125 792.919921875 483.799804688 c 0,45,46
 766.133789062 510.586914062 766.133789062 510.586914062 761.759765625 513.3203125 c 0,47,48
 713.953125 531.647460938 713.953125 531.647460938 627.280273438 529.719726562 c 1,49,-1
 251.719726562 529.719726562 l 1,50,-1
 251.719726562 742.919921875 l 1,16,-1
EndSplineSet
EndChar

StartChar: afii57423
Encoding: 1583 1583 377
AltUni2: 00fea9.ffffffff.0
Width: 892
VWidth: 1639
GlyphClass: 4
Flags: HW
AnchorPoint: "GposMark2BaseAnchorClassErabAbove_01_02" 369.284 894.56 basechar 0
AnchorPoint: "GposMark2BaseAnchorClassErabBelow_01_02" 369.284 -151.64 basechar 0
LayerCount: 2
Fore
SplineSet
1.6396484375 744.559570312 m 1,0,-1
 492 744.559570312 l 2,1,2
 609.849609375 744.559570312 609.849609375 744.559570312 648.807617188 730.9453125 c 0,3,4
 678.584960938 719.66796875 678.584960938 719.66796875 697 701.919921875 c 0,5,6
 738.568359375 660.3515625 738.568359375 660.3515625 735.444335938 535.82421875 c 0,7,8
 734.719726562 506.953125 734.719726562 506.953125 734.719726562 498.559570312 c 2,9,-1
 734.719726562 -1.6396484375 l 1,10,-1
 0 -1.6396484375 l 1,11,-1
 0 213.200195312 l 1,12,-1
 478.879882812 213.200195312 l 1,13,-1
 478.879882812 239.440429688 l 1,14,-1
 505.120117188 239.440429688 l 1,15,-1
 505.120117188 360.799804688 l 2,16,17
 504.344726562 426.889648438 504.344726562 426.889648438 492 452.639648438 c 1,18,19
 480.532226562 469.729492188 480.532226562 469.729492188 462.48046875 485.440429688 c 0,20,21
 459.200195312 488.719726562 459.200195312 488.719726562 453.004882812 495.64453125 c 0,22,23
 439.77734375 509.73046875 439.77734375 509.73046875 432.959960938 514.959960938 c 1,24,25
 394.974609375 532.413085938 394.974609375 532.413085938 311.599609375 531.360351562 c 2,26,-1
 1.6396484375 531.360351562 l 1,27,-1
 1.6396484375 744.559570312 l 1,0,-1
EndSplineSet
AlternateSubs2: "gsub_alternate_dfl_aalt_arab_FAR_Lookup_01_Subtable_01" uniFEAA afii57423
Substitution2: "gsub_single_rtl_fina_arab_FAR_Lookup_01_Subtable_01" uniFEAA
EndChar

StartChar: uniFEAA
Encoding: 65194 65194 378
Width: 891
VWidth: 1639
GlyphClass: 2
Flags: HW
AnchorPoint: "GposMark2BaseAnchorClassErabAbove_01_02" 460.84 894.56 basechar 0
AnchorPoint: "GposMark2BaseAnchorClassErabBelow_01_02" 460.84 -151.64 basechar 0
LayerCount: 2
Fore
SplineSet
1.6396484375 744.559570312 m 1,0,-1
 506.759765625 744.559570312 l 2,1,2
 607.20703125 743.958984375 607.20703125 743.958984375 652.719726562 726.51953125 c 0,3,4
 688.275390625 711.280273438 688.275390625 711.280273438 700.280273438 697 c 1,5,6
 734.852539062 646.290039062 734.852539062 646.290039062 734.719726562 534.639648438 c 2,7,-1
 734.719726562 239.440429688 l 1,8,-1
 760.959960938 239.440429688 l 1,9,-1
 760.959960938 213.200195312 l 1,10,-1
 921.6796875 213.200195312 l 1,11,-1
 921.6796875 -1.6396484375 l 1,12,-1
 0 -1.6396484375 l 1,13,-1
 0 213.200195312 l 1,14,-1
 478.879882812 213.200195312 l 1,15,-1
 478.879882812 239.440429688 l 1,16,-1
 505.120117188 239.440429688 l 1,17,-1
 505.120117188 360.799804688 l 2,18,19
 504.344726562 426.889648438 504.344726562 426.889648438 492 452.639648438 c 1,20,21
 480.532226562 469.729492188 480.532226562 469.729492188 462.48046875 485.440429688 c 0,22,23
 459.200195312 488.719726562 459.200195312 488.719726562 453.004882812 495.64453125 c 0,24,25
 439.77734375 509.73046875 439.77734375 509.73046875 432.959960938 514.959960938 c 1,26,27
 394.974609375 532.413085938 394.974609375 532.413085938 311.599609375 531.360351562 c 2,28,-1
 1.6396484375 531.360351562 l 1,29,-1
 1.6396484375 744.559570312 l 1,0,-1
EndSplineSet
EndChar

StartChar: afii57424
Encoding: 1584 1584 379
AltUni2: 00feab.ffffffff.0
Width: 892
VWidth: 1639
GlyphClass: 2
Flags: HW
AnchorPoint: "GposMark2BaseAnchorClassErabAbove_01_02" 369.284 1278.84 basechar 0
AnchorPoint: "GposMark2BaseAnchorClassErabBelow_01_02" 369.284 -151.64 basechar 0
LayerCount: 2
Fore
SplineSet
306.6796875 1120.12011719 m 1,0,1
 377.750976562 1128.83691406 377.750976562 1128.83691406 413.280273438 1090.59960938 c 1,2,3
 451.911132812 1044.61132812 451.911132812 1044.61132812 434.678710938 975.248046875 c 0,4,5
 426.868164062 947.255859375 426.868164062 947.255859375 411.639648438 929.879882812 c 0,6,7
 391.014648438 908.614257812 391.014648438 908.614257812 350.959960938 902 c 1,8,9
 280.416992188 893.368164062 280.416992188 893.368164062 244.360351562 929.879882812 c 1,10,11
 206.09375 971.625 206.09375 971.625 220.306640625 1041.40039062 c 0,12,13
 227.671875 1073.18945312 227.671875 1073.18945312 244.360351562 1092.24023438 c 1,14,15
 267.143554688 1113.60351562 267.143554688 1113.60351562 306.6796875 1120.12011719 c 1,0,1
1.6396484375 744.559570312 m 1,16,-1
 492 744.559570312 l 2,17,18
 609.849609375 744.559570312 609.849609375 744.559570312 648.807617188 730.9453125 c 0,19,20
 678.584960938 719.66796875 678.584960938 719.66796875 697 701.919921875 c 0,21,22
 738.568359375 660.3515625 738.568359375 660.3515625 735.444335938 535.82421875 c 0,23,24
 734.719726562 506.953125 734.719726562 506.953125 734.719726562 498.559570312 c 2,25,-1
 734.719726562 -1.6396484375 l 1,26,-1
 0 -1.6396484375 l 1,27,-1
 0 213.200195312 l 1,28,-1
 478.879882812 213.200195312 l 1,29,-1
 478.879882812 239.440429688 l 1,30,-1
 505.120117188 239.440429688 l 1,31,-1
 505.120117188 360.799804688 l 2,32,33
 504.344726562 426.889648438 504.344726562 426.889648438 492 452.639648438 c 1,34,35
 480.532226562 469.729492188 480.532226562 469.729492188 462.48046875 485.440429688 c 0,36,37
 459.200195312 488.719726562 459.200195312 488.719726562 453.004882812 495.64453125 c 0,38,39
 439.77734375 509.73046875 439.77734375 509.73046875 432.959960938 514.959960938 c 1,40,41
 394.974609375 532.413085938 394.974609375 532.413085938 311.599609375 531.360351562 c 2,42,-1
 1.6396484375 531.360351562 l 1,43,-1
 1.6396484375 744.559570312 l 1,16,-1
EndSplineSet
AlternateSubs2: "gsub_alternate_dfl_aalt_arab_FAR_Lookup_01_Subtable_01" uniFEAC afii57424
Substitution2: "gsub_single_rtl_fina_arab_FAR_Lookup_01_Subtable_01" uniFEAC
EndChar

StartChar: uniFEAC
Encoding: 65196 65196 380
Width: 891
VWidth: 1639
GlyphClass: 2
Flags: HW
AnchorPoint: "GposMark2BaseAnchorClassErabAbove_01_02" 460.84 1278.84 basechar 0
AnchorPoint: "GposMark2BaseAnchorClassErabBelow_01_02" 460.84 -151.64 basechar 0
LayerCount: 2
Fore
SplineSet
306.6796875 1120.12011719 m 1,0,1
 377.750976562 1128.83691406 377.750976562 1128.83691406 413.280273438 1090.59960938 c 1,2,3
 451.911132812 1044.61132812 451.911132812 1044.61132812 434.678710938 975.248046875 c 0,4,5
 426.868164062 947.255859375 426.868164062 947.255859375 411.639648438 929.879882812 c 0,6,7
 391.014648438 908.614257812 391.014648438 908.614257812 350.959960938 902 c 1,8,9
 280.416992188 893.368164062 280.416992188 893.368164062 244.360351562 929.879882812 c 1,10,11
 206.09375 971.625 206.09375 971.625 220.306640625 1041.40039062 c 0,12,13
 227.671875 1073.18945312 227.671875 1073.18945312 244.360351562 1092.24023438 c 1,14,15
 267.143554688 1113.60351562 267.143554688 1113.60351562 306.6796875 1120.12011719 c 1,0,1
1.6396484375 744.559570312 m 1,16,-1
 506.759765625 744.559570312 l 2,17,18
 607.20703125 743.958984375 607.20703125 743.958984375 652.719726562 726.51953125 c 0,19,20
 688.275390625 711.280273438 688.275390625 711.280273438 700.280273438 697 c 1,21,22
 734.852539062 646.290039062 734.852539062 646.290039062 734.719726562 534.639648438 c 2,23,-1
 734.719726562 239.440429688 l 1,24,-1
 760.959960938 239.440429688 l 1,25,-1
 760.959960938 213.200195312 l 1,26,-1
 921.6796875 213.200195312 l 1,27,-1
 921.6796875 -1.6396484375 l 1,28,-1
 0 -1.6396484375 l 1,29,-1
 0 213.200195312 l 1,30,-1
 478.879882812 213.200195312 l 1,31,-1
 478.879882812 239.440429688 l 1,32,-1
 505.120117188 239.440429688 l 1,33,-1
 505.120117188 360.799804688 l 2,34,35
 504.344726562 426.889648438 504.344726562 426.889648438 492 452.639648438 c 1,36,37
 480.532226562 469.729492188 480.532226562 469.729492188 462.48046875 485.440429688 c 0,38,39
 459.200195312 488.719726562 459.200195312 488.719726562 453.004882812 495.64453125 c 0,40,41
 439.77734375 509.73046875 439.77734375 509.73046875 432.959960938 514.959960938 c 1,42,43
 394.974609375 532.413085938 394.974609375 532.413085938 311.599609375 531.360351562 c 2,44,-1
 1.6396484375 531.360351562 l 1,45,-1
 1.6396484375 744.559570312 l 1,16,-1
EndSplineSet
EndChar

StartChar: afii57425
Encoding: 1585 1585 381
AltUni2: 00fead.ffffffff.0
Width: 530
VWidth: 1639
GlyphClass: 4
Flags: HW
AnchorPoint: "GposMark2BaseAnchorClassErabAbove_01_02" 84.6343 894.56 basechar 0
AnchorPoint: "GposMark2BaseAnchorClassErabBelow_01_02" 84.6343 -712.52 basechar 0
LayerCount: 2
Fore
SplineSet
149.51953125 744.559570312 m 1,0,-1
 372.559570312 744.559570312 l 1,1,-1
 372.559570312 -164 l 2,2,3
 372.559570312 -183.025390625 372.559570312 -183.025390625 373.708984375 -222.2890625 c 0,4,5
 377.268554688 -363.080078125 377.268554688 -363.080078125 356.16015625 -426.400390625 c 0,6,7
 334.553710938 -488.244140625 334.553710938 -488.244140625 308.599609375 -511.6796875 c 0,8,9
 252.174804688 -561.65625 252.174804688 -561.65625 122.689453125 -562.4765625 c 0,10,11
 114.198242188 -562.51953125 114.198242188 -562.51953125 101.959960938 -562.51953125 c 2,12,-1
 -208 -562.51953125 l 1,13,-1
 -208 -334.559570312 l 1,14,15
 -176.83984375 -334.559570312 -176.83984375 -334.559570312 -115.33984375 -333.740234375 c 0,16,17
 -53.2744140625 -332.934570312 -53.2744140625 -332.934570312 -22.6796875 -332.919921875 c 0,18,19
 59.78125 -331.780273438 59.78125 -331.780273438 88.83984375 -308.3203125 c 0,20,21
 123.53515625 -278.787109375 123.53515625 -278.787109375 136.399414062 -252.559570312 c 0,22,23
 149.620117188 -221.5625 149.620117188 -221.5625 149.51953125 -147.599609375 c 2,24,-1
 149.51953125 -9.83984375 l 1,25,-1
 149.51953125 744.559570312 l 1,0,-1
EndSplineSet
AlternateSubs2: "gsub_alternate_dfl_aalt_arab_FAR_Lookup_01_Subtable_01" uniFEAE afii57425
Substitution2: "gsub_single_rtl_fina_arab_FAR_Lookup_01_Subtable_01" uniFEAE
PairPos2: "gpos_pair_dfl_kern_arab_FAR_Lookup_01_Subtable_01" noonarabic dx=0 dy=0 dh=0 dv=0 dx=0 dy=0 dh=0 dv=0
PairPos2: "gpos_pair_dfl_kern_arab_FAR_Lookup_01_Subtable_01" lamarabic dx=0 dy=0 dh=0 dv=0 dx=0 dy=0 dh=0 dv=0
PairPos2: "gpos_pair_dfl_kern_arab_FAR_Lookup_01_Subtable_01" qafarabic dx=0 dy=0 dh=0 dv=0 dx=0 dy=0 dh=0 dv=0
PairPos2: "gpos_pair_dfl_kern_arab_FAR_Lookup_01_Subtable_01" jeharabic dx=0 dy=0 dh=0 dv=0 dx=0 dy=0 dh=0 dv=0
PairPos2: "gpos_pair_dfl_kern_arab_FAR_Lookup_01_Subtable_01" tcheharabic dx=0 dy=0 dh=0 dv=0 dx=0 dy=0 dh=0 dv=0
EndChar

StartChar: uniFEAE
Encoding: 65198 65198 382
Width: 585
VWidth: 1639
GlyphClass: 2
Flags: HW
AnchorPoint: "GposMark2BaseAnchorClassErabAbove_01_02" 230.22 894.56 basechar 0
AnchorPoint: "GposMark2BaseAnchorClassErabBelow_01_02" 230.22 -712.52 basechar 0
LayerCount: 2
Fore
SplineSet
201.51953125 744.559570312 m 1,0,-1
 424.559570312 744.559570312 l 1,1,-1
 424.559570312 239.440429688 l 1,2,-1
 450.799804688 239.440429688 l 1,3,-1
 450.799804688 213.200195312 l 1,4,-1
 616.439453125 213.200195312 l 1,5,-1
 616.439453125 54.1201171875 l 1,6,-1
 616.439453125 14.759765625 l 1,7,-1
 613.16015625 0 l 1,8,-1
 570.51953125 -1.6396484375 l 1,9,-1
 450.799804688 -1.6396484375 l 1,10,-1
 450.799804688 -27.8798828125 l 1,11,-1
 424.559570312 -27.8798828125 l 1,12,13
 424.559570312 -58.861328125 424.559570312 -58.861328125 425.4453125 -121.133789062 c 0,14,15
 427.393554688 -267.1640625 427.393554688 -267.1640625 422.919921875 -337.83984375 c 0,16,17
 415.166015625 -455.859375 415.166015625 -455.859375 363.879882812 -508.400390625 c 1,18,19
 308.256835938 -562.33984375 308.256835938 -562.33984375 172 -562.51953125 c 2,20,-1
 -156 -562.51953125 l 1,21,-1
 -156 -334.559570312 l 1,22,23
 -124.83984375 -334.559570312 -124.83984375 -334.559570312 -63.33984375 -333.740234375 c 0,24,25
 -1.2744140625 -332.934570312 -1.2744140625 -332.934570312 29.3203125 -332.919921875 c 0,26,27
 111.78125 -331.780273438 111.78125 -331.780273438 140.83984375 -308.3203125 c 0,28,29
 175.53515625 -278.787109375 175.53515625 -278.787109375 188.399414062 -252.559570312 c 0,30,31
 201.620117188 -221.5625 201.620117188 -221.5625 201.51953125 -147.599609375 c 2,32,-1
 201.51953125 -9.83984375 l 1,33,-1
 201.51953125 744.559570312 l 1,0,-1
EndSplineSet
PairPos2: "gpos_pair_dfl_kern_arab_FAR_Lookup_01_Subtable_01" noonarabic dx=0 dy=0 dh=0 dv=0 dx=0 dy=0 dh=0 dv=0
PairPos2: "gpos_pair_dfl_kern_arab_FAR_Lookup_01_Subtable_01" lamarabic dx=0 dy=0 dh=0 dv=0 dx=0 dy=0 dh=0 dv=0
PairPos2: "gpos_pair_dfl_kern_arab_FAR_Lookup_01_Subtable_01" qafarabic dx=0 dy=0 dh=0 dv=0 dx=0 dy=0 dh=0 dv=0
PairPos2: "gpos_pair_dfl_kern_arab_FAR_Lookup_01_Subtable_01" jeharabic dx=0 dy=0 dh=0 dv=0 dx=0 dy=0 dh=0 dv=0
PairPos2: "gpos_pair_dfl_kern_arab_FAR_Lookup_01_Subtable_01" tcheharabic dx=0 dy=0 dh=0 dv=0 dx=0 dy=0 dh=0 dv=0
EndChar

StartChar: afii57426
Encoding: 1586 1586 383
AltUni2: 00feaf.ffffffff.0
Width: 530
VWidth: 1639
GlyphClass: 2
Flags: HW
AnchorPoint: "GposMark2BaseAnchorClassErabAbove_01_02" 87.21 1278.84 basechar 0
AnchorPoint: "GposMark2BaseAnchorClassErabBelow_01_02" 87.21 -712.52 basechar 0
LayerCount: 2
Fore
SplineSet
238.080078125 1120.12011719 m 0,0,1
 309.151367188 1128.83691406 309.151367188 1128.83691406 344.6796875 1090.59960938 c 1,2,3
 382.419921875 1045.671875 382.419921875 1045.671875 366.264648438 976.947265625 c 0,4,5
 358.217773438 946.59765625 358.217773438 946.59765625 341.399414062 928.240234375 c 0,6,7
 322.436523438 908.62890625 322.436523438 908.62890625 282.360351562 902 c 1,8,9
 213.708984375 893.584960938 213.708984375 893.584960938 177.399414062 928.240234375 c 1,10,11
 138.321289062 969.017578125 138.321289062 969.017578125 151.775390625 1039.78515625 c 0,12,13
 159.219726562 1074.015625 159.219726562 1074.015625 177.399414062 1093.87988281 c 1,14,15
 201.186523438 1114.00585938 201.186523438 1114.00585938 238.080078125 1120.12011719 c 0,0,1
149.51953125 744.559570312 m 1,16,-1
 372.559570312 744.559570312 l 1,17,-1
 372.559570312 -164 l 2,18,19
 372.559570312 -183.025390625 372.559570312 -183.025390625 373.708984375 -222.2890625 c 0,20,21
 377.268554688 -363.080078125 377.268554688 -363.080078125 356.16015625 -426.400390625 c 0,22,23
 334.553710938 -488.244140625 334.553710938 -488.244140625 308.599609375 -511.6796875 c 0,24,25
 252.174804688 -561.65625 252.174804688 -561.65625 122.689453125 -562.4765625 c 0,26,27
 114.198242188 -562.51953125 114.198242188 -562.51953125 101.959960938 -562.51953125 c 2,28,-1
 -208 -562.51953125 l 1,29,-1
 -208 -334.559570312 l 1,30,31
 -176.83984375 -334.559570312 -176.83984375 -334.559570312 -115.33984375 -333.740234375 c 0,32,33
 -53.2744140625 -332.934570312 -53.2744140625 -332.934570312 -22.6796875 -332.919921875 c 0,34,35
 59.78125 -331.780273438 59.78125 -331.780273438 88.83984375 -308.3203125 c 0,36,37
 123.53515625 -278.787109375 123.53515625 -278.787109375 136.399414062 -252.559570312 c 0,38,39
 149.620117188 -221.5625 149.620117188 -221.5625 149.51953125 -147.599609375 c 2,40,-1
 149.51953125 -9.83984375 l 1,41,-1
 149.51953125 744.559570312 l 1,16,-1
EndSplineSet
AlternateSubs2: "gsub_alternate_dfl_aalt_arab_FAR_Lookup_01_Subtable_01" uniFEB0 afii57426
Substitution2: "gsub_single_rtl_fina_arab_FAR_Lookup_01_Subtable_01" uniFEB0
PairPos2: "gpos_pair_dfl_kern_arab_FAR_Lookup_01_Subtable_01" noonarabic dx=0 dy=0 dh=0 dv=0 dx=0 dy=0 dh=0 dv=0
PairPos2: "gpos_pair_dfl_kern_arab_FAR_Lookup_01_Subtable_01" lamarabic dx=0 dy=0 dh=0 dv=0 dx=0 dy=0 dh=0 dv=0
PairPos2: "gpos_pair_dfl_kern_arab_FAR_Lookup_01_Subtable_01" qafarabic dx=0 dy=0 dh=0 dv=0 dx=0 dy=0 dh=0 dv=0
PairPos2: "gpos_pair_dfl_kern_arab_FAR_Lookup_01_Subtable_01" jeharabic dx=0 dy=0 dh=0 dv=0 dx=0 dy=0 dh=0 dv=0
PairPos2: "gpos_pair_dfl_kern_arab_FAR_Lookup_01_Subtable_01" tcheharabic dx=0 dy=0 dh=0 dv=0 dx=0 dy=0 dh=0 dv=0
EndChar

StartChar: uniFEB0
Encoding: 65200 65200 384
Width: 585
VWidth: 1639
GlyphClass: 2
Flags: HW
AnchorPoint: "GposMark2BaseAnchorClassErabAbove_01_02" 230.22 1278.83 basechar 0
AnchorPoint: "GposMark2BaseAnchorClassErabBelow_01_02" 230.22 -712.52 basechar 0
LayerCount: 2
Fore
SplineSet
280.240234375 1120.12011719 m 1,0,1
 350.734375 1128.82910156 350.734375 1128.82910156 386.83984375 1092.24023438 c 1,2,3
 424.958984375 1050.65625 424.958984375 1050.65625 410.657226562 980.702148438 c 0,4,5
 402.969726562 947.650390625 402.969726562 947.650390625 385.200195312 928.240234375 c 1,6,7
 364.064453125 908.505859375 364.064453125 908.505859375 327.799804688 902 c 1,8,9
 255.873046875 893.1484375 255.873046875 893.1484375 219.559570312 929.879882812 c 1,10,11
 180.208984375 974.59765625 180.208984375 974.59765625 195.392578125 1043.57128906 c 0,12,13
 203.317382812 1075.14941406 203.317382812 1075.14941406 221.200195312 1093.87988281 c 0,14,15
 241.98828125 1113.30175781 241.98828125 1113.30175781 280.240234375 1120.12011719 c 1,0,1
201.51953125 744.559570312 m 1,16,-1
 424.559570312 744.559570312 l 1,17,-1
 424.559570312 239.440429688 l 1,18,-1
 450.799804688 239.440429688 l 1,19,-1
 450.799804688 213.200195312 l 1,20,-1
 616.439453125 213.200195312 l 1,21,-1
 616.439453125 54.1201171875 l 1,22,-1
 616.439453125 14.759765625 l 1,23,-1
 613.16015625 0 l 1,24,-1
 570.51953125 -1.6396484375 l 1,25,-1
 450.799804688 -1.6396484375 l 1,26,-1
 450.799804688 -27.8798828125 l 1,27,-1
 424.559570312 -27.8798828125 l 1,28,29
 424.559570312 -58.861328125 424.559570312 -58.861328125 425.4453125 -121.133789062 c 0,30,31
 427.393554688 -267.1640625 427.393554688 -267.1640625 422.919921875 -337.83984375 c 0,32,33
 415.166015625 -455.859375 415.166015625 -455.859375 363.879882812 -508.400390625 c 1,34,35
 308.256835938 -562.33984375 308.256835938 -562.33984375 172 -562.51953125 c 2,36,-1
 -156 -562.51953125 l 1,37,-1
 -156 -334.559570312 l 1,38,39
 -124.83984375 -334.559570312 -124.83984375 -334.559570312 -63.33984375 -333.740234375 c 0,40,41
 -1.2744140625 -332.934570312 -1.2744140625 -332.934570312 29.3203125 -332.919921875 c 0,42,43
 111.78125 -331.780273438 111.78125 -331.780273438 140.83984375 -308.3203125 c 0,44,45
 175.53515625 -278.787109375 175.53515625 -278.787109375 188.399414062 -252.559570312 c 0,46,47
 201.620117188 -221.5625 201.620117188 -221.5625 201.51953125 -147.599609375 c 2,48,-1
 201.51953125 -9.83984375 l 1,49,-1
 201.51953125 744.559570312 l 1,16,-1
EndSplineSet
PairPos2: "gpos_pair_dfl_kern_arab_FAR_Lookup_01_Subtable_01" noonarabic dx=0 dy=0 dh=0 dv=0 dx=0 dy=0 dh=0 dv=0
PairPos2: "gpos_pair_dfl_kern_arab_FAR_Lookup_01_Subtable_01" lamarabic dx=0 dy=0 dh=0 dv=0 dx=0 dy=0 dh=0 dv=0
PairPos2: "gpos_pair_dfl_kern_arab_FAR_Lookup_01_Subtable_01" qafarabic dx=0 dy=0 dh=0 dv=0 dx=0 dy=0 dh=0 dv=0
PairPos2: "gpos_pair_dfl_kern_arab_FAR_Lookup_01_Subtable_01" jeharabic dx=0 dy=0 dh=0 dv=0 dx=0 dy=0 dh=0 dv=0
PairPos2: "gpos_pair_dfl_kern_arab_FAR_Lookup_01_Subtable_01" tcheharabic dx=0 dy=0 dh=0 dv=0 dx=0 dy=0 dh=0 dv=0
EndChar

StartChar: afii57427
Encoding: 1587 1587 385
AltUni2: 00feb1.ffffffff.0
Width: 2233
VWidth: 1639
GlyphClass: 2
Flags: HW
AnchorPoint: "GposMark2BaseAnchorClassErabAbove_01_02" 1037.62 892.92 basechar 0
AnchorPoint: "GposMark2BaseAnchorClassErabBelow_01_02" 1037.62 -713.292 basechar 0
LayerCount: 2
Fore
SplineSet
0.5673828125 742.919921875 m 1,0,-1
 220.327148438 742.919921875 l 1,1,-1
 220.327148438 147.599609375 l 1,2,-1
 220.327148438 9.83984375 l 2,3,4
 221.05078125 -103.775390625 221.05078125 -103.775390625 244.927734375 -155.799804688 c 0,5,6
 265.587890625 -197.560546875 265.587890625 -197.560546875 310.52734375 -242.719726562 c 0,7,8
 370.499023438 -301.547851562 370.499023438 -301.547851562 422.047851562 -323.080078125 c 1,9,10
 531.529296875 -364.787109375 531.529296875 -364.787109375 634.200195312 -314.623046875 c 0,11,12
 638.015625 -312.708007812 638.015625 -312.708007812 640.166992188 -311.599609375 c 0,13,14
 677.880859375 -290.166015625 677.880859375 -290.166015625 723.807617188 -244.360351562 c 0,15,16
 773.141601562 -194.021484375 773.141601562 -194.021484375 791.047851562 -157.440429688 c 0,17,18
 815.642578125 -104.919921875 815.642578125 -104.919921875 815.647460938 0 c 2,19,-1
 815.647460938 139.400390625 l 1,20,-1
 815.647460938 742.919921875 l 1,21,-1
 1035.40722656 742.919921875 l 1,22,-1
 1035.40722656 239.440429688 l 1,23,-1
 1061.64746094 239.440429688 l 1,24,-1
 1061.64746094 213.200195312 l 1,25,-1
 1307.64746094 213.200195312 l 1,26,-1
 1307.64746094 239.440429688 l 1,27,-1
 1333.88769531 239.440429688 l 1,28,-1
 1333.88769531 742.919921875 l 1,29,-1
 1553.64746094 742.919921875 l 1,30,-1
 1553.64746094 239.440429688 l 1,31,-1
 1579.88769531 239.440429688 l 1,32,-1
 1579.88769531 213.200195312 l 1,33,34
 1701.2265625 213.309570312 1701.2265625 213.309570312 1724.20703125 214.83984375 c 0,35,36
 1773.18066406 219.588867188 1773.18066406 219.588867188 1783.24707031 224.6796875 c 0,37,38
 1796.09960938 232.932617188 1796.09960938 232.932617188 1811.12695312 250.919921875 c 1,39,40
 1839.0078125 278.799804688 1839.0078125 278.799804688 1839.0078125 278.799804688 c 1,41,42
 1855.75488281 311.454101562 1855.75488281 311.454101562 1855.40722656 395.240234375 c 2,43,-1
 1855.40722656 742.919921875 l 1,44,-1
 2076.80761719 742.919921875 l 1,45,-1
 2076.80761719 295.200195312 l 2,46,47
 2076.80761719 160.081054688 2076.80761719 160.081054688 2054.20996094 106.228515625 c 0,48,49
 2042.30273438 79.2919921875 2042.30273438 79.2919921875 2025.96777344 59.0400390625 c 0,50,51
 2003.36816406 33.7265625 2003.36816406 33.7265625 1952.16699219 16.400390625 c 1,52,53
 1890.21484375 -2.0185546875 1890.21484375 -2.0185546875 1753.72753906 -1.6396484375 c 2,54,-1
 1061.64746094 -1.6396484375 l 1,55,-1
 1061.64746094 -27.8798828125 l 1,56,-1
 1035.40722656 -27.8798828125 l 1,57,58
 1035.40722656 -228.478515625 1035.40722656 -228.478515625 921.306640625 -375.403320312 c 0,59,60
 896.534179688 -406.689453125 896.534179688 -406.689453125 869.767578125 -431.3203125 c 0,61,62
 723.780273438 -563.291992188 723.780273438 -563.291992188 511.540039062 -562.670898438 c 0,63,64
 295.426757812 -562.037109375 295.426757812 -562.037109375 152.798828125 -423.46484375 c 0,65,66
 135.872070312 -406.712890625 135.872070312 -406.712890625 121.927734375 -390.3203125 c 0,67,68
 24.98828125 -270.892578125 24.98828125 -270.892578125 5.4873046875 -131.200195312 c 0,69,70
 -1.55859375 -79.8662109375 -1.55859375 -79.8662109375 0.4423828125 100.145507812 c 0,71,72
 0.5576171875 112.16015625 0.5576171875 112.16015625 0.5673828125 121.360351562 c 2,73,-1
 0.5673828125 742.919921875 l 1,0,-1
EndSplineSet
AlternateSubs2: "gsub_alternate_dfl_aalt_arab_FAR_Lookup_01_Subtable_01" uniFEB2 uniFEB3 afii57427 uniFEB4
Substitution2: "gsub_single_rtl_fina_arab_FAR_Lookup_01_Subtable_01" uniFEB2
Substitution2: "gsub_single_rtl_init_arab_FAR_Lookup_01_Subtable_01" uniFEB3
Substitution2: "gsub_single_rtl_medi_arab_FAR_Lookup_01_Subtable_01" uniFEB4
EndChar

